*
%LPD*%
%LN_bot_copper*%
%FSLAX34Y34*%
%MOMM*%
%OFA0B0*%
%AD*%
%ADD023C,2.0000*%
%ADD024C,0.5000*%
%ADD025R,2.0000X2.0000*%
G54D23*
G01X857300Y548300D03*
G01X857300Y522900D03*
G01X857300Y497500D03*
G01X857300Y472100D03*
G01X857300Y446700D03*
G01X857300Y421300D03*
G01X857300Y395900D03*
G01X857300Y370500D03*
G01X857300Y345100D03*
G01X857300Y319700D03*
G01X857300Y294300D03*
G01X857300Y268900D03*
G01X857300Y243500D03*
G01X857300Y218100D03*
G01X857300Y192700D03*
G01X857300Y167300D03*
G01X857300Y141900D03*
G01X857300Y116500D03*
G01X857300Y91100D03*
G01X857300Y65700D03*
G01X882700Y548300D03*
G01X882700Y522900D03*
G01X882700Y497500D03*
G01X882700Y472100D03*
G01X882700Y446700D03*
G01X882700Y421300D03*
G01X882700Y395900D03*
G01X882700Y370500D03*
G01X882700Y345100D03*
G01X882700Y319700D03*
G01X882700Y294300D03*
G01X882700Y268900D03*
G01X882700Y243500D03*
G01X882700Y218100D03*
G01X882700Y192700D03*
G01X882700Y167300D03*
G01X882700Y141900D03*
G01X882700Y116500D03*
G01X882700Y91100D03*
G01X882700Y65700D03*
G01X762000Y150000D03*
G01X762000Y124600D03*
G01X762000Y99200D03*
G01X762000Y73800D03*
G01X762000Y48400D03*
G01X40000Y234300D03*
G01X40000Y259700D03*
G01X41000Y142300D03*
G01X41000Y167700D03*
G01X40000Y57300D03*
G01X40000Y82700D03*
G01X650000Y428000D03*
G01X624600Y428000D03*
G01X599200Y428000D03*
G01X573800Y428000D03*
G01X548400Y428000D03*
G01X523000Y428000D03*
G01X497600Y428000D03*
G01X472200Y428000D03*
G01X650000Y506700D03*
G01X624600Y506700D03*
G01X599200Y506700D03*
G01X573800Y506700D03*
G01X548400Y506700D03*
G01X523000Y506700D03*
G01X497600Y506700D03*
G01X472200Y506700D03*
G01X650000Y581000D03*
G01X624600Y581000D03*
G01X599200Y581000D03*
G01X573800Y581000D03*
G01X548400Y581000D03*
G01X523000Y581000D03*
G01X497600Y581000D03*
G01X472200Y581000D03*
G01X650000Y659700D03*
G01X624600Y659700D03*
G01X599200Y659700D03*
G01X573800Y659700D03*
G01X548400Y659700D03*
G01X523000Y659700D03*
G01X497600Y659700D03*
G01X472200Y659700D03*
G01X409000Y91000D03*
G01X409000Y65600D03*
G01X409000Y40200D03*
G01X490000Y91000D03*
G01X490000Y65600D03*
G01X490000Y40200D03*
G01X569000Y91000D03*
G01X569000Y65600D03*
G01X569000Y40200D03*
G01X896000Y679000D03*
G01X870600Y679000D03*
G01X845200Y679000D03*
G01X819800Y679000D03*
G01X794400Y679000D03*
G01X769000Y679000D03*
G01X901000Y601000D03*
G01X875600Y601000D03*
G01X850200Y601000D03*
G01X824800Y601000D03*
G01X799400Y601000D03*
G01X774000Y601000D03*
G01X62000Y681000D03*
G01X62000Y655600D03*
G01X62000Y630200D03*
G01X62000Y604800D03*
G01X62000Y579400D03*
G01X62000Y554000D03*
G01X62000Y528600D03*
G01X62000Y503200D03*
G01X62000Y477800D03*
G01X62000Y452400D03*
G01X62000Y427000D03*
G01X62000Y401600D03*
G01X62000Y376200D03*
G01X62000Y350800D03*
G01X140700Y681000D03*
G01X140700Y655600D03*
G01X140700Y630200D03*
G01X140700Y604800D03*
G01X140700Y579400D03*
G01X140700Y554000D03*
G01X140700Y528600D03*
G01X140700Y503200D03*
G01X140700Y477800D03*
G01X140700Y452400D03*
G01X140700Y427000D03*
G01X140700Y401600D03*
G01X140700Y376200D03*
G01X140700Y350800D03*
G01X206000Y477000D03*
G01X206000Y502400D03*
G01X206000Y527800D03*
G01X206000Y553200D03*
G01X206000Y578600D03*
G01X206000Y604000D03*
G01X206000Y629400D03*
G01X206000Y654800D03*
G01X206000Y680200D03*
G01X282500Y477000D03*
G01X282500Y502400D03*
G01X282500Y527800D03*
G01X282500Y553200D03*
G01X282500Y578600D03*
G01X282500Y604000D03*
G01X282500Y629400D03*
G01X282500Y654800D03*
G01X282500Y680200D03*
G01X71000Y275000D03*
G01X96400Y275000D03*
G01X121800Y275000D03*
G01X147200Y275000D03*
G01X172600Y275000D03*
G01X198000Y275000D03*
G01X223400Y275000D03*
G01X248800Y275000D03*
G01X274200Y275000D03*
G01X71000Y198500D03*
G01X96400Y198500D03*
G01X121800Y198500D03*
G01X147200Y198500D03*
G01X172600Y198500D03*
G01X198000Y198500D03*
G01X223400Y198500D03*
G01X248800Y198500D03*
G01X274200Y198500D03*
G01X648000Y91000D03*
G01X648000Y65600D03*
G01X648000Y40200D03*
G01X398000Y145000D03*
G01X398000Y170400D03*
G01X398000Y195800D03*
G01X398000Y221200D03*
G01X398000Y246600D03*
G01X398000Y272000D03*
G01X398000Y297400D03*
G01X398000Y322800D03*
G01X476740Y145000D03*
G01X476740Y170400D03*
G01X476740Y195800D03*
G01X476740Y221200D03*
G01X476740Y246600D03*
G01X476740Y272000D03*
G01X476700Y297400D03*
G01X476700Y322800D03*
G01X684500Y356500D03*
G01X659100Y356500D03*
G01X633700Y356500D03*
G01X608300Y356500D03*
G01X582900Y356500D03*
G01X557500Y356500D03*
G01X684500Y223500D03*
G01X659100Y223500D03*
G01X633700Y223500D03*
G01X608300Y223500D03*
G01X582900Y223500D03*
G01X557500Y223500D03*
G01X71000Y131000D03*
G01X96400Y131000D03*
G01X121800Y131000D03*
G01X147200Y131000D03*
G01X172600Y131000D03*
G01X198000Y131000D03*
G01X223400Y131000D03*
G01X248800Y131000D03*
G01X274200Y131000D03*
G01X71000Y54500D03*
G01X96400Y54500D03*
G01X121800Y54500D03*
G01X147200Y54500D03*
G01X172600Y54500D03*
G01X198000Y54500D03*
G01X223400Y54500D03*
G01X248800Y54500D03*
G01X274200Y54500D03*
G01X946000Y175000D03*
G01X946000Y149600D03*
G01X946000Y124200D03*
G01X946000Y98800D03*
G01X946000Y73400D03*
G01X408300Y690000D03*
G01X433700Y690000D03*
G01X362000Y323000D03*
G01X24500Y528500D03*
G01X383000Y690000D03*
G01X608500Y65500D03*
G01X24500Y503500D03*
G01X362000Y196000D03*
G01X24500Y554000D03*
G01X358000Y690000D03*
G01X362000Y221000D03*
G01X531500Y65500D03*
G01X362000Y297000D03*
G01X450500Y65500D03*
G01X369500Y65500D03*
G01X24500Y478500D03*
G01X362000Y272000D03*
G01X25000Y681000D03*
G01X332500Y690000D03*
G01X25000Y655500D03*
G01X362000Y246000D03*
G01X24500Y630000D03*
G01X24500Y605000D03*
G01X24500Y579500D03*
G01X362000Y171000D03*
G54D24*
G01X650000Y428000D02*
G01X704000Y428000D01*
G01X704000Y428000D02*
G01X724500Y448500D01*
G01X724500Y448500D02*
G01X722500Y448000D01*
G01X362000Y435000D02*
G01X362000Y323000D01*
G01X599200Y428000D02*
G01X599500Y428000D01*
G01X599500Y428000D02*
G01X625500Y402000D01*
G01X625500Y402000D02*
G01X766000Y402000D01*
G01X799400Y601000D02*
G01X799400Y595900D01*
G01X799400Y595900D02*
G01X769000Y565500D01*
G01X769000Y565500D02*
G01X769000Y506000D01*
G01X769000Y506000D02*
G01X765500Y506000D01*
G01X198000Y198500D02*
G01X223400Y198500D01*
G01X223400Y198500D02*
G01X248800Y198500D01*
G01X248800Y198500D02*
G01X274200Y198500D01*
G01X198000Y198500D02*
G01X198000Y200500D01*
G01X198000Y200500D02*
G01X142000Y256500D01*
G01X142000Y256500D02*
G01X43200Y256500D01*
G01X43200Y256500D02*
G01X40000Y259700D01*
G01X62000Y528600D02*
G01X24500Y528500D01*
G01X572500Y150500D02*
G01X629000Y188500D01*
G01X629000Y188500D02*
G01X777500Y188500D01*
G01X777500Y188500D02*
G01X836500Y247500D01*
G01X836500Y247500D02*
G01X836500Y489500D01*
G01X836500Y489500D02*
G01X844500Y497500D01*
G01X844500Y497500D02*
G01X857300Y497500D01*
G01X62000Y401600D02*
G01X43500Y383100D01*
G01X43500Y383100D02*
G01X43500Y307500D01*
G01X43500Y307500D02*
G01X48500Y302500D01*
G01X48500Y302500D02*
G01X48500Y297500D01*
G01X140700Y655600D02*
G01X205200Y655600D01*
G01X205200Y655600D02*
G01X206000Y654800D01*
G01X633700Y223500D02*
G01X679200Y269000D01*
G01X679200Y269000D02*
G01X800500Y269000D01*
G01X648000Y65600D02*
G01X608500Y65500D01*
G01X96400Y198500D02*
G01X121800Y198500D01*
G01X121800Y198500D02*
G01X147200Y198500D01*
G01X147200Y198500D02*
G01X172600Y198500D01*
G01X41000Y167700D02*
G01X41000Y202500D01*
G01X41000Y202500D02*
G01X55500Y217000D01*
G01X55500Y217000D02*
G01X79500Y217000D01*
G01X79500Y217000D02*
G01X96400Y200100D01*
G01X96400Y200100D02*
G01X96400Y198500D01*
G01X62000Y503200D02*
G01X24800Y503200D01*
G01X24800Y503200D02*
G01X24500Y503500D01*
G01X140700Y681000D02*
G01X205200Y681000D01*
G01X205200Y681000D02*
G01X206000Y680200D01*
G01X476740Y221200D02*
G01X533000Y277460D01*
G01X533000Y277460D02*
G01X533000Y361000D01*
G01X533000Y361000D02*
G01X548000Y376000D01*
G01X548000Y376000D02*
G01X591500Y376000D01*
G01X591500Y376000D02*
G01X608300Y359200D01*
G01X608300Y359200D02*
G01X608300Y356500D01*
G01X362000Y196000D02*
G01X339000Y196000D01*
G01X339000Y196000D02*
G01X314500Y171500D01*
G01X314500Y171500D02*
G01X314500Y61500D01*
G01X314500Y61500D02*
G01X284000Y31000D01*
G01X284000Y31000D02*
G01X94500Y31000D01*
G01X94500Y31000D02*
G01X71000Y54500D01*
G01X71000Y54500D02*
G01X42800Y54500D01*
G01X42800Y54500D02*
G01X40000Y57300D01*
G01X274200Y275000D02*
G01X248800Y275000D01*
G01X248800Y275000D02*
G01X223400Y275000D01*
G01X223400Y275000D02*
G01X198000Y275000D01*
G01X282500Y629400D02*
G01X287600Y629400D01*
G01X287600Y629400D02*
G01X325000Y592000D01*
G01X325000Y592000D02*
G01X325000Y591000D01*
G01X325000Y591000D02*
G01X326000Y590000D01*
G01X326000Y590000D02*
G01X327000Y590500D01*
G01X274200Y275000D02*
G01X274200Y292200D01*
G01X274200Y292200D02*
G01X327000Y345000D01*
G01X327000Y345000D02*
G01X323500Y345000D01*
G01X608300Y223500D02*
G01X608300Y227300D01*
G01X608300Y227300D02*
G01X678000Y297000D01*
G01X678000Y297000D02*
G01X800500Y297000D01*
G01X870600Y679000D02*
G01X870600Y650900D01*
G01X870600Y650900D02*
G01X890500Y631000D01*
G01X172600Y275000D02*
G01X172600Y282550D01*
G01X172600Y282550D02*
G01X229500Y343450D01*
G01X229500Y343450D02*
G01X229500Y349000D01*
G01X172600Y275000D02*
G01X147200Y275000D01*
G01X147200Y275000D02*
G01X121800Y275000D01*
G01X121800Y275000D02*
G01X96400Y275000D01*
G01X274200Y131000D02*
G01X248800Y131000D01*
G01X248800Y131000D02*
G01X223400Y131000D01*
G01X223400Y131000D02*
G01X198000Y131000D01*
G01X198000Y131000D02*
G01X172600Y131000D01*
G01X172600Y131000D02*
G01X147200Y131000D01*
G01X147200Y131000D02*
G01X121800Y131000D01*
G01X121800Y131000D02*
G01X96400Y131000D01*
G01X801500Y324500D02*
G01X678000Y324500D01*
G01X678000Y324500D02*
G01X582900Y229400D01*
G01X582900Y229400D02*
G01X582900Y223500D01*
G01X497600Y581000D02*
G01X497600Y577100D01*
G01X497600Y577100D02*
G01X481500Y561000D01*
G01X481500Y561000D02*
G01X467000Y561000D01*
G01X467000Y561000D02*
G01X454500Y573500D01*
G01X454500Y573500D02*
G01X454500Y616600D01*
G01X454500Y616600D02*
G01X497600Y659700D01*
G01X476740Y145000D02*
G01X472000Y145000D01*
G01X472000Y145000D02*
G01X442500Y174500D01*
G01X442500Y174500D02*
G01X442500Y242000D01*
G01X442500Y242000D02*
G01X472500Y272000D01*
G01X472500Y272000D02*
G01X476740Y272000D01*
G01X476740Y272000D02*
G01X482000Y272000D01*
G01X482000Y272000D02*
G01X498000Y288000D01*
G01X498000Y288000D02*
G01X498000Y351000D01*
G01X498000Y351000D02*
G01X480000Y369000D01*
G01X480000Y369000D02*
G01X466000Y369000D01*
G01X282500Y654800D02*
G01X300000Y654800D01*
G01X300000Y654800D02*
G01X408000Y546800D01*
G01X408000Y546800D02*
G01X408000Y539000D01*
G01X96400Y54500D02*
G01X96400Y60600D01*
G01X96400Y60600D02*
G01X74300Y82700D01*
G01X74300Y82700D02*
G01X40000Y82700D01*
G01X96400Y54500D02*
G01X121800Y54500D01*
G01X121800Y54500D02*
G01X147200Y54500D01*
G01X147200Y54500D02*
G01X172600Y54500D01*
G01X172600Y54500D02*
G01X198000Y54500D01*
G01X198000Y54500D02*
G01X223400Y54500D01*
G01X223400Y54500D02*
G01X248800Y54500D01*
G01X248800Y54500D02*
G01X274200Y54500D01*
G01X62000Y554000D02*
G01X24500Y554000D01*
G01X599200Y581000D02*
G01X599200Y583700D01*
G01X599200Y583700D02*
G01X622000Y606500D01*
G01X622000Y606500D02*
G01X636500Y606500D01*
G01X636500Y606500D02*
G01X660000Y630000D01*
G01X660000Y630000D02*
G01X750500Y630000D01*
G01X750500Y630000D02*
G01X794400Y673900D01*
G01X794400Y673900D02*
G01X794400Y679000D01*
G01X140700Y528600D02*
G01X205200Y528600D01*
G01X205200Y528600D02*
G01X206000Y527800D01*
G01X472200Y428000D02*
G01X527700Y483500D01*
G01X527700Y483500D02*
G01X643000Y483500D01*
G01X706500Y169000D02*
G01X830200Y169000D01*
G01X830200Y169000D02*
G01X857300Y141900D01*
G01X643000Y483500D02*
G01X650000Y490500D01*
G01X650000Y490500D02*
G01X650000Y506700D01*
G01X613000Y453500D02*
G01X643000Y483500D01*
G01X398000Y221200D02*
G01X362000Y221000D01*
G01X531500Y65500D02*
G01X569000Y65600D01*
G01X582900Y356500D02*
G01X582900Y301960D01*
G01X582900Y301960D02*
G01X476740Y195800D01*
G01X71000Y198500D02*
G01X95000Y174500D01*
G01X95000Y174500D02*
G01X278000Y174500D01*
G01X278000Y174500D02*
G01X293500Y190000D01*
G01X293500Y190000D02*
G01X293500Y251500D01*
G01X293500Y251500D02*
G01X339000Y297000D01*
G01X339000Y297000D02*
G01X362000Y297000D01*
G01X71000Y198500D02*
G01X71000Y172300D01*
G01X71000Y172300D02*
G01X41000Y142300D01*
G01X472200Y581000D02*
G01X517700Y626500D01*
G01X517700Y626500D02*
G01X626900Y626500D01*
G01X626900Y626500D02*
G01X650000Y649600D01*
G01X650000Y649600D02*
G01X650000Y659700D01*
G01X882700Y167300D02*
G01X885500Y167300D01*
G01X885500Y167300D02*
G01X938500Y220300D01*
G01X938500Y220300D02*
G01X938500Y677000D01*
G01X938500Y677000D02*
G01X941500Y680000D01*
G01X941500Y680000D02*
G01X941500Y684000D01*
G01X713000Y677500D02*
G01X667800Y677500D01*
G01X667800Y677500D02*
G01X650000Y659700D01*
G01X490000Y65600D02*
G01X450500Y65500D01*
G01X624600Y581000D02*
G01X624600Y575400D01*
G01X624600Y575400D02*
G01X642500Y557500D01*
G01X642500Y557500D02*
G01X721000Y557500D01*
G01X409000Y65600D02*
G01X369500Y65500D01*
G01X850200Y601000D02*
G01X850200Y599050D01*
G01X850200Y599050D02*
G01X874000Y574500D01*
G01X874000Y574500D02*
G01X885000Y574500D01*
G01X885000Y574500D02*
G01X906000Y553500D01*
G01X906000Y553500D02*
G01X906000Y517000D01*
G01X906000Y517000D02*
G01X886500Y497500D01*
G01X886500Y497500D02*
G01X882700Y497500D01*
G01X850200Y601000D02*
G01X850200Y674000D01*
G01X850200Y674000D02*
G01X845200Y679000D01*
G01X62000Y452400D02*
G01X82500Y452400D01*
G01X82500Y452400D02*
G01X133300Y401600D01*
G01X133300Y401600D02*
G01X140700Y401600D01*
G01X140700Y401600D02*
G01X140700Y376200D01*
G01X140700Y376200D02*
G01X140700Y350800D01*
G01X573800Y659700D02*
G01X543500Y690000D01*
G01X543500Y690000D02*
G01X433700Y690000D01*
G01X573800Y659700D02*
G01X611100Y697000D01*
G01X611100Y697000D02*
G01X827200Y697000D01*
G01X827200Y697000D02*
G01X845200Y679000D01*
G01X140700Y350800D02*
G01X140700Y344700D01*
G01X140700Y344700D02*
G01X71000Y275000D01*
G01X24500Y478500D02*
G01X31500Y478500D01*
G01X31500Y478500D02*
G01X57600Y452400D01*
G01X57600Y452400D02*
G01X62000Y452400D01*
G01X71000Y131000D02*
G01X71000Y125500D01*
G01X71000Y125500D02*
G01X96500Y100000D01*
G01X96500Y100000D02*
G01X278000Y100000D01*
G01X278000Y100000D02*
G01X303500Y125500D01*
G01X303500Y125500D02*
G01X303500Y219500D01*
G01X303500Y219500D02*
G01X356000Y272000D01*
G01X356000Y272000D02*
G01X362000Y272000D01*
G01X206000Y477000D02*
G01X208500Y477000D01*
G01X208500Y477000D02*
G01X230500Y499000D01*
G01X230500Y499000D02*
G01X230500Y667000D01*
G01X230500Y667000D02*
G01X271000Y707500D01*
G01X271000Y707500D02*
G01X416200Y707500D01*
G01X416200Y707500D02*
G01X433700Y690000D01*
G01X426500Y595000D02*
G01X426500Y596000D01*
G01X426500Y596000D02*
G01X430500Y600000D01*
G01X430500Y600000D02*
G01X430500Y690000D01*
G01X430500Y690000D02*
G01X433700Y690000D01*
G01X548400Y659700D02*
G01X573800Y659700D01*
G01X573800Y506700D02*
G01X548400Y506700D01*
G01X573800Y428000D02*
G01X548400Y428000D01*
G01X548400Y581000D02*
G01X573800Y581000D01*
G01X573800Y506700D02*
G01X573800Y581000D01*
G01X71000Y131000D02*
G01X55500Y115500D01*
G01X55500Y115500D02*
G01X34500Y115500D01*
G01X34500Y115500D02*
G01X19500Y130500D01*
G01X19500Y130500D02*
G01X19500Y267500D01*
G01X19500Y267500D02*
G01X29500Y277500D01*
G01X29500Y277500D02*
G01X64000Y277500D01*
G01X64000Y277500D02*
G01X66500Y275000D01*
G01X66500Y275000D02*
G01X71000Y275000D01*
G01X684500Y223500D02*
G01X790000Y223500D01*
G01X790000Y223500D02*
G01X822000Y255500D01*
G01X822000Y255500D02*
G01X822000Y533500D01*
G01X822000Y533500D02*
G01X836800Y548300D01*
G01X836800Y548300D02*
G01X857300Y548300D01*
G01X140700Y503200D02*
G01X205200Y503200D01*
G01X205200Y503200D02*
G01X206000Y502400D01*
G01X62000Y681000D02*
G01X25000Y681000D01*
G01X882700Y345100D02*
G01X917500Y379900D01*
G01X917500Y379900D02*
G01X917500Y559100D01*
G01X917500Y559100D02*
G01X875600Y601000D01*
G01X332500Y690000D02*
G01X302000Y690000D01*
G01X302000Y690000D02*
G01X282500Y683500D01*
G01X282500Y683500D02*
G01X282500Y680200D01*
G01X62000Y655600D02*
G01X25000Y655500D01*
G01X901000Y601000D02*
G01X928000Y574000D01*
G01X928000Y574000D02*
G01X928000Y337800D01*
G01X928000Y337800D02*
G01X884500Y294300D01*
G01X884500Y294300D02*
G01X882700Y294300D01*
G01X398000Y246600D02*
G01X362600Y246600D01*
G01X362600Y246600D02*
G01X362000Y246000D01*
G01X769000Y679000D02*
G01X769000Y677500D01*
G01X769000Y677500D02*
G01X736000Y644500D01*
G01X736000Y644500D02*
G01X659500Y644500D01*
G01X659500Y644500D02*
G01X631500Y616500D01*
G01X631500Y616500D02*
G01X551000Y616500D01*
G01X551000Y616500D02*
G01X523000Y588500D01*
G01X523000Y588500D02*
G01X523000Y581000D01*
G01X62000Y630200D02*
G01X24500Y630000D01*
G01X140700Y554000D02*
G01X205200Y554000D01*
G01X205200Y554000D02*
G01X206000Y553200D01*
G01X497600Y428000D02*
G01X497600Y416100D01*
G01X497600Y416100D02*
G01X487500Y406000D01*
G01X487500Y406000D02*
G01X467000Y406000D01*
G01X467000Y406000D02*
G01X450000Y423000D01*
G01X450000Y423000D02*
G01X450000Y457000D01*
G01X450000Y457000D02*
G01X497600Y504600D01*
G01X497600Y504600D02*
G01X497600Y506700D01*
G01X497600Y428000D02*
G01X497600Y420400D01*
G01X497600Y420400D02*
G01X509500Y408500D01*
G01X509500Y408500D02*
G01X599000Y408500D01*
G01X599000Y408500D02*
G01X624000Y383500D01*
G01X624000Y383500D02*
G01X779000Y383500D01*
G01X779000Y383500D02*
G01X793000Y397500D01*
G01X793000Y397500D02*
G01X793000Y421500D01*
G01X24500Y605000D02*
G01X62000Y604800D01*
G01X140700Y579400D02*
G01X205200Y579400D01*
G01X205200Y579400D02*
G01X206000Y578600D01*
G01X762000Y124600D02*
G01X695900Y124600D01*
G01X695900Y124600D02*
G01X695000Y125500D01*
G01X379500Y526000D02*
G01X284300Y526000D01*
G01X284300Y526000D02*
G01X282500Y527800D01*
G01X624600Y428000D02*
G01X671500Y474900D01*
G01X671500Y474900D02*
G01X783500Y475000D01*
G01X624600Y506700D02*
G01X624600Y512500D01*
G01X624600Y512500D02*
G01X638600Y526500D01*
G01X638600Y526500D02*
G01X659500Y526500D01*
G01X659500Y526500D02*
G01X670000Y516000D01*
G01X670000Y516000D02*
G01X669925Y474900D01*
G01X669925Y474900D02*
G01X671500Y474900D01*
G01X62000Y579400D02*
G01X24500Y579500D01*
G01X140700Y604800D02*
G01X205200Y604800D01*
G01X205200Y604800D02*
G01X206000Y604000D01*
G01X523000Y428000D02*
G01X523000Y432500D01*
G01X523000Y432500D02*
G01X548000Y466000D01*
G01X687500Y513000D02*
G01X738000Y513000D01*
G01X738000Y513000D02*
G01X754500Y529500D01*
G01X754500Y529500D02*
G01X754500Y581500D01*
G01X754500Y581500D02*
G01X774000Y601000D01*
G01X282500Y502400D02*
G01X343400Y502400D01*
G01X343400Y502400D02*
G01X344000Y503000D01*
G01X344000Y135500D02*
G01X344000Y125000D01*
G01X344000Y125000D02*
G01X378000Y91000D01*
G01X378000Y91000D02*
G01X409000Y91000D01*
G01X409000Y91000D02*
G01X490000Y91000D01*
G01X490000Y91000D02*
G01X569000Y91000D01*
G01X569000Y91000D02*
G01X648000Y91000D01*
G01X725000Y72000D02*
G01X706000Y91000D01*
G01X706000Y91000D02*
G01X648000Y91000D01*
G01X140700Y630200D02*
G01X205200Y630200D01*
G01X205200Y630200D02*
G01X206000Y629400D01*
G01X476740Y246600D02*
G01X480500Y246600D01*
G01X480500Y246600D02*
G01X513500Y279600D01*
G01X513500Y279600D02*
G01X513500Y367000D01*
G01X513500Y367000D02*
G01X535000Y388500D01*
G01X535000Y388500D02*
G01X601700Y388500D01*
G01X601700Y388500D02*
G01X633700Y356500D01*
G01X824800Y601000D02*
G01X822500Y603300D01*
G01X822500Y603300D02*
G01X822500Y679000D01*
G01X822500Y679000D02*
G01X819800Y679000D01*
G01X62000Y477800D02*
G01X85000Y477800D01*
G01X85000Y477800D02*
G01X135800Y427000D01*
G01X135800Y427000D02*
G01X140700Y427000D01*
G01X476700Y297400D02*
G01X476700Y322800D01*
G01X472200Y506700D02*
G01X425700Y506700D01*
G01X140700Y427000D02*
G01X232500Y427000D01*
G01X232500Y427000D02*
G01X282500Y477000D01*
G01X476700Y322800D02*
G01X432000Y367500D01*
G01X432000Y367500D02*
G01X432000Y465500D01*
G01X432000Y465500D02*
G01X472200Y505700D01*
G01X472200Y505700D02*
G01X472200Y506700D01*
G01X409000Y40200D02*
G01X490000Y40200D01*
G01X490000Y40200D02*
G01X569000Y40200D01*
G01X569000Y40200D02*
G01X648000Y40200D01*
G01X511000Y127500D02*
G01X621000Y127500D01*
G01X621000Y127500D02*
G01X643500Y150000D01*
G01X643500Y150000D02*
G01X762000Y150000D01*
G01X476700Y297400D02*
G01X472500Y297400D01*
G01X472500Y297400D02*
G01X431500Y256400D01*
G01X431500Y256400D02*
G01X431500Y158500D01*
G01X431500Y158500D02*
G01X462500Y127500D01*
G01X462500Y127500D02*
G01X511000Y127500D01*
G01X684500Y356500D02*
G01X575000Y247000D01*
G01X575000Y247000D02*
G01X551000Y247000D01*
G01X551000Y247000D02*
G01X536000Y232000D01*
G01X536000Y232000D02*
G01X536000Y152500D01*
G01X536000Y152500D02*
G01X511000Y127500D01*
G01X409000Y40200D02*
G01X365000Y40200D01*
G01X365000Y40200D02*
G01X324500Y80700D01*
G01X324500Y80700D02*
G01X324500Y151000D01*
G01X324500Y151000D02*
G01X344500Y171000D01*
G01X344500Y171000D02*
G01X362000Y171000D01*
G01X472200Y506700D02*
G01X464300Y506700D01*
G01X464300Y506700D02*
G01X444500Y526500D01*
G01X444500Y526500D02*
G01X444500Y632000D01*
G01X444500Y632000D02*
G01X472200Y659700D01*
G01X425700Y506700D02*
G01X425700Y559000D01*
G01X425700Y559000D02*
G01X408300Y576400D01*
G01X408300Y576400D02*
G01X408300Y690000D01*
G01X425700Y506700D02*
G01X396000Y477000D01*
G01X396000Y477000D02*
G01X282500Y477000D01*
G01X946000Y175000D02*
G01X951500Y180500D01*
G01X951500Y180500D02*
G01X951500Y605000D01*
G01X951500Y605000D02*
G01X956000Y605000D01*
G01X828500Y42500D02*
G01X955000Y42500D01*
G01X955000Y42500D02*
G01X972500Y60000D01*
G01X972500Y60000D02*
G01X972500Y152000D01*
G01X972500Y152000D02*
G01X949500Y175000D01*
G01X949500Y175000D02*
G01X946000Y175000D01*
G01X762000Y150000D02*
G01X828500Y83500D01*
G01X828500Y83500D02*
G01X828500Y42500D01*
G01X648000Y40200D02*
G01X653500Y40200D01*
G01X653500Y40200D02*
G01X663200Y30500D01*
G01X663200Y30500D02*
G01X816500Y30500D01*
G01X816500Y30500D02*
G01X828500Y42500D01*
G54D25*
G01X722500Y448000D03*
G01X362000Y435000D03*
G01X766000Y402000D03*
G01X765500Y506000D03*
G01X572500Y150500D03*
G01X48500Y297500D03*
G01X800500Y269000D03*
G01X327000Y590500D03*
G01X323500Y345000D03*
G01X800500Y297000D03*
G01X890500Y631000D03*
G01X229500Y349000D03*
G01X801500Y324500D03*
G01X466000Y369000D03*
G01X408000Y539000D03*
G01X706500Y169000D03*
G01X613000Y453500D03*
G01X713000Y677500D03*
G01X941500Y684000D03*
G01X721000Y557500D03*
G01X426500Y595000D03*
G01X793000Y421500D03*
G01X695000Y125500D03*
G01X379500Y526000D03*
G01X783500Y475000D03*
G01X548000Y466000D03*
G01X687500Y513000D03*
G01X344000Y503000D03*
G01X344000Y135500D03*
G01X725000Y72000D03*
G01X956000Y605000D03*
G36*
G01X813000Y662603D02*
G01X813000Y614509D01*
G01X812100Y613990D01*
G01X804115Y618599D01*
G01X794684Y618599D01*
G01X786700Y613990D01*
G01X778715Y618599D01*
G01X769284Y618599D01*
G01X761116Y613883D01*
G01X756400Y605715D01*
G01X756400Y597014D01*
G01X748241Y588856D01*
G01X747545Y588454D01*
G01X745000Y584045D01*
G01X745000Y578954D01*
G01X745000Y533614D01*
G01X733885Y522500D01*
G01X704500Y522500D01*
G01X704500Y530000D01*
G01X670500Y530000D01*
G01X670500Y529114D01*
G01X666856Y532758D01*
G01X666454Y533454D01*
G01X662045Y536000D01*
G01X636054Y536000D01*
G01X631645Y533454D01*
G01X631243Y532758D01*
G01X622785Y524299D01*
G01X619884Y524299D01*
G01X611900Y519690D01*
G01X603915Y524299D01*
G01X594484Y524299D01*
G01X586316Y519583D01*
G01X581600Y511415D01*
G01X581600Y501984D01*
G01X586316Y493816D01*
G01X587729Y493000D01*
G01X582729Y493000D01*
G01X577729Y493000D01*
G01X572729Y493000D01*
G01X567729Y493000D01*
G01X562729Y493000D01*
G01X557729Y493000D01*
G01X552729Y493000D01*
G01X547729Y493000D01*
G01X542729Y493000D01*
G01X537729Y493000D01*
G01X534470Y493000D01*
G01X535883Y493816D01*
G01X540599Y501984D01*
G01X540599Y511415D01*
G01X535883Y519583D01*
G01X527715Y524299D01*
G01X518284Y524299D01*
G01X510300Y519690D01*
G01X502315Y524299D01*
G01X492884Y524299D01*
G01X484900Y519690D01*
G01X476915Y524299D01*
G01X467484Y524299D01*
G01X462939Y521675D01*
G01X454000Y530614D01*
G01X454000Y560385D01*
G01X459643Y554741D01*
G01X460045Y554045D01*
G01X464454Y551500D01*
G01X484045Y551500D01*
G01X488454Y554045D01*
G01X488856Y554741D01*
G01X497514Y563400D01*
G01X502315Y563400D01*
G01X510300Y568009D01*
G01X518284Y563400D01*
G01X527715Y563400D01*
G01X535883Y568116D01*
G01X540599Y576284D01*
G01X540599Y585715D01*
G01X538121Y590007D01*
G01X555114Y607000D01*
G01X560114Y607000D01*
G01X565114Y607000D01*
G01X570114Y607000D01*
G01X575114Y607000D01*
G01X580114Y607000D01*
G01X585114Y607000D01*
G01X590114Y607000D01*
G01X595114Y607000D01*
G01X600114Y607000D01*
G01X605114Y607000D01*
G01X608885Y607000D01*
G01X600485Y598599D01*
G01X594484Y598599D01*
G01X586316Y593883D01*
G01X581600Y585715D01*
G01X581600Y576284D01*
G01X586316Y568116D01*
G01X594484Y563400D01*
G01X603915Y563400D01*
G01X611900Y568009D01*
G01X619884Y563400D01*
G01X622985Y563400D01*
G01X635143Y551241D01*
G01X635545Y550545D01*
G01X639954Y548000D01*
G01X644954Y548000D01*
G01X649954Y548000D01*
G01X654954Y548000D01*
G01X659954Y548000D01*
G01X664954Y548000D01*
G01X669954Y548000D01*
G01X674954Y548000D01*
G01X679954Y548000D01*
G01X684954Y548000D01*
G01X689954Y548000D01*
G01X694954Y548000D01*
G01X699954Y548000D01*
G01X704000Y548000D01*
G01X704000Y540500D01*
G01X738000Y540500D01*
G01X738000Y557500D01*
G01X738000Y574500D01*
G01X704000Y574500D01*
G01X704000Y567000D01*
G01X660950Y567000D01*
G01X662883Y568116D01*
G01X667599Y576284D01*
G01X667599Y585715D01*
G01X662883Y593883D01*
G01X654715Y598599D01*
G01X645284Y598599D01*
G01X644796Y598318D01*
G01X643490Y599607D01*
G01X643856Y600241D01*
G01X664114Y620500D01*
G01X669114Y620500D01*
G01X674114Y620500D01*
G01X679114Y620500D01*
G01X684114Y620500D01*
G01X689114Y620500D01*
G01X694114Y620500D01*
G01X699114Y620500D01*
G01X704114Y620500D01*
G01X709114Y620500D01*
G01X714114Y620500D01*
G01X719114Y620500D01*
G01X724114Y620500D01*
G01X729114Y620500D01*
G01X734114Y620500D01*
G01X739114Y620500D01*
G01X744114Y620500D01*
G01X749114Y620500D01*
G01X753045Y620500D01*
G01X757454Y623045D01*
G01X757856Y623741D01*
G01X795514Y661400D01*
G01X799115Y661400D01*
G01X807100Y666009D01*
G01X813000Y662603D01*
G01X813000Y662603D01*
G01X319616Y677116D02*
G01X327784Y672400D01*
G01X337215Y672400D01*
G01X345250Y677038D01*
G01X353284Y672400D01*
G01X362715Y672400D01*
G01X370500Y676894D01*
G01X378284Y672400D01*
G01X387715Y672400D01*
G01X395650Y676981D01*
G01X398800Y675162D01*
G01X398800Y670162D01*
G01X398800Y665162D01*
G01X398800Y660162D01*
G01X398800Y655162D01*
G01X398800Y650162D01*
G01X398800Y645162D01*
G01X398800Y640162D01*
G01X398800Y635162D01*
G01X398800Y630162D01*
G01X398800Y625162D01*
G01X398800Y620162D01*
G01X398800Y615162D01*
G01X398800Y610162D01*
G01X398800Y605162D01*
G01X398800Y600162D01*
G01X398800Y595162D01*
G01X398800Y590162D01*
G01X398800Y585162D01*
G01X398800Y580162D01*
G01X398800Y578945D01*
G01X398800Y576400D01*
G01X398800Y573854D01*
G01X401345Y569445D01*
G01X402041Y569043D01*
G01X412248Y558836D01*
G01X411551Y556862D01*
G01X359454Y608960D01*
G01X307356Y661058D01*
G01X306954Y661754D01*
G01X302545Y664300D01*
G01X297337Y664300D01*
G01X295490Y667500D01*
G01X300099Y675484D01*
G01X300099Y679218D01*
G01X303943Y680500D01*
G01X317662Y680500D01*
G01X319616Y677116D01*
G01X319616Y677116D01*
G01X310000Y593385D02*
G01X310000Y590500D01*
G01X310000Y573500D01*
G01X344000Y573500D01*
G01X344000Y590500D01*
G01X344000Y597185D01*
G01X367500Y573685D01*
G01X391000Y550185D01*
G01X391000Y543000D01*
G01X362500Y543000D01*
G01X362500Y535500D01*
G01X357500Y535500D01*
G01X352500Y535500D01*
G01X347500Y535500D01*
G01X342500Y535500D01*
G01X337500Y535500D01*
G01X332500Y535500D01*
G01X327500Y535500D01*
G01X322500Y535500D01*
G01X317500Y535500D01*
G01X312500Y535500D01*
G01X307500Y535500D01*
G01X302500Y535500D01*
G01X298376Y535500D01*
G01X295490Y540500D01*
G01X300099Y548484D01*
G01X300099Y557915D01*
G01X295490Y565900D01*
G01X300099Y573884D01*
G01X300099Y583315D01*
G01X295490Y591300D01*
G01X300099Y599284D01*
G01X300099Y603285D01*
G01X310000Y593385D01*
G01X310000Y593385D01*
G01X416200Y510814D02*
G01X391885Y486500D01*
G01X361000Y486500D01*
G01X361000Y503000D01*
G01X361000Y516500D01*
G01X362500Y516500D01*
G01X362500Y509000D01*
G01X396500Y509000D01*
G01X396500Y522000D01*
G01X416200Y522000D01*
G01X416200Y510814D01*
G01X416200Y510814D01*
G01X748500Y504599D02*
G01X748500Y489000D01*
G01X765506Y489000D01*
G01X765510Y484610D01*
G01X679569Y484534D01*
G01X679590Y496000D01*
G01X704500Y496000D01*
G01X704500Y503500D01*
G01X740545Y503500D01*
G01X744954Y506045D01*
G01X745356Y506741D01*
G01X745563Y506949D01*
G01X748500Y504599D01*
G01X748500Y504599D01*
G01X518284Y489100D02*
G01X519685Y489100D01*
G01X476185Y445599D01*
G01X467484Y445599D01*
G01X459500Y440990D01*
G01X459500Y452885D01*
G01X495714Y489100D01*
G01X502315Y489100D01*
G01X510300Y493709D01*
G01X518284Y489100D01*
G01X518284Y489100D01*
G01X712490Y465000D02*
G01X705500Y465000D01*
G01X705500Y448000D01*
G01X705500Y443114D01*
G01X699885Y437500D01*
G01X664837Y437500D01*
G01X662883Y440883D01*
G01X655412Y445197D01*
G01X675491Y465276D01*
G01X712490Y465309D01*
G01X712490Y465000D01*
G01X712490Y465000D01*
G01X616385Y470500D02*
G01X596000Y470500D01*
G01X596000Y453500D01*
G01X596000Y445599D01*
G01X594484Y445599D01*
G01X586316Y440883D01*
G01X581600Y432715D01*
G01X581600Y423284D01*
G01X584651Y418000D01*
G01X537548Y418000D01*
G01X540599Y423284D01*
G01X540599Y432715D01*
G01X538232Y436815D01*
G01X547325Y449000D01*
G01X565000Y449000D01*
G01X565000Y466000D01*
G01X565000Y474000D01*
G01X570000Y474000D01*
G01X575000Y474000D01*
G01X580000Y474000D01*
G01X585000Y474000D01*
G01X590000Y474000D01*
G01X595000Y474000D01*
G01X600000Y474000D01*
G01X605000Y474000D01*
G01X610000Y474000D01*
G01X615000Y474000D01*
G01X619885Y474000D01*
G01X616385Y470500D01*
G01X616385Y470500D01*
G01X908000Y554985D02*
G01X908000Y549985D01*
G01X908000Y544985D01*
G01X908000Y539985D01*
G01X908000Y534985D01*
G01X908000Y529985D01*
G01X908000Y524985D01*
G01X908000Y519985D01*
G01X908000Y514985D01*
G01X908000Y509985D01*
G01X908000Y504985D01*
G01X908000Y499985D01*
G01X908000Y494985D01*
G01X908000Y489985D01*
G01X908000Y484985D01*
G01X908000Y479985D01*
G01X908000Y474985D01*
G01X908000Y469985D01*
G01X908000Y464985D01*
G01X908000Y459985D01*
G01X908000Y454985D01*
G01X908000Y449985D01*
G01X908000Y444985D01*
G01X908000Y439985D01*
G01X908000Y434985D01*
G01X908000Y429985D01*
G01X908000Y424985D01*
G01X908000Y419985D01*
G01X908000Y414985D01*
G01X908000Y409985D01*
G01X908000Y404985D01*
G01X908000Y399985D01*
G01X908000Y394985D01*
G01X908000Y389985D01*
G01X908000Y384985D01*
G01X908000Y384014D01*
G01X899897Y375912D01*
G01X895690Y383200D01*
G01X900299Y391184D01*
G01X900299Y400615D01*
G01X895690Y408600D01*
G01X900299Y416584D01*
G01X900299Y426015D01*
G01X895690Y434000D01*
G01X900299Y441984D01*
G01X900299Y451415D01*
G01X895690Y459400D01*
G01X900299Y467384D01*
G01X900299Y476815D01*
G01X895583Y484983D01*
G01X887415Y489699D01*
G01X879615Y497499D01*
G01X887415Y505300D01*
G01X895583Y510016D01*
G01X900299Y518184D01*
G01X900299Y527615D01*
G01X895690Y535600D01*
G01X900299Y543584D01*
G01X900299Y553015D01*
G01X897332Y558154D01*
G01X901081Y561903D01*
G01X908000Y554985D01*
G01X908000Y554985D01*
G01X443045Y416045D02*
G01X443741Y415643D01*
G01X459643Y399741D01*
G01X460045Y399045D01*
G01X464454Y396500D01*
G01X490045Y396500D01*
G01X494454Y399045D01*
G01X494856Y399741D01*
G01X499749Y404635D01*
G01X502143Y402241D01*
G01X502545Y401545D01*
G01X506954Y399000D01*
G01X530050Y399000D01*
G01X530050Y396611D01*
G01X528045Y395454D01*
G01X527643Y394758D01*
G01X507241Y374356D01*
G01X506545Y373954D01*
G01X504000Y369545D01*
G01X504000Y364454D01*
G01X504000Y358614D01*
G01X487356Y375258D01*
G01X486954Y375954D01*
G01X483000Y378237D01*
G01X483000Y386000D01*
G01X449000Y386000D01*
G01X449000Y369000D01*
G01X449000Y364114D01*
G01X441500Y371614D01*
G01X441500Y418722D01*
G01X443045Y416045D01*
G01X443045Y416045D01*
G01X672374Y369821D02*
G01X671616Y369383D01*
G01X666900Y361215D01*
G01X666900Y352514D01*
G01X570885Y256500D01*
G01X551054Y256500D01*
G01X589158Y294603D01*
G01X589854Y295005D01*
G01X592400Y299414D01*
G01X592400Y301960D01*
G01X592400Y341662D01*
G01X595600Y343509D01*
G01X603584Y338900D01*
G01X613015Y338900D01*
G01X621000Y343509D01*
G01X628984Y338900D01*
G01X638415Y338900D01*
G01X646583Y343616D01*
G01X651299Y351784D01*
G01X651299Y361215D01*
G01X646583Y369383D01*
G01X645825Y369821D01*
G01X645825Y374000D01*
G01X672374Y374000D01*
G01X672374Y369821D01*
G01X672374Y369821D01*
G01X812500Y341500D02*
G01X784500Y341500D01*
G01X784500Y334000D01*
G01X779500Y334000D01*
G01X774500Y334000D01*
G01X769500Y334000D01*
G01X764500Y334000D01*
G01X759500Y334000D01*
G01X754500Y334000D01*
G01X749500Y334000D01*
G01X744500Y334000D01*
G01X739500Y334000D01*
G01X734500Y334000D01*
G01X729500Y334000D01*
G01X724500Y334000D01*
G01X719500Y334000D01*
G01X714500Y334000D01*
G01X709500Y334000D01*
G01X704500Y334000D01*
G01X699500Y334000D01*
G01X694500Y334000D01*
G01X689500Y334000D01*
G01X688938Y334000D01*
G01X688938Y338900D01*
G01X689215Y338900D01*
G01X697383Y343616D01*
G01X702099Y351784D01*
G01X702099Y361215D01*
G01X697383Y369383D01*
G01X696625Y369821D01*
G01X696625Y374000D01*
G01X701625Y374000D01*
G01X706625Y374000D01*
G01X711625Y374000D01*
G01X716625Y374000D01*
G01X721625Y374000D01*
G01X726625Y374000D01*
G01X731625Y374000D01*
G01X736625Y374000D01*
G01X741625Y374000D01*
G01X746625Y374000D01*
G01X751625Y374000D01*
G01X756625Y374000D01*
G01X761625Y374000D01*
G01X766625Y374000D01*
G01X771625Y374000D01*
G01X776625Y374000D01*
G01X781545Y374000D01*
G01X785954Y376545D01*
G01X786356Y377241D01*
G01X799258Y390143D01*
G01X799954Y390545D01*
G01X802500Y394954D01*
G01X802500Y397500D01*
G01X802500Y404500D01*
G01X810000Y404500D01*
G01X810000Y411500D01*
G01X812500Y411500D01*
G01X812500Y406500D01*
G01X812500Y401500D01*
G01X812500Y396500D01*
G01X812500Y391500D01*
G01X812500Y386500D01*
G01X812500Y381500D01*
G01X812500Y376500D01*
G01X812500Y371500D01*
G01X812500Y366500D01*
G01X812500Y361500D01*
G01X812500Y356500D01*
G01X812500Y351500D01*
G01X812500Y346500D01*
G01X812500Y341500D01*
G01X812500Y341500D01*
G01X784500Y314000D02*
G01X783500Y314000D01*
G01X783500Y306500D01*
G01X778500Y306500D01*
G01X773500Y306500D01*
G01X768500Y306500D01*
G01X763500Y306500D01*
G01X758500Y306500D01*
G01X753500Y306500D01*
G01X748500Y306500D01*
G01X743500Y306500D01*
G01X738500Y306500D01*
G01X733500Y306500D01*
G01X728500Y306500D01*
G01X723500Y306500D01*
G01X718500Y306500D01*
G01X713500Y306500D01*
G01X708500Y306500D01*
G01X703500Y306500D01*
G01X698500Y306500D01*
G01X693500Y306500D01*
G01X688500Y306500D01*
G01X683500Y306500D01*
G01X678500Y306500D01*
G01X675454Y306500D01*
G01X671101Y303986D01*
G01X682114Y315000D01*
G01X687114Y315000D01*
G01X692114Y315000D01*
G01X697114Y315000D01*
G01X702114Y315000D01*
G01X707114Y315000D01*
G01X712114Y315000D01*
G01X717114Y315000D01*
G01X722114Y315000D01*
G01X727114Y315000D01*
G01X732114Y315000D01*
G01X737114Y315000D01*
G01X742114Y315000D01*
G01X747114Y315000D01*
G01X752114Y315000D01*
G01X757114Y315000D01*
G01X762114Y315000D01*
G01X767114Y315000D01*
G01X772114Y315000D01*
G01X777114Y315000D01*
G01X782114Y315000D01*
G01X784500Y315000D01*
G01X784500Y314000D01*
G01X784500Y314000D01*
G01X544616Y343616D02*
G01X552784Y338900D01*
G01X562215Y338900D01*
G01X570200Y343509D01*
G01X573400Y341662D01*
G01X573400Y306074D01*
G01X542500Y275174D01*
G01X542500Y277460D01*
G01X542500Y282460D01*
G01X542500Y287460D01*
G01X542500Y292460D01*
G01X542500Y297460D01*
G01X542500Y302460D01*
G01X542500Y307460D01*
G01X542500Y312460D01*
G01X542500Y317460D01*
G01X542500Y322460D01*
G01X542500Y327460D01*
G01X542500Y332460D01*
G01X542500Y337460D01*
G01X542500Y342460D01*
G01X542500Y347281D01*
G01X544616Y343616D01*
G01X544616Y343616D01*
G01X193284Y257400D02*
G01X202715Y257400D01*
G01X210700Y262009D01*
G01X218684Y257400D01*
G01X228115Y257400D01*
G01X236100Y262009D01*
G01X244084Y257400D01*
G01X253515Y257400D01*
G01X261500Y262009D01*
G01X269484Y257400D01*
G01X278915Y257400D01*
G01X279783Y257901D01*
G01X284858Y255532D01*
G01X284000Y254045D01*
G01X284000Y248954D01*
G01X284000Y213164D01*
G01X278915Y216099D01*
G01X269484Y216099D01*
G01X261500Y211490D01*
G01X253515Y216099D01*
G01X244084Y216099D01*
G01X236100Y211490D01*
G01X228115Y216099D01*
G01X218684Y216099D01*
G01X210700Y211490D01*
G01X202715Y216099D01*
G01X196014Y216099D01*
G01X174852Y237262D01*
G01X153689Y258424D01*
G01X159900Y262009D01*
G01X167884Y257400D01*
G01X177315Y257400D01*
G01X185300Y262009D01*
G01X193284Y257400D01*
G01X193284Y257400D01*
G01X783500Y280000D02*
G01X783500Y278500D01*
G01X778500Y278500D01*
G01X773500Y278500D01*
G01X768500Y278500D01*
G01X763500Y278500D01*
G01X758500Y278500D01*
G01X753500Y278500D01*
G01X748500Y278500D01*
G01X743500Y278500D01*
G01X738500Y278500D01*
G01X733500Y278500D01*
G01X728500Y278500D01*
G01X723500Y278500D01*
G01X718500Y278500D01*
G01X713500Y278500D01*
G01X708500Y278500D01*
G01X703500Y278500D01*
G01X698500Y278500D01*
G01X693500Y278500D01*
G01X688500Y278500D01*
G01X683500Y278500D01*
G01X678500Y278500D01*
G01X676654Y278500D01*
G01X672245Y275954D01*
G01X671843Y275258D01*
G01X637685Y241099D01*
G01X635714Y241099D01*
G01X682114Y287500D01*
G01X687114Y287500D01*
G01X692114Y287500D01*
G01X697114Y287500D01*
G01X702114Y287500D01*
G01X707114Y287500D01*
G01X712114Y287500D01*
G01X717114Y287500D01*
G01X722114Y287500D01*
G01X727114Y287500D01*
G01X732114Y287500D01*
G01X737114Y287500D01*
G01X742114Y287500D01*
G01X747114Y287500D01*
G01X752114Y287500D01*
G01X757114Y287500D01*
G01X762114Y287500D01*
G01X767114Y287500D01*
G01X772114Y287500D01*
G01X777114Y287500D01*
G01X782114Y287500D01*
G01X783500Y287500D01*
G01X783500Y280000D01*
G01X783500Y280000D01*
G01X783500Y252000D02*
G01X804885Y252000D01*
G01X785885Y233000D01*
G01X780885Y233000D01*
G01X775885Y233000D01*
G01X770885Y233000D01*
G01X765885Y233000D01*
G01X760885Y233000D01*
G01X755885Y233000D01*
G01X750885Y233000D01*
G01X745885Y233000D01*
G01X740885Y233000D01*
G01X735885Y233000D01*
G01X730885Y233000D01*
G01X725885Y233000D01*
G01X720885Y233000D01*
G01X715885Y233000D01*
G01X710885Y233000D01*
G01X705885Y233000D01*
G01X700885Y233000D01*
G01X699337Y233000D01*
G01X697383Y236383D01*
G01X689215Y241099D01*
G01X679784Y241099D01*
G01X671616Y236383D01*
G01X666900Y228215D01*
G01X666900Y218784D01*
G01X671616Y210616D01*
G01X679784Y205900D01*
G01X689215Y205900D01*
G01X697383Y210616D01*
G01X699337Y214000D01*
G01X704337Y214000D01*
G01X709337Y214000D01*
G01X714337Y214000D01*
G01X719337Y214000D01*
G01X724337Y214000D01*
G01X729337Y214000D01*
G01X734337Y214000D01*
G01X739337Y214000D01*
G01X744337Y214000D01*
G01X749337Y214000D01*
G01X754337Y214000D01*
G01X759337Y214000D01*
G01X764337Y214000D01*
G01X769337Y214000D01*
G01X774337Y214000D01*
G01X779337Y214000D01*
G01X784337Y214000D01*
G01X785500Y214000D01*
G01X787442Y212057D01*
G01X773385Y198000D01*
G01X768385Y198000D01*
G01X763385Y198000D01*
G01X758385Y198000D01*
G01X753385Y198000D01*
G01X748385Y198000D01*
G01X743385Y198000D01*
G01X738385Y198000D01*
G01X733385Y198000D01*
G01X728385Y198000D01*
G01X723385Y198000D01*
G01X718385Y198000D01*
G01X713385Y198000D01*
G01X708385Y198000D01*
G01X703385Y198000D01*
G01X698385Y198000D01*
G01X693385Y198000D01*
G01X688385Y198000D01*
G01X683385Y198000D01*
G01X678385Y198000D01*
G01X673385Y198000D01*
G01X668385Y198000D01*
G01X663385Y198000D01*
G01X658385Y198000D01*
G01X653385Y198000D01*
G01X648385Y198000D01*
G01X643385Y198000D01*
G01X638385Y198000D01*
G01X633385Y198000D01*
G01X628385Y198000D01*
G01X626454Y198000D01*
G01X623685Y196401D01*
G01X623627Y196488D01*
G01X622360Y195636D01*
G01X622045Y195454D01*
G01X622017Y195405D01*
G01X580526Y167500D01*
G01X555500Y167500D01*
G01X555500Y150500D01*
G01X555500Y137000D01*
G01X534114Y137000D01*
G01X542258Y145143D01*
G01X542954Y145545D01*
G01X545500Y149954D01*
G01X545500Y152500D01*
G01X545500Y157500D01*
G01X545500Y162500D01*
G01X545500Y167500D01*
G01X545500Y172500D01*
G01X545500Y177500D01*
G01X545500Y182500D01*
G01X545500Y187500D01*
G01X545500Y192500D01*
G01X545500Y197500D01*
G01X545500Y202500D01*
G01X545500Y207500D01*
G01X545500Y210105D01*
G01X552784Y205900D01*
G01X562215Y205900D01*
G01X570200Y210509D01*
G01X578184Y205900D01*
G01X587615Y205900D01*
G01X595600Y210509D01*
G01X603584Y205900D01*
G01X613015Y205900D01*
G01X621000Y210509D01*
G01X628984Y205900D01*
G01X638415Y205900D01*
G01X646583Y210616D01*
G01X651299Y218784D01*
G01X651299Y227485D01*
G01X683314Y259500D01*
G01X688314Y259500D01*
G01X693314Y259500D01*
G01X698314Y259500D01*
G01X703314Y259500D01*
G01X708314Y259500D01*
G01X713314Y259500D01*
G01X718314Y259500D01*
G01X723314Y259500D01*
G01X728314Y259500D01*
G01X733314Y259500D01*
G01X738314Y259500D01*
G01X743314Y259500D01*
G01X748314Y259500D01*
G01X753314Y259500D01*
G01X758314Y259500D01*
G01X763314Y259500D01*
G01X768314Y259500D01*
G01X773314Y259500D01*
G01X778314Y259500D01*
G01X783314Y259500D01*
G01X783500Y259500D01*
G01X783500Y252000D01*
G01X783500Y252000D01*
G01X168785Y216099D02*
G01X167884Y216099D01*
G01X159900Y211490D01*
G01X151915Y216099D01*
G01X142484Y216099D01*
G01X134500Y211490D01*
G01X126515Y216099D01*
G01X117084Y216099D01*
G01X109100Y211490D01*
G01X101115Y216099D01*
G01X94014Y216099D01*
G01X86856Y223258D01*
G01X86454Y223954D01*
G01X82045Y226500D01*
G01X55819Y226500D01*
G01X57599Y229584D01*
G01X57599Y239015D01*
G01X52990Y247000D01*
G01X57990Y247000D01*
G01X62990Y247000D01*
G01X67990Y247000D01*
G01X72990Y247000D01*
G01X77990Y247000D01*
G01X82990Y247000D01*
G01X87990Y247000D01*
G01X92990Y247000D01*
G01X97990Y247000D01*
G01X102990Y247000D01*
G01X107990Y247000D01*
G01X112990Y247000D01*
G01X117990Y247000D01*
G01X122990Y247000D01*
G01X127990Y247000D01*
G01X132990Y247000D01*
G01X137885Y247000D01*
G01X168785Y216099D01*
G01X168785Y216099D01*
G01X929000Y224414D02*
G01X900299Y195714D01*
G01X900299Y197415D01*
G01X895690Y205400D01*
G01X900299Y213384D01*
G01X900299Y222815D01*
G01X895690Y230800D01*
G01X900299Y238784D01*
G01X900299Y248215D01*
G01X895690Y256200D01*
G01X900299Y264184D01*
G01X900299Y273615D01*
G01X895690Y281600D01*
G01X900299Y289584D01*
G01X900299Y296485D01*
G01X926763Y322949D01*
G01X929000Y322949D01*
G01X929000Y317949D01*
G01X929000Y312949D01*
G01X929000Y307949D01*
G01X929000Y302949D01*
G01X929000Y297949D01*
G01X929000Y292949D01*
G01X929000Y287949D01*
G01X929000Y282949D01*
G01X929000Y277949D01*
G01X929000Y272949D01*
G01X929000Y267949D01*
G01X929000Y262949D01*
G01X929000Y257949D01*
G01X929000Y252949D01*
G01X929000Y247949D01*
G01X929000Y242949D01*
G01X929000Y237949D01*
G01X929000Y232949D01*
G01X929000Y227949D01*
G01X929000Y224414D01*
G01X929000Y224414D01*
G01X844309Y230800D02*
G01X839700Y222815D01*
G01X839700Y213384D01*
G01X844309Y205400D01*
G01X839700Y197415D01*
G01X839700Y187984D01*
G01X844309Y180000D01*
G01X840846Y174001D01*
G01X839463Y173351D01*
G01X837556Y175258D01*
G01X837154Y175954D01*
G01X832745Y178500D01*
G01X784166Y178500D01*
G01X782780Y180579D01*
G01X784454Y181545D01*
G01X784856Y182241D01*
G01X840321Y237707D01*
G01X844309Y230800D01*
G01X844309Y230800D01*
G01X689500Y169000D02*
G01X689500Y159500D01*
G01X640954Y159500D01*
G01X636545Y156954D01*
G01X636143Y156258D01*
G01X616885Y137000D01*
G01X589500Y137000D01*
G01X589500Y150331D01*
G01X632125Y179000D01*
G01X637125Y179000D01*
G01X642125Y179000D01*
G01X647125Y179000D01*
G01X652125Y179000D01*
G01X657125Y179000D01*
G01X662125Y179000D01*
G01X667125Y179000D01*
G01X672125Y179000D01*
G01X677125Y179000D01*
G01X682125Y179000D01*
G01X687125Y179000D01*
G01X689500Y179000D01*
G01X689500Y169000D01*
G01X689500Y169000D01*
G01X526500Y229454D02*
G01X526500Y224454D01*
G01X526500Y219454D01*
G01X526500Y214454D01*
G01X526500Y209454D01*
G01X526500Y204454D01*
G01X526500Y199454D01*
G01X526500Y194454D01*
G01X526500Y189454D01*
G01X526500Y184454D01*
G01X526500Y179454D01*
G01X526500Y174454D01*
G01X526500Y169454D01*
G01X526500Y164454D01*
G01X526500Y159454D01*
G01X526500Y156614D01*
G01X506885Y137000D01*
G01X492443Y137000D01*
G01X494339Y140284D01*
G01X494339Y149715D01*
G01X489730Y157700D01*
G01X494339Y165684D01*
G01X494339Y175115D01*
G01X489730Y183100D01*
G01X494339Y191084D01*
G01X494339Y199785D01*
G01X526500Y231945D01*
G01X526500Y229454D01*
G01X526500Y229454D01*
G01X839700Y145885D02*
G01X839700Y137184D01*
G01X844309Y129200D01*
G01X839700Y121215D01*
G01X839700Y111784D01*
G01X844309Y103800D01*
G01X839700Y95815D01*
G01X839700Y92804D01*
G01X835913Y89658D01*
G01X835454Y90454D01*
G01X834758Y90856D01*
G01X807178Y118435D01*
G01X779599Y146014D01*
G01X779599Y154715D01*
G01X776837Y159500D01*
G01X826085Y159500D01*
G01X839700Y145885D01*
G01X839700Y145885D01*
G01X337045Y118045D02*
G01X337741Y117643D01*
G01X370643Y84741D01*
G01X371045Y84045D01*
G01X371762Y83631D01*
G01X371311Y83099D01*
G01X364784Y83099D01*
G01X356616Y78383D01*
G01X351900Y70215D01*
G01X351900Y66914D01*
G01X334000Y84814D01*
G01X334000Y118500D01*
G01X336783Y118500D01*
G01X337045Y118045D01*
G01X337045Y118045D01*
G01X942000Y192599D02*
G01X941284Y192599D01*
G01X933116Y187883D01*
G01X928400Y179715D01*
G01X928400Y170284D01*
G01X933009Y162300D01*
G01X928400Y154315D01*
G01X928400Y144884D01*
G01X933009Y136900D01*
G01X928400Y128915D01*
G01X928400Y119484D01*
G01X933009Y111500D01*
G01X928400Y103515D01*
G01X928400Y94084D01*
G01X933009Y86100D01*
G01X928400Y78115D01*
G01X928400Y68684D01*
G01X933116Y60516D01*
G01X938534Y57387D01*
G01X938534Y52000D01*
G01X894170Y52000D01*
G01X895583Y52816D01*
G01X900299Y60984D01*
G01X900299Y70415D01*
G01X895690Y78400D01*
G01X900299Y86384D01*
G01X900299Y95815D01*
G01X895690Y103800D01*
G01X900299Y111784D01*
G01X900299Y121215D01*
G01X895690Y129200D01*
G01X900299Y137184D01*
G01X900299Y146615D01*
G01X895690Y154600D01*
G01X900299Y162584D01*
G01X900299Y168485D01*
G01X942000Y210185D01*
G01X942000Y192599D01*
G01X942000Y192599D01*
G01X819000Y79385D02*
G01X819000Y46614D01*
G01X812385Y40000D01*
G01X777472Y40000D01*
G01X779599Y43684D01*
G01X779599Y53115D01*
G01X774990Y61099D01*
G01X779599Y69084D01*
G01X779599Y78515D01*
G01X774990Y86499D01*
G01X779599Y94484D01*
G01X779599Y103915D01*
G01X774990Y111899D01*
G01X779197Y119187D01*
G01X799098Y99286D01*
G01X819000Y79385D01*
G01X819000Y79385D01*
G01X998000Y2000D02*
G01X993000Y2000D01*
G01X988000Y2000D01*
G01X983000Y2000D01*
G01X978000Y2000D01*
G01X973000Y2000D01*
G01X968000Y2000D01*
G01X963000Y2000D01*
G01X958000Y2000D01*
G01X953000Y2000D01*
G01X948000Y2000D01*
G01X943000Y2000D01*
G01X938000Y2000D01*
G01X933000Y2000D01*
G01X928000Y2000D01*
G01X923000Y2000D01*
G01X918000Y2000D01*
G01X913000Y2000D01*
G01X908000Y2000D01*
G01X903000Y2000D01*
G01X898000Y2000D01*
G01X893000Y2000D01*
G01X888000Y2000D01*
G01X883000Y2000D01*
G01X878000Y2000D01*
G01X873000Y2000D01*
G01X868000Y2000D01*
G01X863000Y2000D01*
G01X858000Y2000D01*
G01X853000Y2000D01*
G01X848000Y2000D01*
G01X843000Y2000D01*
G01X838000Y2000D01*
G01X833000Y2000D01*
G01X828000Y2000D01*
G01X823000Y2000D01*
G01X818000Y2000D01*
G01X813000Y2000D01*
G01X808000Y2000D01*
G01X803000Y2000D01*
G01X798000Y2000D01*
G01X793000Y2000D01*
G01X788000Y2000D01*
G01X783000Y2000D01*
G01X778000Y2000D01*
G01X773000Y2000D01*
G01X768000Y2000D01*
G01X763000Y2000D01*
G01X758000Y2000D01*
G01X753000Y2000D01*
G01X748000Y2000D01*
G01X743000Y2000D01*
G01X738000Y2000D01*
G01X733000Y2000D01*
G01X728000Y2000D01*
G01X723000Y2000D01*
G01X718000Y2000D01*
G01X713000Y2000D01*
G01X708000Y2000D01*
G01X703000Y2000D01*
G01X698000Y2000D01*
G01X693000Y2000D01*
G01X688000Y2000D01*
G01X683000Y2000D01*
G01X678000Y2000D01*
G01X673000Y2000D01*
G01X668000Y2000D01*
G01X663000Y2000D01*
G01X658000Y2000D01*
G01X653000Y2000D01*
G01X648000Y2000D01*
G01X643000Y2000D01*
G01X638000Y2000D01*
G01X633000Y2000D01*
G01X628000Y2000D01*
G01X623000Y2000D01*
G01X618000Y2000D01*
G01X613000Y2000D01*
G01X608000Y2000D01*
G01X603000Y2000D01*
G01X598000Y2000D01*
G01X593000Y2000D01*
G01X588000Y2000D01*
G01X583000Y2000D01*
G01X578000Y2000D01*
G01X573000Y2000D01*
G01X568000Y2000D01*
G01X563000Y2000D01*
G01X558000Y2000D01*
G01X553000Y2000D01*
G01X548000Y2000D01*
G01X543000Y2000D01*
G01X538000Y2000D01*
G01X533000Y2000D01*
G01X528000Y2000D01*
G01X523000Y2000D01*
G01X518000Y2000D01*
G01X513000Y2000D01*
G01X508000Y2000D01*
G01X503000Y2000D01*
G01X498000Y2000D01*
G01X493000Y2000D01*
G01X488000Y2000D01*
G01X483000Y2000D01*
G01X478000Y2000D01*
G01X473000Y2000D01*
G01X468000Y2000D01*
G01X463000Y2000D01*
G01X458000Y2000D01*
G01X453000Y2000D01*
G01X448000Y2000D01*
G01X443000Y2000D01*
G01X438000Y2000D01*
G01X433000Y2000D01*
G01X428000Y2000D01*
G01X423000Y2000D01*
G01X418000Y2000D01*
G01X413000Y2000D01*
G01X408000Y2000D01*
G01X403000Y2000D01*
G01X398000Y2000D01*
G01X393000Y2000D01*
G01X388000Y2000D01*
G01X383000Y2000D01*
G01X378000Y2000D01*
G01X373000Y2000D01*
G01X368000Y2000D01*
G01X363000Y2000D01*
G01X358000Y2000D01*
G01X353000Y2000D01*
G01X348000Y2000D01*
G01X343000Y2000D01*
G01X338000Y2000D01*
G01X333000Y2000D01*
G01X328000Y2000D01*
G01X323000Y2000D01*
G01X318000Y2000D01*
G01X313000Y2000D01*
G01X308000Y2000D01*
G01X303000Y2000D01*
G01X298000Y2000D01*
G01X293000Y2000D01*
G01X288000Y2000D01*
G01X283000Y2000D01*
G01X278000Y2000D01*
G01X273000Y2000D01*
G01X268000Y2000D01*
G01X263000Y2000D01*
G01X258000Y2000D01*
G01X253000Y2000D01*
G01X248000Y2000D01*
G01X243000Y2000D01*
G01X238000Y2000D01*
G01X233000Y2000D01*
G01X228000Y2000D01*
G01X223000Y2000D01*
G01X218000Y2000D01*
G01X213000Y2000D01*
G01X208000Y2000D01*
G01X203000Y2000D01*
G01X198000Y2000D01*
G01X193000Y2000D01*
G01X188000Y2000D01*
G01X183000Y2000D01*
G01X178000Y2000D01*
G01X173000Y2000D01*
G01X168000Y2000D01*
G01X163000Y2000D01*
G01X158000Y2000D01*
G01X153000Y2000D01*
G01X148000Y2000D01*
G01X143000Y2000D01*
G01X138000Y2000D01*
G01X133000Y2000D01*
G01X128000Y2000D01*
G01X123000Y2000D01*
G01X118000Y2000D01*
G01X113000Y2000D01*
G01X108000Y2000D01*
G01X103000Y2000D01*
G01X98000Y2000D01*
G01X93000Y2000D01*
G01X88000Y2000D01*
G01X83000Y2000D01*
G01X78000Y2000D01*
G01X73000Y2000D01*
G01X68000Y2000D01*
G01X63000Y2000D01*
G01X58000Y2000D01*
G01X53000Y2000D01*
G01X48000Y2000D01*
G01X43000Y2000D01*
G01X38000Y2000D01*
G01X33000Y2000D01*
G01X28000Y2000D01*
G01X23000Y2000D01*
G01X18000Y2000D01*
G01X13000Y2000D01*
G01X8000Y2000D01*
G01X3000Y2000D01*
G01X2000Y2000D01*
G01X2000Y7000D01*
G01X2000Y12000D01*
G01X2000Y17000D01*
G01X2000Y22000D01*
G01X2000Y27000D01*
G01X2000Y32000D01*
G01X2000Y37000D01*
G01X2000Y42000D01*
G01X2000Y47000D01*
G01X2000Y52000D01*
G01X2000Y57000D01*
G01X2000Y62000D01*
G01X2000Y67000D01*
G01X2000Y72000D01*
G01X2000Y77000D01*
G01X2000Y82000D01*
G01X2000Y87000D01*
G01X2000Y92000D01*
G01X2000Y97000D01*
G01X2000Y102000D01*
G01X2000Y107000D01*
G01X2000Y112000D01*
G01X2000Y117000D01*
G01X2000Y122000D01*
G01X2000Y127000D01*
G01X2000Y132000D01*
G01X2000Y137000D01*
G01X2000Y142000D01*
G01X2000Y147000D01*
G01X2000Y152000D01*
G01X2000Y157000D01*
G01X2000Y162000D01*
G01X2000Y167000D01*
G01X2000Y172000D01*
G01X2000Y177000D01*
G01X2000Y182000D01*
G01X2000Y187000D01*
G01X2000Y192000D01*
G01X2000Y197000D01*
G01X2000Y202000D01*
G01X2000Y207000D01*
G01X2000Y212000D01*
G01X2000Y217000D01*
G01X2000Y222000D01*
G01X2000Y227000D01*
G01X2000Y232000D01*
G01X2000Y237000D01*
G01X2000Y242000D01*
G01X2000Y247000D01*
G01X2000Y252000D01*
G01X2000Y257000D01*
G01X2000Y262000D01*
G01X2000Y267000D01*
G01X2000Y272000D01*
G01X2000Y277000D01*
G01X2000Y282000D01*
G01X2000Y287000D01*
G01X2000Y292000D01*
G01X2000Y297000D01*
G01X2000Y302000D01*
G01X2000Y307000D01*
G01X2000Y312000D01*
G01X2000Y317000D01*
G01X2000Y322000D01*
G01X2000Y327000D01*
G01X2000Y332000D01*
G01X2000Y337000D01*
G01X2000Y342000D01*
G01X2000Y347000D01*
G01X2000Y352000D01*
G01X2000Y357000D01*
G01X2000Y362000D01*
G01X2000Y367000D01*
G01X2000Y372000D01*
G01X2000Y377000D01*
G01X2000Y382000D01*
G01X2000Y387000D01*
G01X2000Y392000D01*
G01X2000Y397000D01*
G01X2000Y402000D01*
G01X2000Y407000D01*
G01X2000Y412000D01*
G01X2000Y417000D01*
G01X2000Y422000D01*
G01X2000Y427000D01*
G01X2000Y432000D01*
G01X2000Y437000D01*
G01X2000Y442000D01*
G01X2000Y447000D01*
G01X2000Y452000D01*
G01X2000Y457000D01*
G01X2000Y462000D01*
G01X2000Y467000D01*
G01X2000Y472000D01*
G01X2000Y477000D01*
G01X2000Y482000D01*
G01X2000Y487000D01*
G01X2000Y492000D01*
G01X2000Y497000D01*
G01X2000Y502000D01*
G01X2000Y507000D01*
G01X2000Y512000D01*
G01X2000Y517000D01*
G01X2000Y522000D01*
G01X2000Y527000D01*
G01X2000Y532000D01*
G01X6900Y533215D01*
G01X6900Y523784D01*
G01X11394Y516000D01*
G01X6900Y508215D01*
G01X6900Y498784D01*
G01X11616Y490616D01*
G01X19784Y485900D01*
G01X29215Y485900D01*
G01X37383Y490616D01*
G01X39164Y493700D01*
G01X47162Y493700D01*
G01X49009Y490500D01*
G01X44400Y482515D01*
G01X44400Y473084D01*
G01X49116Y464916D01*
G01X57284Y460200D01*
G01X66715Y460200D01*
G01X74883Y464916D01*
G01X76837Y468300D01*
G01X80885Y468300D01*
G01X80885Y468300D01*
G01X84421Y464764D01*
G01X87956Y461228D01*
G01X91492Y457693D01*
G01X95027Y454157D01*
G01X98563Y450622D01*
G01X102098Y447086D01*
G01X105634Y443551D01*
G01X109169Y440015D01*
G01X112705Y436480D01*
G01X116240Y432944D01*
G01X123100Y426085D01*
G01X123100Y422284D01*
G01X127816Y414116D01*
G01X135984Y409400D01*
G01X145415Y409400D01*
G01X153583Y414116D01*
G01X155537Y417500D01*
G01X160537Y417500D01*
G01X165537Y417500D01*
G01X170537Y417500D01*
G01X175537Y417500D01*
G01X180537Y417500D01*
G01X185537Y417500D01*
G01X190537Y417500D01*
G01X195537Y417500D01*
G01X200537Y417500D01*
G01X205537Y417500D01*
G01X210537Y417500D01*
G01X215537Y417500D01*
G01X220537Y417500D01*
G01X225537Y417500D01*
G01X230537Y417500D01*
G01X235045Y417500D01*
G01X239454Y420045D01*
G01X239856Y420741D01*
G01X239856Y420741D01*
G01X243391Y424276D01*
G01X246927Y427812D01*
G01X250462Y431348D01*
G01X253998Y434883D01*
G01X257534Y438419D01*
G01X261069Y441955D01*
G01X264605Y445490D01*
G01X268140Y449026D01*
G01X271676Y452561D01*
G01X278514Y459400D01*
G01X287215Y459400D01*
G01X295383Y464116D01*
G01X297337Y467500D01*
G01X302337Y467500D01*
G01X307337Y467500D01*
G01X312337Y467500D01*
G01X317337Y467500D01*
G01X322337Y467500D01*
G01X327337Y467500D01*
G01X332337Y467500D01*
G01X337337Y467500D01*
G01X342337Y467500D01*
G01X347337Y467500D01*
G01X352337Y467500D01*
G01X357337Y467500D01*
G01X362337Y467500D01*
G01X367337Y467500D01*
G01X372337Y467500D01*
G01X377337Y467500D01*
G01X382337Y467500D01*
G01X387337Y467500D01*
G01X392337Y467500D01*
G01X397337Y467500D01*
G01X398545Y467500D01*
G01X402954Y470045D01*
G01X403356Y470741D01*
G01X429814Y497200D01*
G01X450085Y497200D01*
G01X425741Y472856D01*
G01X425045Y472454D01*
G01X422500Y468045D01*
G01X422500Y462954D01*
G01X422500Y457954D01*
G01X422500Y452954D01*
G01X422500Y447954D01*
G01X422500Y442954D01*
G01X422500Y437954D01*
G01X422500Y432954D01*
G01X422500Y427954D01*
G01X422500Y422954D01*
G01X422500Y417954D01*
G01X422500Y412954D01*
G01X422500Y407954D01*
G01X422500Y402954D01*
G01X422500Y397954D01*
G01X422500Y392954D01*
G01X422500Y387954D01*
G01X422500Y382954D01*
G01X422500Y377954D01*
G01X422500Y372954D01*
G01X422500Y370045D01*
G01X422500Y367500D01*
G01X422500Y364954D01*
G01X425045Y360545D01*
G01X425741Y360143D01*
G01X459100Y326785D01*
G01X459100Y318084D01*
G01X463709Y310100D01*
G01X459100Y302115D01*
G01X459100Y297614D01*
G01X425241Y263756D01*
G01X424545Y263354D01*
G01X422000Y258945D01*
G01X422000Y253854D01*
G01X422000Y248854D01*
G01X422000Y243854D01*
G01X422000Y238854D01*
G01X422000Y233854D01*
G01X422000Y228854D01*
G01X422000Y223854D01*
G01X422000Y218854D01*
G01X422000Y213854D01*
G01X422000Y208854D01*
G01X422000Y203854D01*
G01X422000Y198854D01*
G01X422000Y193854D01*
G01X422000Y188854D01*
G01X422000Y183854D01*
G01X422000Y178854D01*
G01X422000Y173854D01*
G01X422000Y168854D01*
G01X422000Y163854D01*
G01X422000Y161045D01*
G01X422000Y158500D01*
G01X422000Y155954D01*
G01X424545Y151545D01*
G01X425241Y151143D01*
G01X455143Y121241D01*
G01X455545Y120545D01*
G01X459954Y118000D01*
G01X464954Y118000D01*
G01X469954Y118000D01*
G01X474954Y118000D01*
G01X479954Y118000D01*
G01X484954Y118000D01*
G01X489954Y118000D01*
G01X494954Y118000D01*
G01X499954Y118000D01*
G01X504954Y118000D01*
G01X509954Y118000D01*
G01X514954Y118000D01*
G01X519954Y118000D01*
G01X524954Y118000D01*
G01X529954Y118000D01*
G01X534954Y118000D01*
G01X539954Y118000D01*
G01X544954Y118000D01*
G01X549954Y118000D01*
G01X554954Y118000D01*
G01X559954Y118000D01*
G01X564954Y118000D01*
G01X569954Y118000D01*
G01X574954Y118000D01*
G01X579954Y118000D01*
G01X584954Y118000D01*
G01X589954Y118000D01*
G01X594954Y118000D01*
G01X599954Y118000D01*
G01X604954Y118000D01*
G01X609954Y118000D01*
G01X614954Y118000D01*
G01X619954Y118000D01*
G01X623545Y118000D01*
G01X627954Y120545D01*
G01X628356Y121241D01*
G01X647614Y140500D01*
G01X678000Y140500D01*
G01X678000Y125500D01*
G01X678000Y108500D01*
G01X712000Y108500D01*
G01X712000Y115100D01*
G01X747162Y115100D01*
G01X749009Y111899D01*
G01X744400Y103915D01*
G01X744400Y94484D01*
G01X749009Y86499D01*
G01X744400Y78515D01*
G01X744400Y69084D01*
G01X749009Y61099D01*
G01X744400Y53115D01*
G01X744400Y43684D01*
G01X746527Y40000D01*
G01X741527Y40000D01*
G01X736527Y40000D01*
G01X731527Y40000D01*
G01X726527Y40000D01*
G01X721527Y40000D01*
G01X716527Y40000D01*
G01X711527Y40000D01*
G01X706527Y40000D01*
G01X701527Y40000D01*
G01X696527Y40000D01*
G01X691527Y40000D01*
G01X686527Y40000D01*
G01X681527Y40000D01*
G01X676527Y40000D01*
G01X671527Y40000D01*
G01X667314Y40000D01*
G01X665599Y41714D01*
G01X665599Y44915D01*
G01X660990Y52900D01*
G01X665599Y60884D01*
G01X665599Y70315D01*
G01X660990Y78300D01*
G01X662837Y81500D01*
G01X701885Y81500D01*
G01X708000Y75385D01*
G01X708000Y72000D01*
G01X708000Y55000D01*
G01X742000Y55000D01*
G01X742000Y72000D01*
G01X742000Y89000D01*
G01X721614Y89000D01*
G01X713356Y97258D01*
G01X712954Y97954D01*
G01X708545Y100500D01*
G01X662837Y100500D01*
G01X660883Y103883D01*
G01X652715Y108599D01*
G01X643284Y108599D01*
G01X635116Y103883D01*
G01X633162Y100500D01*
G01X583837Y100500D01*
G01X581883Y103883D01*
G01X573715Y108599D01*
G01X564284Y108599D01*
G01X556116Y103883D01*
G01X554162Y100500D01*
G01X504837Y100500D01*
G01X502883Y103883D01*
G01X494715Y108599D01*
G01X485284Y108599D01*
G01X477116Y103883D01*
G01X475162Y100500D01*
G01X470162Y100500D01*
G01X465162Y100500D01*
G01X460162Y100500D01*
G01X455162Y100500D01*
G01X450162Y100500D01*
G01X445162Y100500D01*
G01X440162Y100500D01*
G01X435162Y100500D01*
G01X430162Y100500D01*
G01X425162Y100500D01*
G01X423837Y100500D01*
G01X421883Y103883D01*
G01X413715Y108599D01*
G01X404284Y108599D01*
G01X396116Y103883D01*
G01X394162Y100500D01*
G01X382114Y100500D01*
G01X361000Y121614D01*
G01X361000Y135500D01*
G01X361000Y152500D01*
G01X339614Y152500D01*
G01X347693Y160579D01*
G01X349116Y158116D01*
G01X357284Y153400D01*
G01X366715Y153400D01*
G01X374883Y158116D01*
G01X379599Y166284D01*
G01X379599Y175715D01*
G01X375105Y183500D01*
G01X379599Y191284D01*
G01X379599Y200715D01*
G01X375105Y208500D01*
G01X376811Y211455D01*
G01X383283Y211491D01*
G01X385009Y208500D01*
G01X380400Y200515D01*
G01X380400Y191084D01*
G01X385009Y183100D01*
G01X380400Y175115D01*
G01X380400Y165684D01*
G01X385009Y157700D01*
G01X380400Y149715D01*
G01X380400Y140284D01*
G01X385116Y132116D01*
G01X393284Y127400D01*
G01X402715Y127400D01*
G01X410883Y132116D01*
G01X415599Y140284D01*
G01X415599Y149715D01*
G01X410990Y157700D01*
G01X415599Y165684D01*
G01X415599Y175115D01*
G01X410990Y183100D01*
G01X415599Y191084D01*
G01X415599Y200515D01*
G01X410990Y208500D01*
G01X415599Y216484D01*
G01X415599Y225915D01*
G01X410990Y233900D01*
G01X415599Y241884D01*
G01X415599Y251315D01*
G01X410990Y259300D01*
G01X415599Y267284D01*
G01X415599Y276715D01*
G01X410990Y284700D01*
G01X415599Y292684D01*
G01X415599Y302115D01*
G01X410990Y310100D01*
G01X415599Y318084D01*
G01X415599Y327515D01*
G01X410883Y335683D01*
G01X402715Y340399D01*
G01X393284Y340399D01*
G01X385116Y335683D01*
G01X380400Y327515D01*
G01X380400Y318084D01*
G01X379599Y318284D01*
G01X379599Y327715D01*
G01X374883Y335883D01*
G01X371500Y337837D01*
G01X371500Y342837D01*
G01X371500Y347837D01*
G01X371500Y352837D01*
G01X371500Y357837D01*
G01X371500Y362837D01*
G01X371500Y367837D01*
G01X371500Y372837D01*
G01X371500Y377837D01*
G01X371500Y382837D01*
G01X371500Y387837D01*
G01X371500Y392837D01*
G01X371500Y397837D01*
G01X371500Y402837D01*
G01X371500Y407837D01*
G01X371500Y412837D01*
G01X371500Y417837D01*
G01X371500Y418000D01*
G01X379000Y418000D01*
G01X379000Y435000D01*
G01X379000Y452000D01*
G01X379000Y452000D01*
G01X345000Y452000D01*
G01X345000Y435000D01*
G01X345000Y418000D01*
G01X352500Y418000D01*
G01X352500Y413000D01*
G01X352500Y408000D01*
G01X352500Y403000D01*
G01X352500Y398000D01*
G01X352500Y393000D01*
G01X352500Y388000D01*
G01X352500Y383000D01*
G01X352500Y378000D01*
G01X352500Y373000D01*
G01X352500Y368000D01*
G01X352500Y363000D01*
G01X352500Y358000D01*
G01X352500Y353000D01*
G01X352500Y348000D01*
G01X352500Y343000D01*
G01X352500Y338000D01*
G01X352500Y337837D01*
G01X349116Y335883D01*
G01X344400Y327715D01*
G01X344400Y318284D01*
G01X349116Y310116D01*
G01X349317Y310000D01*
G01X349116Y309883D01*
G01X347162Y306500D01*
G01X336454Y306500D01*
G01X332045Y303954D01*
G01X331643Y303258D01*
G01X331643Y303258D01*
G01X328108Y299722D01*
G01X324572Y296187D01*
G01X321036Y292651D01*
G01X317501Y289116D01*
G01X313965Y285580D01*
G01X310430Y282044D01*
G01X306894Y278509D01*
G01X303359Y274973D01*
G01X299823Y271438D01*
G01X294855Y266470D01*
G01X291522Y269803D01*
G01X291799Y270284D01*
G01X291799Y279715D01*
G01X287083Y287883D01*
G01X284810Y289196D01*
G01X284810Y289196D01*
G01X288346Y292732D01*
G01X291882Y296267D01*
G01X295417Y299802D01*
G01X298953Y303338D01*
G01X302488Y306873D01*
G01X306024Y310409D01*
G01X309559Y313944D01*
G01X313095Y317480D01*
G01X316630Y321016D01*
G01X323614Y328000D01*
G01X340500Y328000D01*
G01X340500Y345000D01*
G01X340500Y362000D01*
G01X306500Y362000D01*
G01X306500Y345000D01*
G01X306500Y338114D01*
G01X306500Y338114D01*
G01X302964Y334579D01*
G01X299428Y331043D01*
G01X295893Y327508D01*
G01X292357Y323972D01*
G01X288822Y320436D01*
G01X285286Y316901D01*
G01X281751Y313365D01*
G01X278215Y309830D01*
G01X274680Y306294D01*
G01X267941Y299556D01*
G01X267245Y299154D01*
G01X264700Y294745D01*
G01X264700Y289837D01*
G01X261500Y287990D01*
G01X253515Y292599D01*
G01X244084Y292599D01*
G01X236100Y287990D01*
G01X228115Y292599D01*
G01X218684Y292599D01*
G01X210700Y287990D01*
G01X202715Y292599D01*
G01X195164Y292599D01*
G01X195164Y292599D01*
G01X198577Y296252D01*
G01X201991Y299906D01*
G01X205405Y303560D01*
G01X208818Y307213D01*
G01X212232Y310867D01*
G01X215645Y314520D01*
G01X219059Y318174D01*
G01X222472Y321827D01*
G01X225886Y325480D01*
G01X231977Y332000D01*
G01X246500Y332000D01*
G01X246500Y349000D01*
G01X246500Y366000D01*
G01X212500Y366000D01*
G01X212500Y349000D01*
G01X212500Y339356D01*
G01X212500Y339356D01*
G01X209086Y335703D01*
G01X205673Y332049D01*
G01X202259Y328395D01*
G01X198846Y324742D01*
G01X195432Y321088D01*
G01X192018Y317435D01*
G01X188605Y313781D01*
G01X185191Y310128D01*
G01X181778Y306474D01*
G01X178364Y302821D01*
G01X174951Y299167D01*
G01X168814Y292599D01*
G01X167884Y292599D01*
G01X159900Y287990D01*
G01X151915Y292599D01*
G01X142484Y292599D01*
G01X134500Y287990D01*
G01X126515Y292599D01*
G01X117084Y292599D01*
G01X109100Y287990D01*
G01X101115Y292599D01*
G01X91684Y292599D01*
G01X83516Y287883D01*
G01X78800Y279715D01*
G01X78800Y270284D01*
G01X81273Y266000D01*
G01X56685Y266000D01*
G01X52883Y272583D01*
G01X44715Y277299D01*
G01X35284Y277299D01*
G01X31500Y280500D01*
G01X65500Y280500D01*
G01X65500Y297500D01*
G01X65500Y314500D01*
G01X53000Y314500D01*
G01X53000Y335673D01*
G01X57284Y333200D01*
G01X66715Y333200D01*
G01X74883Y337916D01*
G01X79599Y346084D01*
G01X79599Y355515D01*
G01X74990Y363500D01*
G01X79599Y371484D01*
G01X79599Y380915D01*
G01X74990Y388900D01*
G01X79599Y396884D01*
G01X79599Y406315D01*
G01X74990Y414300D01*
G01X79599Y422284D01*
G01X79599Y431715D01*
G01X74883Y439883D01*
G01X66715Y444599D01*
G01X66715Y444599D01*
G01X57284Y444599D01*
G01X49116Y439883D01*
G01X44400Y431715D01*
G01X44400Y422284D01*
G01X49009Y414300D01*
G01X44400Y406315D01*
G01X44400Y397614D01*
G01X37241Y390456D01*
G01X36545Y390054D01*
G01X34000Y385645D01*
G01X34000Y380554D01*
G01X34000Y375554D01*
G01X34000Y370554D01*
G01X34000Y365554D01*
G01X34000Y360554D01*
G01X34000Y355554D01*
G01X34000Y350554D01*
G01X34000Y345554D01*
G01X34000Y340554D01*
G01X34000Y335554D01*
G01X34000Y330554D01*
G01X34000Y325554D01*
G01X34000Y320554D01*
G01X34000Y315554D01*
G01X34000Y314500D01*
G01X31500Y314500D01*
G01X31500Y297500D01*
G01X31500Y280500D01*
G01X35284Y277299D01*
G01X27116Y272583D01*
G01X22400Y264415D01*
G01X22400Y254984D01*
G01X27009Y247000D01*
G01X22400Y239015D01*
G01X22400Y229584D01*
G01X27116Y221416D01*
G01X35284Y216700D01*
G01X35931Y216700D01*
G01X37418Y212533D01*
G01X34741Y209856D01*
G01X34045Y209454D01*
G01X31500Y205045D01*
G01X31500Y199954D01*
G01X31500Y182537D01*
G01X28116Y180583D01*
G01X23400Y172415D01*
G01X23400Y162984D01*
G01X28009Y155000D01*
G01X23400Y147015D01*
G01X23400Y137584D01*
G01X28116Y129416D01*
G01X36284Y124700D01*
G01X45715Y124700D01*
G01X53883Y129416D01*
G01X58599Y137584D01*
G01X58599Y146285D01*
G01X77258Y164943D01*
G01X77954Y165345D01*
G01X80500Y169754D01*
G01X80500Y172300D01*
G01X80500Y175385D01*
G01X87643Y168241D01*
G01X88045Y167545D01*
G01X92454Y165000D01*
G01X97454Y165000D01*
G01X102454Y165000D01*
G01X107454Y165000D01*
G01X112454Y165000D01*
G01X117454Y165000D01*
G01X122454Y165000D01*
G01X127454Y165000D01*
G01X132454Y165000D01*
G01X137454Y165000D01*
G01X142454Y165000D01*
G01X147454Y165000D01*
G01X152454Y165000D01*
G01X157454Y165000D01*
G01X162454Y165000D01*
G01X167454Y165000D01*
G01X172454Y165000D01*
G01X177454Y165000D01*
G01X182454Y165000D01*
G01X187454Y165000D01*
G01X192454Y165000D01*
G01X197454Y165000D01*
G01X202454Y165000D01*
G01X207454Y165000D01*
G01X212454Y165000D01*
G01X217454Y165000D01*
G01X222454Y165000D01*
G01X227454Y165000D01*
G01X232454Y165000D01*
G01X237454Y165000D01*
G01X242454Y165000D01*
G01X247454Y165000D01*
G01X252454Y165000D01*
G01X257454Y165000D01*
G01X262454Y165000D01*
G01X267454Y165000D01*
G01X272454Y165000D01*
G01X277454Y165000D01*
G01X280545Y165000D01*
G01X284954Y167545D01*
G01X285356Y168241D01*
G01X299758Y182643D01*
G01X300454Y183045D01*
G01X303000Y187454D01*
G01X303000Y190000D01*
G01X303000Y195000D01*
G01X303000Y200000D01*
G01X303000Y205000D01*
G01X303000Y210000D01*
G01X303000Y215000D01*
G01X303000Y220000D01*
G01X303000Y225000D01*
G01X303000Y230000D01*
G01X303000Y235000D01*
G01X303000Y240000D01*
G01X303000Y245000D01*
G01X303000Y247385D01*
G01X303000Y247385D01*
G01X306535Y250920D01*
G01X310070Y254456D01*
G01X313606Y257991D01*
G01X317141Y261527D01*
G01X320677Y265062D01*
G01X324213Y268598D01*
G01X327748Y272134D01*
G01X331284Y275669D01*
G01X334819Y279205D01*
G01X338355Y282740D01*
G01X343114Y287500D01*
G01X347162Y287500D01*
G01X349116Y284116D01*
G01X357284Y279400D01*
G01X366715Y279400D01*
G01X374883Y284116D01*
G01X379599Y292284D01*
G01X379599Y301715D01*
G01X374883Y309883D01*
G01X374682Y310000D01*
G01X374883Y310116D01*
G01X379599Y318284D01*
G01X380400Y318084D01*
G01X385009Y310100D01*
G01X380400Y302115D01*
G01X380400Y292684D01*
G01X385009Y284700D01*
G01X380400Y276715D01*
G01X380400Y267284D01*
G01X385009Y259300D01*
G01X383162Y256100D01*
G01X376491Y256100D01*
G01X374883Y258883D01*
G01X366715Y263599D01*
G01X357284Y263599D01*
G01X349116Y258883D01*
G01X344400Y250715D01*
G01X344400Y241284D01*
G01X348894Y233500D01*
G01X344400Y225715D01*
G01X344400Y216284D01*
G01X348894Y208500D01*
G01X347162Y205500D01*
G01X336454Y205500D01*
G01X332045Y202954D01*
G01X331643Y202258D01*
G01X308241Y178856D01*
G01X307545Y178454D01*
G01X305000Y174045D01*
G01X305000Y168954D01*
G01X305000Y163954D01*
G01X305000Y158954D01*
G01X305000Y153954D01*
G01X305000Y148954D01*
G01X305000Y143954D01*
G01X305000Y138954D01*
G01X305000Y133954D01*
G01X291799Y135715D01*
G01X287083Y143883D01*
G01X278915Y148599D01*
G01X278915Y148599D01*
G01X269484Y148599D01*
G01X261500Y143990D01*
G01X253515Y148599D01*
G01X244084Y148599D01*
G01X236100Y143990D01*
G01X228115Y148599D01*
G01X218684Y148599D01*
G01X210700Y143990D01*
G01X202715Y148599D01*
G01X193284Y148599D01*
G01X185300Y143990D01*
G01X177315Y148599D01*
G01X167884Y148599D01*
G01X159900Y143990D01*
G01X151915Y148599D01*
G01X142484Y148599D01*
G01X134500Y143990D01*
G01X126515Y148599D01*
G01X117084Y148599D01*
G01X109100Y143990D01*
G01X101115Y148599D01*
G01X91684Y148599D01*
G01X83516Y143883D01*
G01X78800Y135715D01*
G01X78800Y126284D01*
G01X83516Y118116D01*
G01X91684Y113400D01*
G01X101115Y113400D01*
G01X109100Y118009D01*
G01X117084Y113400D01*
G01X126515Y113400D01*
G01X134500Y118009D01*
G01X142484Y113400D01*
G01X151915Y113400D01*
G01X159900Y118009D01*
G01X167884Y113400D01*
G01X177315Y113400D01*
G01X185300Y118009D01*
G01X193284Y113400D01*
G01X202715Y113400D01*
G01X210700Y118009D01*
G01X218684Y113400D01*
G01X228115Y113400D01*
G01X236100Y118009D01*
G01X244084Y113400D01*
G01X253515Y113400D01*
G01X261500Y118009D01*
G01X269484Y113400D01*
G01X278915Y113400D01*
G01X287083Y118116D01*
G01X291799Y126284D01*
G01X291799Y135715D01*
G01X305000Y133954D01*
G01X305000Y128954D01*
G01X305000Y123954D01*
G01X305000Y118954D01*
G01X305000Y113954D01*
G01X305000Y108954D01*
G01X305000Y103954D01*
G01X305000Y98954D01*
G01X305000Y93954D01*
G01X305000Y88954D01*
G01X305000Y83954D01*
G01X305000Y78954D01*
G01X305000Y73954D01*
G01X305000Y68954D01*
G01X305000Y65614D01*
G01X291799Y52414D01*
G01X291799Y59215D01*
G01X287083Y67383D01*
G01X278915Y72099D01*
G01X269484Y72099D01*
G01X261500Y67490D01*
G01X253515Y72099D01*
G01X244084Y72099D01*
G01X236100Y67490D01*
G01X228115Y72099D01*
G01X218684Y72099D01*
G01X210700Y67490D01*
G01X202715Y72099D01*
G01X193284Y72099D01*
G01X185300Y67490D01*
G01X177315Y72099D01*
G01X167884Y72099D01*
G01X159900Y67490D01*
G01X151915Y72099D01*
G01X142484Y72099D01*
G01X134500Y67490D01*
G01X126515Y72099D01*
G01X117084Y72099D01*
G01X109100Y67490D01*
G01X101115Y72099D01*
G01X98514Y72099D01*
G01X81656Y88958D01*
G01X81254Y89654D01*
G01X76845Y92200D01*
G01X54837Y92200D01*
G01X52883Y95583D01*
G01X44715Y100299D01*
G01X35284Y100299D01*
G01X27116Y95583D01*
G01X22400Y87415D01*
G01X22400Y77984D01*
G01X27009Y70000D01*
G01X22400Y62015D01*
G01X22400Y52584D01*
G01X27116Y44416D01*
G01X35284Y39700D01*
G01X44715Y39700D01*
G01X52883Y44416D01*
G01X53220Y45000D01*
G01X56162Y45000D01*
G01X58116Y41616D01*
G01X66284Y36900D01*
G01X74985Y36900D01*
G01X87143Y24741D01*
G01X87545Y24045D01*
G01X91954Y21500D01*
G01X96954Y21500D01*
G01X101954Y21500D01*
G01X106954Y21500D01*
G01X111954Y21500D01*
G01X116954Y21500D01*
G01X121954Y21500D01*
G01X126954Y21500D01*
G01X131954Y21500D01*
G01X136954Y21500D01*
G01X141954Y21500D01*
G01X146954Y21500D01*
G01X151954Y21500D01*
G01X156954Y21500D01*
G01X161954Y21500D01*
G01X166954Y21500D01*
G01X171954Y21500D01*
G01X176954Y21500D01*
G01X181954Y21500D01*
G01X186954Y21500D01*
G01X191954Y21500D01*
G01X196954Y21500D01*
G01X201954Y21500D01*
G01X206954Y21500D01*
G01X211954Y21500D01*
G01X216954Y21500D01*
G01X221954Y21500D01*
G01X226954Y21500D01*
G01X231954Y21500D01*
G01X236954Y21500D01*
G01X241954Y21500D01*
G01X246954Y21500D01*
G01X251954Y21500D01*
G01X256954Y21500D01*
G01X261954Y21500D01*
G01X266954Y21500D01*
G01X271954Y21500D01*
G01X276954Y21500D01*
G01X281954Y21500D01*
G01X286545Y21500D01*
G01X290954Y24045D01*
G01X291356Y24741D01*
G01X320758Y54143D01*
G01X321454Y54545D01*
G01X324000Y58954D01*
G01X324000Y61500D01*
G01X324000Y65850D01*
G01X325734Y65850D01*
G01X357643Y33941D01*
G01X358045Y33245D01*
G01X362454Y30700D01*
G01X394162Y30700D01*
G01X396116Y27316D01*
G01X404284Y22600D01*
G01X413715Y22600D01*
G01X421883Y27316D01*
G01X423837Y30700D01*
G01X428837Y30700D01*
G01X433837Y30700D01*
G01X438837Y30700D01*
G01X443837Y30700D01*
G01X448837Y30700D01*
G01X453837Y30700D01*
G01X458837Y30700D01*
G01X463837Y30700D01*
G01X468837Y30700D01*
G01X473837Y30700D01*
G01X475162Y30700D01*
G01X477116Y27316D01*
G01X485284Y22600D01*
G01X494715Y22600D01*
G01X502883Y27316D01*
G01X504837Y30700D01*
G01X554162Y30700D01*
G01X556116Y27316D01*
G01X564284Y22600D01*
G01X573715Y22600D01*
G01X581883Y27316D01*
G01X583837Y30700D01*
G01X633162Y30700D01*
G01X635116Y27316D01*
G01X643284Y22600D01*
G01X652715Y22600D01*
G01X655739Y24345D01*
G01X655843Y24241D01*
G01X656245Y23545D01*
G01X660654Y21000D01*
G01X665654Y21000D01*
G01X670654Y21000D01*
G01X675654Y21000D01*
G01X680654Y21000D01*
G01X685654Y21000D01*
G01X690654Y21000D01*
G01X695654Y21000D01*
G01X700654Y21000D01*
G01X705654Y21000D01*
G01X710654Y21000D01*
G01X715654Y21000D01*
G01X720654Y21000D01*
G01X725654Y21000D01*
G01X730654Y21000D01*
G01X735654Y21000D01*
G01X740654Y21000D01*
G01X745654Y21000D01*
G01X750654Y21000D01*
G01X755654Y21000D01*
G01X760654Y21000D01*
G01X765654Y21000D01*
G01X770654Y21000D01*
G01X775654Y21000D01*
G01X780654Y21000D01*
G01X785654Y21000D01*
G01X790654Y21000D01*
G01X795654Y21000D01*
G01X800654Y21000D01*
G01X805654Y21000D01*
G01X810654Y21000D01*
G01X815654Y21000D01*
G01X819045Y21000D01*
G01X823454Y23545D01*
G01X823856Y24241D01*
G01X832614Y33000D01*
G01X837614Y33000D01*
G01X842614Y33000D01*
G01X847614Y33000D01*
G01X852614Y33000D01*
G01X857614Y33000D01*
G01X862614Y33000D01*
G01X867614Y33000D01*
G01X872614Y33000D01*
G01X877614Y33000D01*
G01X882614Y33000D01*
G01X887614Y33000D01*
G01X892614Y33000D01*
G01X897614Y33000D01*
G01X902614Y33000D01*
G01X907614Y33000D01*
G01X912614Y33000D01*
G01X917614Y33000D01*
G01X922614Y33000D01*
G01X927614Y33000D01*
G01X932614Y33000D01*
G01X937614Y33000D01*
G01X942614Y33000D01*
G01X947614Y33000D01*
G01X952614Y33000D01*
G01X957545Y33000D01*
G01X961954Y35545D01*
G01X962356Y36241D01*
G01X978758Y52643D01*
G01X979454Y53045D01*
G01X982000Y57454D01*
G01X982000Y60000D01*
G01X982000Y65000D01*
G01X982000Y70000D01*
G01X982000Y75000D01*
G01X982000Y80000D01*
G01X982000Y85000D01*
G01X982000Y90000D01*
G01X982000Y95000D01*
G01X982000Y100000D01*
G01X982000Y105000D01*
G01X982000Y110000D01*
G01X982000Y115000D01*
G01X982000Y120000D01*
G01X982000Y125000D01*
G01X982000Y130000D01*
G01X982000Y135000D01*
G01X982000Y140000D01*
G01X982000Y145000D01*
G01X982000Y150000D01*
G01X982000Y152000D01*
G01X982000Y154545D01*
G01X979454Y158954D01*
G01X978758Y159356D01*
G01X963599Y174514D01*
G01X963599Y179715D01*
G01X961000Y184218D01*
G01X961000Y189218D01*
G01X961000Y194218D01*
G01X961000Y199218D01*
G01X961000Y204218D01*
G01X961000Y209218D01*
G01X961000Y214218D01*
G01X961000Y219218D01*
G01X961000Y224218D01*
G01X961000Y229218D01*
G01X961000Y234218D01*
G01X961000Y239218D01*
G01X961000Y244218D01*
G01X961000Y249218D01*
G01X961000Y254218D01*
G01X961000Y259218D01*
G01X961000Y264218D01*
G01X961000Y269218D01*
G01X961000Y274218D01*
G01X961000Y279218D01*
G01X961000Y284218D01*
G01X961000Y289218D01*
G01X961000Y294218D01*
G01X961000Y299218D01*
G01X961000Y304218D01*
G01X961000Y309218D01*
G01X961000Y314218D01*
G01X961000Y319218D01*
G01X961000Y324218D01*
G01X961000Y329218D01*
G01X961000Y334218D01*
G01X961000Y339218D01*
G01X961000Y344218D01*
G01X961000Y349218D01*
G01X961000Y354218D01*
G01X961000Y359218D01*
G01X961000Y364218D01*
G01X961000Y369218D01*
G01X961000Y374218D01*
G01X961000Y379218D01*
G01X961000Y384218D01*
G01X961000Y389218D01*
G01X961000Y394218D01*
G01X961000Y399218D01*
G01X961000Y404218D01*
G01X961000Y409218D01*
G01X961000Y414218D01*
G01X961000Y419218D01*
G01X961000Y424218D01*
G01X961000Y429218D01*
G01X961000Y434218D01*
G01X961000Y439218D01*
G01X961000Y444218D01*
G01X961000Y449218D01*
G01X961000Y454218D01*
G01X961000Y459218D01*
G01X961000Y464218D01*
G01X961000Y469218D01*
G01X961000Y474218D01*
G01X961000Y479218D01*
G01X961000Y484218D01*
G01X961000Y489218D01*
G01X961000Y494218D01*
G01X961000Y499218D01*
G01X961000Y504218D01*
G01X961000Y509218D01*
G01X961000Y514218D01*
G01X961000Y519218D01*
G01X961000Y524218D01*
G01X961000Y529218D01*
G01X961000Y534218D01*
G01X961000Y539218D01*
G01X961000Y544218D01*
G01X961000Y549218D01*
G01X961000Y554218D01*
G01X961000Y559218D01*
G01X961000Y564218D01*
G01X961000Y569218D01*
G01X961000Y574218D01*
G01X961000Y579218D01*
G01X961000Y584218D01*
G01X961000Y588000D01*
G01X973000Y588000D01*
G01X973000Y605000D01*
G01X973000Y622000D01*
G01X948000Y622000D01*
G01X948000Y667000D01*
G01X958500Y667000D01*
G01X958500Y684000D01*
G01X958500Y701000D01*
G01X924500Y701000D01*
G01X924500Y684000D01*
G01X924500Y667000D01*
G01X929000Y667000D01*
G01X929000Y662000D01*
G01X929000Y657000D01*
G01X929000Y652000D01*
G01X929000Y647000D01*
G01X929000Y642000D01*
G01X929000Y637000D01*
G01X929000Y632000D01*
G01X929000Y627000D01*
G01X929000Y622000D01*
G01X929000Y617000D01*
G01X929000Y612000D01*
G01X929000Y607000D01*
G01X929000Y602000D01*
G01X929000Y597000D01*
G01X929000Y592000D01*
G01X929000Y588849D01*
G01X926765Y588849D01*
G01X918599Y597014D01*
G01X918599Y605715D01*
G01X913883Y613883D01*
G01X907500Y617569D01*
G01X907500Y631000D01*
G01X907500Y648000D01*
G01X887114Y648000D01*
G01X880100Y655014D01*
G01X880100Y664162D01*
G01X883300Y666009D01*
G01X891284Y661400D01*
G01X900715Y661400D01*
G01X908883Y666116D01*
G01X913599Y674284D01*
G01X913599Y683715D01*
G01X908883Y691883D01*
G01X900715Y696599D01*
G01X891284Y696599D01*
G01X883300Y691990D01*
G01X875315Y696599D01*
G01X865884Y696599D01*
G01X857716Y691883D01*
G01X853000Y683715D01*
G01X853000Y674284D01*
G01X857716Y666116D01*
G01X861100Y664162D01*
G01X861100Y653445D01*
G01X861100Y650900D01*
G01X861100Y648354D01*
G01X863645Y643945D01*
G01X864341Y643543D01*
G01X873500Y634385D01*
G01X873500Y631000D01*
G01X873500Y618599D01*
G01X870884Y618599D01*
G01X862716Y613883D01*
G01X858000Y605715D01*
G01X858000Y596284D01*
G01X862716Y588116D01*
G01X870884Y583400D01*
G01X879585Y583400D01*
G01X896303Y566681D01*
G01X892554Y562932D01*
G01X887415Y565899D01*
G01X877984Y565899D01*
G01X870000Y561290D01*
G01X862015Y565899D01*
G01X852584Y565899D01*
G01X844416Y561183D01*
G01X842462Y557800D01*
G01X834254Y557800D01*
G01X829845Y555254D01*
G01X829443Y554558D01*
G01X815741Y540856D01*
G01X815045Y540454D01*
G01X812500Y536045D01*
G01X812500Y530954D01*
G01X812500Y525954D01*
G01X812500Y520954D01*
G01X812500Y515954D01*
G01X812500Y510954D01*
G01X812500Y505954D01*
G01X812500Y500954D01*
G01X812500Y495954D01*
G01X812500Y490954D01*
G01X812500Y485954D01*
G01X812500Y480954D01*
G01X812500Y475954D01*
G01X812500Y470954D01*
G01X812500Y465954D01*
G01X812500Y460954D01*
G01X812500Y455954D01*
G01X812500Y450954D01*
G01X812500Y445954D01*
G01X812500Y440954D01*
G01X812500Y435954D01*
G01X812500Y431500D01*
G01X810000Y431500D01*
G01X810000Y438500D01*
G01X776000Y438500D01*
G01X776000Y421500D01*
G01X776000Y419000D01*
G01X749000Y419000D01*
G01X749000Y411500D01*
G01X744000Y411500D01*
G01X739000Y411500D01*
G01X734000Y411500D01*
G01X729000Y411500D01*
G01X724000Y411500D01*
G01X719000Y411500D01*
G01X714000Y411500D01*
G01X709000Y411500D01*
G01X704000Y411500D01*
G01X699000Y411500D01*
G01X694000Y411500D01*
G01X689000Y411500D01*
G01X684000Y411500D01*
G01X679000Y411500D01*
G01X674000Y411500D01*
G01X669000Y411500D01*
G01X664000Y411500D01*
G01X659000Y411500D01*
G01X656620Y411500D01*
G01X662883Y415116D01*
G01X664837Y418500D01*
G01X706545Y418500D01*
G01X710954Y421045D01*
G01X711356Y421741D01*
G01X720614Y431000D01*
G01X739500Y431000D01*
G01X739500Y448000D01*
G01X739500Y465000D01*
G01X732493Y465000D01*
G01X732493Y465327D01*
G01X766500Y465357D01*
G01X766500Y458000D01*
G01X800500Y458000D01*
G01X800500Y475000D01*
G01X800500Y492000D01*
G01X782500Y492000D01*
G01X782500Y506000D01*
G01X782500Y523000D01*
G01X778500Y523000D01*
G01X778500Y561385D01*
G01X800514Y583400D01*
G01X804115Y583400D01*
G01X812100Y588009D01*
G01X820084Y583400D01*
G01X829515Y583400D01*
G01X837683Y588116D01*
G01X842399Y596284D01*
G01X842399Y605715D01*
G01X837683Y613883D01*
G01X832000Y617165D01*
G01X832000Y665721D01*
G01X832683Y666116D01*
G01X837399Y674284D01*
G01X837399Y683715D01*
G01X832683Y691883D01*
G01X824515Y696599D01*
G01X815084Y696599D01*
G01X807100Y691990D01*
G01X799115Y696599D01*
G01X789684Y696599D01*
G01X781700Y691990D01*
G01X773715Y696599D01*
G01X764284Y696599D01*
G01X756116Y691883D01*
G01X751400Y683715D01*
G01X751400Y674284D01*
G01X751681Y673796D01*
G01X731885Y654000D01*
G01X723000Y654000D01*
G01X723000Y660500D01*
G01X730000Y660500D01*
G01X730000Y677500D01*
G01X730000Y694500D01*
G01X696000Y694500D01*
G01X696000Y687000D01*
G01X665254Y687000D01*
G01X660845Y684454D01*
G01X660443Y683758D01*
G01X653985Y677299D01*
G01X645284Y677299D01*
G01X637300Y672690D01*
G01X629315Y677299D01*
G01X619884Y677299D01*
G01X611900Y672690D01*
G01X603915Y677299D01*
G01X594484Y677299D01*
G01X586316Y672583D01*
G01X581600Y664415D01*
G01X581600Y654984D01*
G01X586316Y646816D01*
G01X594484Y642100D01*
G01X603915Y642100D01*
G01X611900Y646709D01*
G01X619884Y642100D01*
G01X628885Y642100D01*
G01X622785Y636000D01*
G01X617785Y636000D01*
G01X612785Y636000D01*
G01X607785Y636000D01*
G01X602785Y636000D01*
G01X597785Y636000D01*
G01X592785Y636000D01*
G01X587785Y636000D01*
G01X582785Y636000D01*
G01X577785Y636000D01*
G01X572785Y636000D01*
G01X567785Y636000D01*
G01X562785Y636000D01*
G01X557785Y636000D01*
G01X552785Y636000D01*
G01X547785Y636000D01*
G01X542785Y636000D01*
G01X537785Y636000D01*
G01X532785Y636000D01*
G01X527785Y636000D01*
G01X522785Y636000D01*
G01X517785Y636000D01*
G01X515154Y636000D01*
G01X510745Y633454D01*
G01X510343Y632758D01*
G01X476185Y598599D01*
G01X467484Y598599D01*
G01X464000Y596588D01*
G01X464000Y612485D01*
G01X493614Y642100D01*
G01X502315Y642100D01*
G01X510300Y646709D01*
G01X518284Y642100D01*
G01X527715Y642100D01*
G01X535883Y646816D01*
G01X540599Y654984D01*
G01X540599Y664415D01*
G01X535883Y672583D01*
G01X527715Y677299D01*
G01X518284Y677299D01*
G01X510300Y672690D01*
G01X502315Y677299D01*
G01X492884Y677299D01*
G01X484900Y672690D01*
G01X476915Y677299D01*
G01X467484Y677299D01*
G01X459316Y672583D01*
G01X454600Y664415D01*
G01X454600Y655714D01*
G01X438241Y639356D01*
G01X437545Y638954D01*
G01X435000Y634545D01*
G01X435000Y629454D01*
G01X435000Y624454D01*
G01X435000Y619454D01*
G01X435000Y614454D01*
G01X435000Y609454D01*
G01X435000Y604454D01*
G01X435000Y599454D01*
G01X435000Y594454D01*
G01X435000Y589454D01*
G01X435000Y584454D01*
G01X435000Y579454D01*
G01X435000Y574454D01*
G01X435000Y569454D01*
G01X435000Y564454D01*
G01X435000Y561891D01*
G01X432654Y565954D01*
G01X431958Y566356D01*
G01X417800Y580514D01*
G01X417800Y585514D01*
G01X417800Y590514D01*
G01X417800Y595514D01*
G01X417800Y600514D01*
G01X417800Y605514D01*
G01X417800Y610514D01*
G01X417800Y615514D01*
G01X417800Y620514D01*
G01X417800Y625514D01*
G01X417800Y630514D01*
G01X417800Y635514D01*
G01X417800Y640514D01*
G01X417800Y645514D01*
G01X417800Y650514D01*
G01X417800Y655514D01*
G01X417800Y660514D01*
G01X417800Y665514D01*
G01X417800Y670514D01*
G01X417800Y675162D01*
G01X421183Y677116D01*
G01X425899Y685284D01*
G01X425899Y694715D01*
G01X421183Y702883D01*
G01X413015Y707599D01*
G01X413015Y707599D01*
G01X403584Y707599D01*
G01X395650Y703018D01*
G01X387715Y707599D01*
G01X378284Y707599D01*
G01X370500Y703105D01*
G01X362715Y707599D01*
G01X353284Y707599D01*
G01X345250Y702961D01*
G01X337215Y707599D01*
G01X327784Y707599D01*
G01X319616Y702883D01*
G01X317662Y699500D01*
G01X299454Y699500D01*
G01X298631Y699024D01*
G01X290048Y696164D01*
G01X287215Y697799D01*
G01X277784Y697799D01*
G01X269616Y693083D01*
G01X264900Y684915D01*
G01X264900Y675484D01*
G01X269509Y667500D01*
G01X264900Y659515D01*
G01X264900Y650084D01*
G01X269509Y642100D01*
G01X264900Y634115D01*
G01X264900Y624684D01*
G01X269509Y616700D01*
G01X264900Y608715D01*
G01X264900Y599284D01*
G01X269509Y591300D01*
G01X264900Y583315D01*
G01X264900Y573884D01*
G01X269509Y565900D01*
G01X264900Y557915D01*
G01X264900Y548484D01*
G01X269509Y540500D01*
G01X264900Y532515D01*
G01X264900Y523084D01*
G01X269509Y515100D01*
G01X264900Y507115D01*
G01X264900Y497684D01*
G01X269509Y489700D01*
G01X264900Y481715D01*
G01X264900Y473014D01*
G01X264900Y473014D01*
G01X261363Y469478D01*
G01X257828Y465943D01*
G01X254293Y462407D01*
G01X250757Y458872D01*
G01X247222Y455337D01*
G01X243686Y451801D01*
G01X240151Y448266D01*
G01X236615Y444730D01*
G01X233080Y441194D01*
G01X228385Y436500D01*
G01X223385Y436500D01*
G01X218385Y436500D01*
G01X213385Y436500D01*
G01X208385Y436500D01*
G01X203385Y436500D01*
G01X198385Y436500D01*
G01X193385Y436500D01*
G01X188385Y436500D01*
G01X183385Y436500D01*
G01X178385Y436500D01*
G01X173385Y436500D01*
G01X168385Y436500D01*
G01X163385Y436500D01*
G01X158385Y436500D01*
G01X155537Y436500D01*
G01X153690Y439700D01*
G01X158299Y447684D01*
G01X158299Y457115D01*
G01X153690Y465100D01*
G01X158299Y473084D01*
G01X158299Y482515D01*
G01X153690Y490500D01*
G01X155537Y493700D01*
G01X190700Y493700D01*
G01X193116Y489516D01*
G01X201284Y484800D01*
G01X210715Y484800D01*
G01X218883Y489516D01*
G01X223599Y497684D01*
G01X223599Y507115D01*
G01X218990Y515100D01*
G01X223599Y523084D01*
G01X223599Y532515D01*
G01X218990Y540500D01*
G01X223599Y548484D01*
G01X223599Y557915D01*
G01X218990Y565900D01*
G01X223599Y573884D01*
G01X223599Y583315D01*
G01X218990Y591300D01*
G01X223599Y599284D01*
G01X223599Y608715D01*
G01X218990Y616700D01*
G01X223599Y624684D01*
G01X223599Y634115D01*
G01X218990Y642100D01*
G01X223599Y650084D01*
G01X223599Y659515D01*
G01X218990Y667500D01*
G01X223599Y675484D01*
G01X223599Y684915D01*
G01X218883Y693083D01*
G01X210715Y697799D01*
G01X201284Y697799D01*
G01X193116Y693083D01*
G01X191624Y690500D01*
G01X155537Y690500D01*
G01X153583Y693883D01*
G01X145415Y698599D01*
G01X135984Y698599D01*
G01X127816Y693883D01*
G01X123100Y685715D01*
G01X123100Y676284D01*
G01X127709Y668300D01*
G01X123100Y660315D01*
G01X123100Y650884D01*
G01X127709Y642900D01*
G01X123100Y634915D01*
G01X123100Y625484D01*
G01X127709Y617500D01*
G01X123100Y609515D01*
G01X123100Y600084D01*
G01X127709Y592100D01*
G01X123100Y584115D01*
G01X123100Y574684D01*
G01X127709Y566700D01*
G01X123100Y558715D01*
G01X123100Y549284D01*
G01X127709Y541300D01*
G01X123100Y533315D01*
G01X123100Y523884D01*
G01X127709Y515900D01*
G01X123100Y507915D01*
G01X123100Y498484D01*
G01X127709Y490500D01*
G01X123100Y482515D01*
G01X123100Y473084D01*
G01X127709Y465100D01*
G01X123100Y457115D01*
G01X123100Y453314D01*
G01X92356Y484058D01*
G01X91954Y484754D01*
G01X87545Y487300D01*
G01X76837Y487300D01*
G01X74990Y490500D01*
G01X79599Y498484D01*
G01X79599Y507915D01*
G01X74990Y515900D01*
G01X79599Y523884D01*
G01X79599Y533315D01*
G01X74990Y541300D01*
G01X79599Y549284D01*
G01X79599Y558715D01*
G01X74990Y566700D01*
G01X79599Y574684D01*
G01X79599Y584115D01*
G01X74990Y592100D01*
G01X79599Y600084D01*
G01X79599Y609515D01*
G01X74990Y617500D01*
G01X79599Y625484D01*
G01X79599Y634915D01*
G01X74990Y642900D01*
G01X79599Y650884D01*
G01X79599Y660315D01*
G01X74990Y668300D01*
G01X79599Y676284D01*
G01X79599Y685715D01*
G01X74883Y693883D01*
G01X66715Y698599D01*
G01X57284Y698599D01*
G01X49116Y693883D01*
G01X47162Y690500D01*
G01X39837Y690500D01*
G01X37883Y693883D01*
G01X29715Y698599D01*
G01X20284Y698599D01*
G01X12116Y693883D01*
G01X7400Y685715D01*
G01X7400Y676284D01*
G01X12038Y668250D01*
G01X7400Y660215D01*
G01X7400Y650784D01*
G01X11875Y643033D01*
G01X11616Y642883D01*
G01X6900Y634715D01*
G01X6900Y625284D01*
G01X11394Y617500D01*
G01X6900Y609715D01*
G01X6900Y600284D01*
G01X11538Y592250D01*
G01X6900Y584215D01*
G01X6900Y574784D01*
G01X11538Y566750D01*
G01X6900Y558715D01*
G01X6900Y549284D01*
G01X11538Y541250D01*
G01X6900Y533215D01*
G01X2000Y532000D01*
G01X2000Y537000D01*
G01X2000Y542000D01*
G01X2000Y547000D01*
G01X2000Y552000D01*
G01X2000Y557000D01*
G01X2000Y562000D01*
G01X2000Y567000D01*
G01X2000Y572000D01*
G01X2000Y577000D01*
G01X2000Y582000D01*
G01X2000Y587000D01*
G01X2000Y592000D01*
G01X2000Y597000D01*
G01X2000Y602000D01*
G01X2000Y607000D01*
G01X2000Y612000D01*
G01X2000Y617000D01*
G01X2000Y622000D01*
G01X2000Y627000D01*
G01X2000Y632000D01*
G01X2000Y637000D01*
G01X2000Y642000D01*
G01X2000Y647000D01*
G01X2000Y652000D01*
G01X2000Y657000D01*
G01X2000Y662000D01*
G01X2000Y667000D01*
G01X2000Y672000D01*
G01X2000Y677000D01*
G01X2000Y682000D01*
G01X2000Y687000D01*
G01X2000Y692000D01*
G01X2000Y697000D01*
G01X2000Y702000D01*
G01X2000Y707000D01*
G01X2000Y712000D01*
G01X2000Y717000D01*
G01X2000Y722000D01*
G01X2000Y727000D01*
G01X2000Y732000D01*
G01X2000Y737000D01*
G01X2000Y742000D01*
G01X2000Y747000D01*
G01X2000Y748000D01*
G01X7000Y748000D01*
G01X12000Y748000D01*
G01X17000Y748000D01*
G01X22000Y748000D01*
G01X27000Y748000D01*
G01X32000Y748000D01*
G01X37000Y748000D01*
G01X42000Y748000D01*
G01X47000Y748000D01*
G01X52000Y748000D01*
G01X57000Y748000D01*
G01X62000Y748000D01*
G01X67000Y748000D01*
G01X72000Y748000D01*
G01X77000Y748000D01*
G01X82000Y748000D01*
G01X87000Y748000D01*
G01X92000Y748000D01*
G01X97000Y748000D01*
G01X102000Y748000D01*
G01X107000Y748000D01*
G01X112000Y748000D01*
G01X117000Y748000D01*
G01X122000Y748000D01*
G01X127000Y748000D01*
G01X132000Y748000D01*
G01X137000Y748000D01*
G01X142000Y748000D01*
G01X147000Y748000D01*
G01X152000Y748000D01*
G01X157000Y748000D01*
G01X162000Y748000D01*
G01X167000Y748000D01*
G01X172000Y748000D01*
G01X177000Y748000D01*
G01X182000Y748000D01*
G01X187000Y748000D01*
G01X192000Y748000D01*
G01X197000Y748000D01*
G01X202000Y748000D01*
G01X207000Y748000D01*
G01X212000Y748000D01*
G01X217000Y748000D01*
G01X222000Y748000D01*
G01X227000Y748000D01*
G01X232000Y748000D01*
G01X237000Y748000D01*
G01X242000Y748000D01*
G01X247000Y748000D01*
G01X252000Y748000D01*
G01X257000Y748000D01*
G01X262000Y748000D01*
G01X267000Y748000D01*
G01X272000Y748000D01*
G01X277000Y748000D01*
G01X282000Y748000D01*
G01X287000Y748000D01*
G01X292000Y748000D01*
G01X297000Y748000D01*
G01X302000Y748000D01*
G01X307000Y748000D01*
G01X312000Y748000D01*
G01X317000Y748000D01*
G01X322000Y748000D01*
G01X327000Y748000D01*
G01X332000Y748000D01*
G01X337000Y748000D01*
G01X342000Y748000D01*
G01X347000Y748000D01*
G01X352000Y748000D01*
G01X357000Y748000D01*
G01X362000Y748000D01*
G01X367000Y748000D01*
G01X372000Y748000D01*
G01X377000Y748000D01*
G01X382000Y748000D01*
G01X387000Y748000D01*
G01X392000Y748000D01*
G01X397000Y748000D01*
G01X402000Y748000D01*
G01X407000Y748000D01*
G01X412000Y748000D01*
G01X417000Y748000D01*
G01X422000Y748000D01*
G01X427000Y748000D01*
G01X432000Y748000D01*
G01X437000Y748000D01*
G01X442000Y748000D01*
G01X447000Y748000D01*
G01X452000Y748000D01*
G01X457000Y748000D01*
G01X462000Y748000D01*
G01X467000Y748000D01*
G01X472000Y748000D01*
G01X477000Y748000D01*
G01X482000Y748000D01*
G01X487000Y748000D01*
G01X492000Y748000D01*
G01X497000Y748000D01*
G01X502000Y748000D01*
G01X507000Y748000D01*
G01X512000Y748000D01*
G01X517000Y748000D01*
G01X522000Y748000D01*
G01X527000Y748000D01*
G01X532000Y748000D01*
G01X537000Y748000D01*
G01X542000Y748000D01*
G01X547000Y748000D01*
G01X552000Y748000D01*
G01X557000Y748000D01*
G01X562000Y748000D01*
G01X567000Y748000D01*
G01X572000Y748000D01*
G01X577000Y748000D01*
G01X582000Y748000D01*
G01X587000Y748000D01*
G01X592000Y748000D01*
G01X597000Y748000D01*
G01X602000Y748000D01*
G01X607000Y748000D01*
G01X612000Y748000D01*
G01X617000Y748000D01*
G01X622000Y748000D01*
G01X627000Y748000D01*
G01X632000Y748000D01*
G01X637000Y748000D01*
G01X642000Y748000D01*
G01X647000Y748000D01*
G01X652000Y748000D01*
G01X657000Y748000D01*
G01X662000Y748000D01*
G01X667000Y748000D01*
G01X672000Y748000D01*
G01X677000Y748000D01*
G01X682000Y748000D01*
G01X687000Y748000D01*
G01X692000Y748000D01*
G01X697000Y748000D01*
G01X702000Y748000D01*
G01X707000Y748000D01*
G01X712000Y748000D01*
G01X717000Y748000D01*
G01X722000Y748000D01*
G01X727000Y748000D01*
G01X732000Y748000D01*
G01X737000Y748000D01*
G01X742000Y748000D01*
G01X747000Y748000D01*
G01X752000Y748000D01*
G01X757000Y748000D01*
G01X762000Y748000D01*
G01X767000Y748000D01*
G01X772000Y748000D01*
G01X777000Y748000D01*
G01X782000Y748000D01*
G01X787000Y748000D01*
G01X792000Y748000D01*
G01X797000Y748000D01*
G01X802000Y748000D01*
G01X807000Y748000D01*
G01X812000Y748000D01*
G01X817000Y748000D01*
G01X822000Y748000D01*
G01X827000Y748000D01*
G01X832000Y748000D01*
G01X837000Y748000D01*
G01X842000Y748000D01*
G01X847000Y748000D01*
G01X852000Y748000D01*
G01X857000Y748000D01*
G01X862000Y748000D01*
G01X867000Y748000D01*
G01X872000Y748000D01*
G01X877000Y748000D01*
G01X882000Y748000D01*
G01X887000Y748000D01*
G01X892000Y748000D01*
G01X897000Y748000D01*
G01X902000Y748000D01*
G01X907000Y748000D01*
G01X912000Y748000D01*
G01X917000Y748000D01*
G01X922000Y748000D01*
G01X927000Y748000D01*
G01X932000Y748000D01*
G01X937000Y748000D01*
G01X942000Y748000D01*
G01X947000Y748000D01*
G01X952000Y748000D01*
G01X957000Y748000D01*
G01X962000Y748000D01*
G01X967000Y748000D01*
G01X972000Y748000D01*
G01X977000Y748000D01*
G01X982000Y748000D01*
G01X987000Y748000D01*
G01X992000Y748000D01*
G01X997000Y748000D01*
G01X998000Y748000D01*
G01X998000Y743000D01*
G01X998000Y738000D01*
G01X998000Y733000D01*
G01X998000Y728000D01*
G01X998000Y723000D01*
G01X998000Y718000D01*
G01X998000Y713000D01*
G01X998000Y708000D01*
G01X998000Y703000D01*
G01X998000Y698000D01*
G01X998000Y693000D01*
G01X998000Y688000D01*
G01X998000Y683000D01*
G01X998000Y678000D01*
G01X998000Y673000D01*
G01X998000Y668000D01*
G01X998000Y663000D01*
G01X998000Y658000D01*
G01X998000Y653000D01*
G01X998000Y648000D01*
G01X998000Y643000D01*
G01X998000Y638000D01*
G01X998000Y633000D01*
G01X998000Y628000D01*
G01X998000Y623000D01*
G01X998000Y618000D01*
G01X998000Y613000D01*
G01X998000Y608000D01*
G01X998000Y603000D01*
G01X998000Y598000D01*
G01X998000Y593000D01*
G01X998000Y588000D01*
G01X998000Y583000D01*
G01X998000Y578000D01*
G01X998000Y573000D01*
G01X998000Y568000D01*
G01X998000Y563000D01*
G01X998000Y558000D01*
G01X998000Y553000D01*
G01X998000Y548000D01*
G01X998000Y543000D01*
G01X998000Y538000D01*
G01X998000Y533000D01*
G01X998000Y528000D01*
G01X998000Y523000D01*
G01X998000Y518000D01*
G01X998000Y513000D01*
G01X998000Y508000D01*
G01X998000Y503000D01*
G01X998000Y498000D01*
G01X998000Y493000D01*
G01X998000Y488000D01*
G01X998000Y483000D01*
G01X998000Y478000D01*
G01X998000Y473000D01*
G01X998000Y468000D01*
G01X998000Y463000D01*
G01X998000Y458000D01*
G01X998000Y453000D01*
G01X998000Y448000D01*
G01X998000Y443000D01*
G01X998000Y438000D01*
G01X998000Y433000D01*
G01X998000Y428000D01*
G01X998000Y423000D01*
G01X998000Y418000D01*
G01X998000Y413000D01*
G01X998000Y408000D01*
G01X998000Y403000D01*
G01X998000Y398000D01*
G01X998000Y393000D01*
G01X998000Y388000D01*
G01X998000Y383000D01*
G01X998000Y378000D01*
G01X998000Y373000D01*
G01X998000Y368000D01*
G01X998000Y363000D01*
G01X998000Y358000D01*
G01X998000Y353000D01*
G01X998000Y348000D01*
G01X998000Y343000D01*
G01X998000Y338000D01*
G01X998000Y333000D01*
G01X998000Y328000D01*
G01X998000Y323000D01*
G01X998000Y318000D01*
G01X998000Y313000D01*
G01X998000Y308000D01*
G01X998000Y303000D01*
G01X998000Y298000D01*
G01X998000Y293000D01*
G01X998000Y288000D01*
G01X998000Y283000D01*
G01X998000Y278000D01*
G01X998000Y273000D01*
G01X998000Y268000D01*
G01X998000Y263000D01*
G01X998000Y258000D01*
G01X998000Y253000D01*
G01X998000Y248000D01*
G01X998000Y243000D01*
G01X998000Y238000D01*
G01X998000Y233000D01*
G01X998000Y228000D01*
G01X998000Y223000D01*
G01X998000Y218000D01*
G01X998000Y213000D01*
G01X998000Y208000D01*
G01X998000Y203000D01*
G01X998000Y198000D01*
G01X998000Y193000D01*
G01X998000Y188000D01*
G01X998000Y183000D01*
G01X998000Y178000D01*
G01X998000Y173000D01*
G01X998000Y168000D01*
G01X998000Y163000D01*
G01X998000Y158000D01*
G01X998000Y153000D01*
G01X998000Y148000D01*
G01X998000Y143000D01*
G01X998000Y138000D01*
G01X998000Y133000D01*
G01X998000Y128000D01*
G01X998000Y123000D01*
G01X998000Y118000D01*
G01X998000Y113000D01*
G01X998000Y108000D01*
G01X998000Y103000D01*
G01X998000Y98000D01*
G01X998000Y93000D01*
G01X998000Y88000D01*
G01X998000Y83000D01*
G01X998000Y78000D01*
G01X998000Y73000D01*
G01X998000Y68000D01*
G01X998000Y63000D01*
G01X998000Y58000D01*
G01X998000Y53000D01*
G01X998000Y48000D01*
G01X998000Y43000D01*
G01X998000Y38000D01*
G01X998000Y33000D01*
G01X998000Y28000D01*
G01X998000Y23000D01*
G01X998000Y18000D01*
G01X998000Y13000D01*
G01X998000Y8000D01*
G01X998000Y3000D01*
G01X998000Y2000D01*
G01X998000Y2000D01*
G37*
M2*
