M48
METRIC,TZ
FMAT,2
ICI,OFF
T01C0.80
M71%
T01
X0857300Y0548300
X0857300Y0522900
X0857300Y0497500
X0857300Y0472100
X0857300Y0446700
X0857300Y0421300
X0857300Y0395900
X0857300Y0370500
X0857300Y0345100
X0857300Y0319700
X0857300Y0294300
X0857300Y0268900
X0857300Y0243500
X0857300Y0218100
X0857300Y0192700
X0857300Y0167300
X0857300Y0141900
X0857300Y0116500
X0857300Y0091100
X0857300Y0065700
X0882700Y0548300
X0882700Y0522900
X0882700Y0497500
X0882700Y0472100
X0882700Y0446700
X0882700Y0421300
X0882700Y0395900
X0882700Y0370500
X0882700Y0345100
X0882700Y0319700
X0882700Y0294300
X0882700Y0268900
X0882700Y0243500
X0882700Y0218100
X0882700Y0192700
X0882700Y0167300
X0882700Y0141900
X0882700Y0116500
X0882700Y0091100
X0882700Y0065700
X0762000Y0150000
X0762000Y0124600
X0762000Y0099200
X0762000Y0073800
X0762000Y0048400
X0040000Y0234300
X0040000Y0259700
X0041000Y0142300
X0041000Y0167700
X0040000Y0057300
X0040000Y0082700
X0650000Y0428000
X0624600Y0428000
X0599200Y0428000
X0573800Y0428000
X0548400Y0428000
X0523000Y0428000
X0497600Y0428000
X0472200Y0428000
X0650000Y0506700
X0624600Y0506700
X0599200Y0506700
X0573800Y0506700
X0548400Y0506700
X0523000Y0506700
X0497600Y0506700
X0472200Y0506700
X0650000Y0581000
X0624600Y0581000
X0599200Y0581000
X0573800Y0581000
X0548400Y0581000
X0523000Y0581000
X0497600Y0581000
X0472200Y0581000
X0650000Y0659700
X0624600Y0659700
X0599200Y0659700
X0573800Y0659700
X0548400Y0659700
X0523000Y0659700
X0497600Y0659700
X0472200Y0659700
X0409000Y0091000
X0409000Y0065600
X0409000Y0040200
X0490000Y0091000
X0490000Y0065600
X0490000Y0040200
X0569000Y0091000
X0569000Y0065600
X0569000Y0040200
X0896000Y0679000
X0870600Y0679000
X0845200Y0679000
X0819800Y0679000
X0794400Y0679000
X0769000Y0679000
X0901000Y0601000
X0875600Y0601000
X0850200Y0601000
X0824800Y0601000
X0799400Y0601000
X0774000Y0601000
X0062000Y0681000
X0062000Y0655600
X0062000Y0630200
X0062000Y0604800
X0062000Y0579400
X0062000Y0554000
X0062000Y0528600
X0062000Y0503200
X0062000Y0477800
X0062000Y0452400
X0062000Y0427000
X0062000Y0401600
X0062000Y0376200
X0062000Y0350800
X0140700Y0681000
X0140700Y0655600
X0140700Y0630200
X0140700Y0604800
X0140700Y0579400
X0140700Y0554000
X0140700Y0528600
X0140700Y0503200
X0140700Y0477800
X0140700Y0452400
X0140700Y0427000
X0140700Y0401600
X0140700Y0376200
X0140700Y0350800
X0206000Y0477000
X0206000Y0502400
X0206000Y0527800
X0206000Y0553200
X0206000Y0578600
X0206000Y0604000
X0206000Y0629400
X0206000Y0654800
X0206000Y0680200
X0282500Y0477000
X0282500Y0502400
X0282500Y0527800
X0282500Y0553200
X0282500Y0578600
X0282500Y0604000
X0282500Y0629400
X0282500Y0654800
X0282500Y0680200
X0071000Y0275000
X0096400Y0275000
X0121800Y0275000
X0147200Y0275000
X0172600Y0275000
X0198000Y0275000
X0223400Y0275000
X0248800Y0275000
X0274200Y0275000
X0071000Y0198500
X0096400Y0198500
X0121800Y0198500
X0147200Y0198500
X0172600Y0198500
X0198000Y0198500
X0223400Y0198500
X0248800Y0198500
X0274200Y0198500
X0648000Y0091000
X0648000Y0065600
X0648000Y0040200
X0398000Y0145000
X0398000Y0170400
X0398000Y0195800
X0398000Y0221200
X0398000Y0246600
X0398000Y0272000
X0398000Y0297400
X0398000Y0322800
X0476740Y0145000
X0476740Y0170400
X0476740Y0195800
X0476740Y0221200
X0476740Y0246600
X0476740Y0272000
X0476700Y0297400
X0476700Y0322800
X0684500Y0356500
X0659100Y0356500
X0633700Y0356500
X0608300Y0356500
X0582900Y0356500
X0557500Y0356500
X0684500Y0223500
X0659100Y0223500
X0633700Y0223500
X0608300Y0223500
X0582900Y0223500
X0557500Y0223500
X0071000Y0131000
X0096400Y0131000
X0121800Y0131000
X0147200Y0131000
X0172600Y0131000
X0198000Y0131000
X0223400Y0131000
X0248800Y0131000
X0274200Y0131000
X0071000Y0054500
X0096400Y0054500
X0121800Y0054500
X0147200Y0054500
X0172600Y0054500
X0198000Y0054500
X0223400Y0054500
X0248800Y0054500
X0274200Y0054500
X0946000Y0175000
X0946000Y0149600
X0946000Y0124200
X0946000Y0098800
X0946000Y0073400
X0408300Y0690000
X0433700Y0690000
X0722500Y0448000
X0362000Y0435000
X0362000Y0323000
X0766000Y0402000
X0765500Y0506000
X0024500Y0528500
X0572500Y0150500
X0383000Y0690000
X0048500Y0297500
X0800500Y0269000
X0608500Y0065500
X0024500Y0503500
X0362000Y0196000
X0327000Y0590500
X0323500Y0345000
X0800500Y0297000
X0890500Y0631000
X0229500Y0349000
X0801500Y0324500
X0466000Y0369000
X0408000Y0539000
X0024500Y0554000
X0358000Y0690000
X0706500Y0169000
X0613000Y0453500
X0362000Y0221000
X0531500Y0065500
X0362000Y0297000
X0713000Y0677500
X0941500Y0684000
X0450500Y0065500
X0721000Y0557500
X0369500Y0065500
X0024500Y0478500
X0362000Y0272000
X0426500Y0595000
X0025000Y0681000
X0332500Y0690000
X0025000Y0655500
X0362000Y0246000
X0024500Y0630000
X0793000Y0421500
X0024500Y0605000
X0695000Y0125500
X0379500Y0526000
X0783500Y0475000
X0024500Y0579500
X0548000Y0466000
X0687500Y0513000
X0344000Y0503000
X0344000Y0135500
X0725000Y0072000
X0362000Y0171000
X0956000Y0605000
M30
