*
%LPD*%
%LN_top_copper*%
%FSLAX34Y34*%
%MOMM*%
%OFA0B0*%
%AD*%
%ADD020C,2.0000*%
%ADD021C,0.5000*%
%ADD022R,2.0000X2.0000*%
G54D20*
G01X857300Y548300D03*
G01X857300Y522900D03*
G01X857300Y497500D03*
G01X857300Y472100D03*
G01X857300Y446700D03*
G01X857300Y421300D03*
G01X857300Y395900D03*
G01X857300Y370500D03*
G01X857300Y345100D03*
G01X857300Y319700D03*
G01X857300Y294300D03*
G01X857300Y268900D03*
G01X857300Y243500D03*
G01X857300Y218100D03*
G01X857300Y192700D03*
G01X857300Y167300D03*
G01X857300Y141900D03*
G01X857300Y116500D03*
G01X857300Y91100D03*
G01X857300Y65700D03*
G01X882700Y548300D03*
G01X882700Y522900D03*
G01X882700Y497500D03*
G01X882700Y472100D03*
G01X882700Y446700D03*
G01X882700Y421300D03*
G01X882700Y395900D03*
G01X882700Y370500D03*
G01X882700Y345100D03*
G01X882700Y319700D03*
G01X882700Y294300D03*
G01X882700Y268900D03*
G01X882700Y243500D03*
G01X882700Y218100D03*
G01X882700Y192700D03*
G01X882700Y167300D03*
G01X882700Y141900D03*
G01X882700Y116500D03*
G01X882700Y91100D03*
G01X882700Y65700D03*
G01X762000Y150000D03*
G01X762000Y124600D03*
G01X762000Y99200D03*
G01X762000Y73800D03*
G01X762000Y48400D03*
G01X40000Y234300D03*
G01X40000Y259700D03*
G01X41000Y142300D03*
G01X41000Y167700D03*
G01X40000Y57300D03*
G01X40000Y82700D03*
G01X650000Y428000D03*
G01X624600Y428000D03*
G01X599200Y428000D03*
G01X573800Y428000D03*
G01X548400Y428000D03*
G01X523000Y428000D03*
G01X497600Y428000D03*
G01X472200Y428000D03*
G01X650000Y506700D03*
G01X624600Y506700D03*
G01X599200Y506700D03*
G01X573800Y506700D03*
G01X548400Y506700D03*
G01X523000Y506700D03*
G01X497600Y506700D03*
G01X472200Y506700D03*
G01X650000Y581000D03*
G01X624600Y581000D03*
G01X599200Y581000D03*
G01X573800Y581000D03*
G01X548400Y581000D03*
G01X523000Y581000D03*
G01X497600Y581000D03*
G01X472200Y581000D03*
G01X650000Y659700D03*
G01X624600Y659700D03*
G01X599200Y659700D03*
G01X573800Y659700D03*
G01X548400Y659700D03*
G01X523000Y659700D03*
G01X497600Y659700D03*
G01X472200Y659700D03*
G01X409000Y91000D03*
G01X409000Y65600D03*
G01X409000Y40200D03*
G01X490000Y91000D03*
G01X490000Y65600D03*
G01X490000Y40200D03*
G01X569000Y91000D03*
G01X569000Y65600D03*
G01X569000Y40200D03*
G01X896000Y679000D03*
G01X870600Y679000D03*
G01X845200Y679000D03*
G01X819800Y679000D03*
G01X794400Y679000D03*
G01X769000Y679000D03*
G01X901000Y601000D03*
G01X875600Y601000D03*
G01X850200Y601000D03*
G01X824800Y601000D03*
G01X799400Y601000D03*
G01X774000Y601000D03*
G01X62000Y681000D03*
G01X62000Y655600D03*
G01X62000Y630200D03*
G01X62000Y604800D03*
G01X62000Y579400D03*
G01X62000Y554000D03*
G01X62000Y528600D03*
G01X62000Y503200D03*
G01X62000Y477800D03*
G01X62000Y452400D03*
G01X62000Y427000D03*
G01X62000Y401600D03*
G01X62000Y376200D03*
G01X62000Y350800D03*
G01X140700Y681000D03*
G01X140700Y655600D03*
G01X140700Y630200D03*
G01X140700Y604800D03*
G01X140700Y579400D03*
G01X140700Y554000D03*
G01X140700Y528600D03*
G01X140700Y503200D03*
G01X140700Y477800D03*
G01X140700Y452400D03*
G01X140700Y427000D03*
G01X140700Y401600D03*
G01X140700Y376200D03*
G01X140700Y350800D03*
G01X206000Y477000D03*
G01X206000Y502400D03*
G01X206000Y527800D03*
G01X206000Y553200D03*
G01X206000Y578600D03*
G01X206000Y604000D03*
G01X206000Y629400D03*
G01X206000Y654800D03*
G01X206000Y680200D03*
G01X282500Y477000D03*
G01X282500Y502400D03*
G01X282500Y527800D03*
G01X282500Y553200D03*
G01X282500Y578600D03*
G01X282500Y604000D03*
G01X282500Y629400D03*
G01X282500Y654800D03*
G01X282500Y680200D03*
G01X71000Y275000D03*
G01X96400Y275000D03*
G01X121800Y275000D03*
G01X147200Y275000D03*
G01X172600Y275000D03*
G01X198000Y275000D03*
G01X223400Y275000D03*
G01X248800Y275000D03*
G01X274200Y275000D03*
G01X71000Y198500D03*
G01X96400Y198500D03*
G01X121800Y198500D03*
G01X147200Y198500D03*
G01X172600Y198500D03*
G01X198000Y198500D03*
G01X223400Y198500D03*
G01X248800Y198500D03*
G01X274200Y198500D03*
G01X648000Y91000D03*
G01X648000Y65600D03*
G01X648000Y40200D03*
G01X398000Y145000D03*
G01X398000Y170400D03*
G01X398000Y195800D03*
G01X398000Y221200D03*
G01X398000Y246600D03*
G01X398000Y272000D03*
G01X398000Y297400D03*
G01X398000Y322800D03*
G01X476740Y145000D03*
G01X476740Y170400D03*
G01X476740Y195800D03*
G01X476740Y221200D03*
G01X476740Y246600D03*
G01X476740Y272000D03*
G01X476700Y297400D03*
G01X476700Y322800D03*
G01X684500Y356500D03*
G01X659100Y356500D03*
G01X633700Y356500D03*
G01X608300Y356500D03*
G01X582900Y356500D03*
G01X557500Y356500D03*
G01X684500Y223500D03*
G01X659100Y223500D03*
G01X633700Y223500D03*
G01X608300Y223500D03*
G01X582900Y223500D03*
G01X557500Y223500D03*
G01X71000Y131000D03*
G01X96400Y131000D03*
G01X121800Y131000D03*
G01X147200Y131000D03*
G01X172600Y131000D03*
G01X198000Y131000D03*
G01X223400Y131000D03*
G01X248800Y131000D03*
G01X274200Y131000D03*
G01X71000Y54500D03*
G01X96400Y54500D03*
G01X121800Y54500D03*
G01X147200Y54500D03*
G01X172600Y54500D03*
G01X198000Y54500D03*
G01X223400Y54500D03*
G01X248800Y54500D03*
G01X274200Y54500D03*
G01X946000Y175000D03*
G01X946000Y149600D03*
G01X946000Y124200D03*
G01X946000Y98800D03*
G01X946000Y73400D03*
G01X408300Y690000D03*
G01X433700Y690000D03*
G01X362000Y323000D03*
G01X24500Y528500D03*
G01X383000Y690000D03*
G01X608500Y65500D03*
G01X24500Y503500D03*
G01X362000Y196000D03*
G01X24500Y554000D03*
G01X358000Y690000D03*
G01X362000Y221000D03*
G01X531500Y65500D03*
G01X362000Y297000D03*
G01X450500Y65500D03*
G01X369500Y65500D03*
G01X24500Y478500D03*
G01X362000Y272000D03*
G01X25000Y681000D03*
G01X332500Y690000D03*
G01X25000Y655500D03*
G01X362000Y246000D03*
G01X24500Y630000D03*
G01X24500Y605000D03*
G01X24500Y579500D03*
G01X362000Y171000D03*
G54D21*
G01X722500Y448000D02*
G01X722500Y525000D01*
G01X722500Y525000D02*
G01X666500Y581000D01*
G01X666500Y581000D02*
G01X650000Y581000D01*
G01X362000Y435000D02*
G01X362000Y577500D01*
G01X362000Y577500D02*
G01X397000Y612500D01*
G01X397000Y612500D02*
G01X618500Y612500D01*
G01X618500Y612500D02*
G01X650000Y581000D01*
G01X765500Y506000D02*
G01X765500Y402500D01*
G01X765500Y402500D02*
G01X766000Y402000D01*
G01X383000Y690000D02*
G01X383000Y689000D01*
G01X383000Y689000D02*
G01X306000Y612000D01*
G01X306000Y612000D02*
G01X306000Y285000D01*
G01X306000Y285000D02*
G01X311000Y280000D01*
G01X572500Y150500D02*
G01X535500Y113500D01*
G01X535500Y113500D02*
G01X335000Y113500D01*
G01X335000Y113500D02*
G01X311000Y137500D01*
G01X311000Y137500D02*
G01X311000Y280000D01*
G01X311000Y280000D02*
G01X293500Y297500D01*
G01X293500Y297500D02*
G01X48500Y297500D01*
G01X800500Y269000D02*
G01X857300Y268900D01*
G01X323500Y345000D02*
G01X323500Y590500D01*
G01X323500Y590500D02*
G01X327000Y590500D01*
G01X800500Y297000D02*
G01X854600Y297000D01*
G01X854600Y297000D02*
G01X857300Y294300D01*
G01X890500Y631000D02*
G01X902000Y631000D01*
G01X902000Y631000D02*
G01X936500Y596500D01*
G01X936500Y596500D02*
G01X936500Y475100D01*
G01X936500Y475100D02*
G01X882700Y421300D01*
G01X229500Y349000D02*
G01X229500Y552000D01*
G01X229500Y552000D02*
G01X281500Y604000D01*
G01X281500Y604000D02*
G01X282500Y604000D01*
G01X96400Y131000D02*
G01X96400Y146000D01*
G01X96400Y146000D02*
G01X22500Y219900D01*
G01X22500Y219900D02*
G01X22500Y303000D01*
G01X22500Y303000D02*
G01X34500Y315000D01*
G01X34500Y315000D02*
G01X236500Y315000D01*
G01X236500Y315000D02*
G01X261500Y340000D01*
G01X261500Y340000D02*
G01X261500Y562250D01*
G01X261500Y562250D02*
G01X277850Y578600D01*
G01X277850Y578600D02*
G01X282500Y578600D01*
G01X857300Y319700D02*
G01X807800Y319700D01*
G01X807800Y319700D02*
G01X803000Y324500D01*
G01X803000Y324500D02*
G01X801500Y324500D01*
G01X762000Y73800D02*
G01X758800Y73800D01*
G01X758800Y73800D02*
G01X735000Y50000D01*
G01X735000Y50000D02*
G01X712000Y50000D01*
G01X712000Y50000D02*
G01X705000Y57000D01*
G01X705000Y57000D02*
G01X705000Y88500D01*
G01X705000Y88500D02*
G01X724000Y107500D01*
G01X724000Y107500D02*
G01X724000Y171100D01*
G01X724000Y171100D02*
G01X771000Y218100D01*
G01X771000Y218100D02*
G01X857300Y218100D01*
G01X857300Y370500D02*
G01X846500Y370500D01*
G01X846500Y370500D02*
G01X832000Y356000D01*
G01X832000Y356000D02*
G01X743000Y356000D01*
G01X743000Y356000D02*
G01X705000Y394000D01*
G01X705000Y394000D02*
G01X705000Y527000D01*
G01X705000Y527000D02*
G01X681000Y551000D01*
G01X681000Y551000D02*
G01X524500Y551000D01*
G01X524500Y551000D02*
G01X497600Y577900D01*
G01X497600Y577900D02*
G01X497600Y581000D01*
G01X466000Y369000D02*
G01X466000Y370500D01*
G01X466000Y370500D02*
G01X408000Y428500D01*
G01X408000Y428500D02*
G01X408000Y539000D01*
G01X882700Y218100D02*
G01X939500Y218100D01*
G01X939500Y218100D02*
G01X963500Y194100D01*
G01X963500Y194100D02*
G01X963500Y60000D01*
G01X963500Y60000D02*
G01X935000Y31500D01*
G01X935000Y31500D02*
G01X829100Y31500D01*
G01X829100Y31500D02*
G01X762000Y98600D01*
G01X762000Y98600D02*
G01X762000Y99200D01*
G01X882700Y268900D02*
G01X929500Y268900D01*
G01X929500Y268900D02*
G01X979000Y219400D01*
G01X979000Y219400D02*
G01X979000Y44500D01*
G01X979000Y44500D02*
G01X953500Y19000D01*
G01X953500Y19000D02*
G01X719500Y19000D01*
G01X719500Y19000D02*
G01X680000Y58500D01*
G01X680000Y58500D02*
G01X680000Y96000D01*
G01X680000Y96000D02*
G01X605600Y170400D01*
G01X605600Y170400D02*
G01X476740Y170400D01*
G01X358000Y690000D02*
G01X358000Y694000D01*
G01X358000Y694000D02*
G01X371500Y707500D01*
G01X371500Y707500D02*
G01X627900Y707500D01*
G01X627900Y707500D02*
G01X812500Y522900D01*
G01X812500Y522900D02*
G01X857300Y522900D01*
G01X62000Y376200D02*
G01X65000Y376200D01*
G01X65000Y376200D02*
G01X97000Y408200D01*
G01X97000Y408200D02*
G01X97000Y668500D01*
G01X97000Y668500D02*
G01X136000Y707500D01*
G01X136000Y707500D02*
G01X345000Y707500D01*
G01X345000Y707500D02*
G01X358000Y694500D01*
G01X358000Y694500D02*
G01X358000Y690000D01*
G01X613000Y453500D02*
G01X605500Y452000D01*
G01X605500Y452000D02*
G01X658500Y452000D01*
G01X658500Y452000D02*
G01X676000Y434500D01*
G01X676000Y434500D02*
G01X676000Y390000D01*
G01X676000Y390000D02*
G01X706500Y359500D01*
G01X706500Y359500D02*
G01X706500Y169000D01*
G01X40000Y234300D02*
G01X40000Y234000D01*
G01X40000Y234000D02*
G01X71000Y203000D01*
G01X71000Y203000D02*
G01X71000Y198500D01*
G01X713000Y677500D02*
G01X737000Y701500D01*
G01X737000Y701500D02*
G01X920500Y701500D01*
G01X920500Y701500D02*
G01X938000Y684000D01*
G01X938000Y684000D02*
G01X941500Y684000D01*
G01X896000Y679000D02*
G01X914000Y679000D01*
G01X914000Y679000D02*
G01X978000Y615000D01*
G01X978000Y615000D02*
G01X978000Y465800D01*
G01X978000Y465800D02*
G01X882700Y370500D01*
G01X721000Y557500D02*
G01X740000Y538500D01*
G01X740000Y538500D02*
G01X740000Y389000D01*
G01X740000Y389000D02*
G01X756500Y372500D01*
G01X756500Y372500D02*
G01X827300Y372500D01*
G01X827300Y372500D02*
G01X850700Y395900D01*
G01X850700Y395900D02*
G01X857300Y395900D01*
G01X721000Y557500D02*
G01X721000Y563300D01*
G01X721000Y563300D02*
G01X624600Y659700D01*
G01X659100Y223500D02*
G01X659100Y356500D01*
G01X548400Y428000D02*
G01X548400Y430100D01*
G01X548400Y430100D02*
G01X530000Y448500D01*
G01X530000Y448500D02*
G01X530000Y488300D01*
G01X530000Y488300D02*
G01X548400Y506700D01*
G01X659100Y356500D02*
G01X659100Y358400D01*
G01X659100Y358400D02*
G01X626500Y391000D01*
G01X626500Y391000D02*
G01X608000Y391000D01*
G01X608000Y391000D02*
G01X573800Y425200D01*
G01X573800Y425200D02*
G01X573800Y428000D01*
G01X548400Y506700D02*
G01X518100Y537000D01*
G01X518100Y537000D02*
G01X484500Y537000D01*
G01X484500Y537000D02*
G01X426500Y595000D01*
G01X206000Y477000D02*
G01X206000Y444150D01*
G01X206000Y444150D02*
G01X163450Y401600D01*
G01X163450Y401600D02*
G01X140700Y401600D01*
G01X946000Y149600D02*
G01X941200Y149600D01*
G01X941200Y149600D02*
G01X882700Y91100D01*
G01X857300Y421300D02*
G01X793000Y421500D01*
G01X946000Y124200D02*
G01X941200Y124200D01*
G01X941200Y124200D02*
G01X882700Y65700D01*
G01X695000Y125500D02*
G01X695000Y130500D01*
G01X695000Y130500D02*
G01X631500Y194000D01*
G01X631500Y194000D02*
G01X555500Y194000D01*
G01X555500Y194000D02*
G01X526500Y223000D01*
G01X526500Y223000D02*
G01X526500Y307500D01*
G01X526500Y307500D02*
G01X487500Y346500D01*
G01X487500Y346500D02*
G01X453000Y346500D01*
G01X453000Y346500D02*
G01X382500Y417000D01*
G01X382500Y417000D02*
G01X382500Y526000D01*
G01X382500Y526000D02*
G01X379500Y526000D01*
G01X783500Y475000D02*
G01X854500Y474900D01*
G01X854500Y474900D02*
G01X857300Y472100D01*
G01X687500Y513000D02*
G01X659000Y471000D01*
G01X659000Y471000D02*
G01X548500Y471000D01*
G01X548500Y471000D02*
G01X548000Y466000D01*
G01X344000Y503000D02*
G01X344500Y503000D01*
G01X344500Y503000D02*
G01X344500Y135500D01*
G01X344500Y135500D02*
G01X344000Y135500D01*
G01X725000Y72000D02*
G01X725000Y73000D01*
G01X725000Y73000D02*
G01X734000Y82000D01*
G01X734000Y82000D02*
G01X734000Y154000D01*
G01X734000Y154000D02*
G01X752500Y172500D01*
G01X752500Y172500D02*
G01X774000Y172500D01*
G01X774000Y172500D02*
G01X798500Y148000D01*
G01X798500Y148000D02*
G01X798500Y80000D01*
G01X798500Y80000D02*
G01X834000Y44500D01*
G01X834000Y44500D02*
G01X924550Y44500D01*
G01X924550Y44500D02*
G01X946000Y65950D01*
G01X946000Y65950D02*
G01X946000Y73400D01*
G01X819800Y679000D02*
G01X819800Y674700D01*
G01X819800Y674700D02*
G01X842000Y652500D01*
G01X842000Y652500D02*
G01X904250Y652500D01*
G01X904250Y652500D02*
G01X951750Y605000D01*
G01X951750Y605000D02*
G01X956000Y605000D01*
G54D22*
G01X722500Y448000D03*
G01X362000Y435000D03*
G01X766000Y402000D03*
G01X765500Y506000D03*
G01X572500Y150500D03*
G01X48500Y297500D03*
G01X800500Y269000D03*
G01X327000Y590500D03*
G01X323500Y345000D03*
G01X800500Y297000D03*
G01X890500Y631000D03*
G01X229500Y349000D03*
G01X801500Y324500D03*
G01X466000Y369000D03*
G01X408000Y539000D03*
G01X706500Y169000D03*
G01X613000Y453500D03*
G01X713000Y677500D03*
G01X941500Y684000D03*
G01X721000Y557500D03*
G01X426500Y595000D03*
G01X793000Y421500D03*
G01X695000Y125500D03*
G01X379500Y526000D03*
G01X783500Y475000D03*
G01X548000Y466000D03*
G01X687500Y513000D03*
G01X344000Y503000D03*
G01X344000Y135500D03*
G01X725000Y72000D03*
G01X956000Y605000D03*
G36*
G01X644777Y677007D02*
G01X637300Y672690D01*
G01X629315Y677299D01*
G01X619884Y677299D01*
G01X611900Y672690D01*
G01X603915Y677299D01*
G01X594484Y677299D01*
G01X586316Y672583D01*
G01X581600Y664415D01*
G01X581600Y654984D01*
G01X586316Y646816D01*
G01X594484Y642100D01*
G01X603915Y642100D01*
G01X611900Y646709D01*
G01X619884Y642100D01*
G01X628585Y642100D01*
G01X666292Y604392D01*
G01X704000Y566685D01*
G01X704000Y557500D01*
G01X704000Y557114D01*
G01X673856Y587258D01*
G01X673454Y587954D01*
G01X669045Y590500D01*
G01X664837Y590500D01*
G01X662883Y593883D01*
G01X654715Y598599D01*
G01X646014Y598599D01*
G01X625856Y618758D01*
G01X625454Y619454D01*
G01X621045Y622000D01*
G01X616045Y622000D01*
G01X611045Y622000D01*
G01X606045Y622000D01*
G01X601045Y622000D01*
G01X596045Y622000D01*
G01X591045Y622000D01*
G01X586045Y622000D01*
G01X581045Y622000D01*
G01X576045Y622000D01*
G01X571045Y622000D01*
G01X566045Y622000D01*
G01X561045Y622000D01*
G01X556045Y622000D01*
G01X551045Y622000D01*
G01X546045Y622000D01*
G01X541045Y622000D01*
G01X536045Y622000D01*
G01X531045Y622000D01*
G01X526045Y622000D01*
G01X521045Y622000D01*
G01X516045Y622000D01*
G01X511045Y622000D01*
G01X506045Y622000D01*
G01X501045Y622000D01*
G01X496045Y622000D01*
G01X491045Y622000D01*
G01X486045Y622000D01*
G01X481045Y622000D01*
G01X476045Y622000D01*
G01X476915Y642100D01*
G01X484900Y646709D01*
G01X492884Y642100D01*
G01X502315Y642100D01*
G01X510300Y646709D01*
G01X518284Y642100D01*
G01X527715Y642100D01*
G01X535883Y646816D01*
G01X540599Y654984D01*
G01X540599Y664415D01*
G01X535883Y672583D01*
G01X527715Y677299D01*
G01X527715Y677299D01*
G01X518284Y677299D01*
G01X510300Y672690D01*
G01X502315Y677299D01*
G01X492884Y677299D01*
G01X484900Y672690D01*
G01X476915Y677299D01*
G01X467484Y677299D01*
G01X459316Y672583D01*
G01X454600Y664415D01*
G01X454600Y654984D01*
G01X459316Y646816D01*
G01X467484Y642100D01*
G01X476915Y642100D01*
G01X476045Y622000D01*
G01X471045Y622000D01*
G01X466045Y622000D01*
G01X461045Y622000D01*
G01X456045Y622000D01*
G01X451045Y622000D01*
G01X446045Y622000D01*
G01X441045Y622000D01*
G01X436045Y622000D01*
G01X431045Y622000D01*
G01X426045Y622000D01*
G01X421045Y622000D01*
G01X416045Y622000D01*
G01X411045Y622000D01*
G01X406045Y622000D01*
G01X401045Y622000D01*
G01X396045Y622000D01*
G01X394454Y622000D01*
G01X390045Y619454D01*
G01X389643Y618758D01*
G01X355741Y584856D01*
G01X355045Y584454D01*
G01X352500Y580045D01*
G01X352500Y574954D01*
G01X352500Y569954D01*
G01X352500Y564954D01*
G01X352500Y559954D01*
G01X352500Y554954D01*
G01X352500Y549954D01*
G01X352500Y544954D01*
G01X352500Y539954D01*
G01X352500Y534954D01*
G01X352500Y529954D01*
G01X352500Y524954D01*
G01X352500Y520000D01*
G01X333000Y520000D01*
G01X333000Y525000D01*
G01X333000Y530000D01*
G01X333000Y535000D01*
G01X333000Y540000D01*
G01X333000Y545000D01*
G01X333000Y550000D01*
G01X333000Y555000D01*
G01X333000Y560000D01*
G01X333000Y565000D01*
G01X333000Y570000D01*
G01X333000Y573500D01*
G01X344000Y573500D01*
G01X344000Y590500D01*
G01X344000Y607500D01*
G01X315500Y607500D01*
G01X315500Y607885D01*
G01X380014Y672400D01*
G01X387715Y672400D01*
G01X395650Y676981D01*
G01X403584Y672400D01*
G01X413015Y672400D01*
G01X421183Y677116D01*
G01X425899Y685284D01*
G01X425899Y694715D01*
G01X424003Y698000D01*
G01X429003Y698000D01*
G01X434003Y698000D01*
G01X439003Y698000D01*
G01X444003Y698000D01*
G01X449003Y698000D01*
G01X454003Y698000D01*
G01X459003Y698000D01*
G01X464003Y698000D01*
G01X469003Y698000D01*
G01X474003Y698000D01*
G01X479003Y698000D01*
G01X484003Y698000D01*
G01X489003Y698000D01*
G01X494003Y698000D01*
G01X499003Y698000D01*
G01X504003Y698000D01*
G01X509003Y698000D01*
G01X514003Y698000D01*
G01X519003Y698000D01*
G01X524003Y698000D01*
G01X529003Y698000D01*
G01X534003Y698000D01*
G01X539003Y698000D01*
G01X544003Y698000D01*
G01X549003Y698000D01*
G01X554003Y698000D01*
G01X559003Y698000D01*
G01X564003Y698000D01*
G01X569003Y698000D01*
G01X574003Y698000D01*
G01X579003Y698000D01*
G01X584003Y698000D01*
G01X589003Y698000D01*
G01X594003Y698000D01*
G01X599003Y698000D01*
G01X604003Y698000D01*
G01X609003Y698000D01*
G01X614003Y698000D01*
G01X619003Y698000D01*
G01X623785Y698000D01*
G01X644777Y677007D01*
G01X644777Y677007D01*
G01X314900Y694715D02*
G01X314900Y685284D01*
G01X319616Y677116D01*
G01X327784Y672400D01*
G01X337215Y672400D01*
G01X345250Y677038D01*
G01X352968Y672582D01*
G01X301254Y620868D01*
G01X299639Y623886D01*
G01X300099Y624684D01*
G01X300099Y634115D01*
G01X295490Y642100D01*
G01X300099Y650084D01*
G01X300099Y659515D01*
G01X295490Y667500D01*
G01X300099Y675484D01*
G01X300099Y684915D01*
G01X295383Y693083D01*
G01X294625Y693521D01*
G01X294625Y698000D01*
G01X316796Y698000D01*
G01X314900Y694715D01*
G01X314900Y694715D01*
G01X619187Y598197D02*
G01X611900Y593990D01*
G01X603915Y598599D01*
G01X594484Y598599D01*
G01X586316Y593883D01*
G01X581600Y585715D01*
G01X581600Y576284D01*
G01X586316Y568116D01*
G01X591728Y564991D01*
G01X591728Y560500D01*
G01X586728Y560500D01*
G01X581728Y560500D01*
G01X576728Y560500D01*
G01X571728Y560500D01*
G01X566728Y560500D01*
G01X561728Y560500D01*
G01X556728Y560500D01*
G01X551728Y560500D01*
G01X546728Y560500D01*
G01X541728Y560500D01*
G01X536728Y560500D01*
G01X531728Y560500D01*
G01X530468Y560500D01*
G01X530468Y564989D01*
G01X535883Y568116D01*
G01X540599Y576284D01*
G01X540599Y585715D01*
G01X535883Y593883D01*
G01X527715Y598599D01*
G01X518284Y598599D01*
G01X510300Y593990D01*
G01X502315Y598599D01*
G01X492884Y598599D01*
G01X484900Y593990D01*
G01X476915Y598599D01*
G01X467484Y598599D01*
G01X459316Y593883D01*
G01X454600Y585715D01*
G01X454600Y576284D01*
G01X459316Y568116D01*
G01X467484Y563400D01*
G01X476915Y563400D01*
G01X484900Y568009D01*
G01X492884Y563400D01*
G01X498485Y563400D01*
G01X517143Y544741D01*
G01X517545Y544045D01*
G01X521954Y541500D01*
G01X526954Y541500D01*
G01X531954Y541500D01*
G01X536954Y541500D01*
G01X541954Y541500D01*
G01X546954Y541500D01*
G01X551954Y541500D01*
G01X556954Y541500D01*
G01X561954Y541500D01*
G01X566954Y541500D01*
G01X571954Y541500D01*
G01X576954Y541500D01*
G01X581954Y541500D01*
G01X586954Y541500D01*
G01X591954Y541500D01*
G01X596954Y541500D01*
G01X601954Y541500D01*
G01X606954Y541500D01*
G01X611954Y541500D01*
G01X616954Y541500D01*
G01X621954Y541500D01*
G01X626954Y541500D01*
G01X631954Y541500D01*
G01X636954Y541500D01*
G01X641954Y541500D01*
G01X646954Y541500D01*
G01X651954Y541500D01*
G01X656954Y541500D01*
G01X661954Y541500D01*
G01X666954Y541500D01*
G01X671954Y541500D01*
G01X676885Y541500D01*
G01X688385Y530000D01*
G01X670500Y530000D01*
G01X670500Y513000D01*
G01X670500Y508467D01*
G01X667599Y510435D01*
G01X667599Y511415D01*
G01X662883Y519583D01*
G01X654715Y524299D01*
G01X645284Y524299D01*
G01X637300Y519690D01*
G01X629315Y524299D01*
G01X619884Y524299D01*
G01X611900Y519690D01*
G01X603915Y524299D01*
G01X594484Y524299D01*
G01X586316Y519583D01*
G01X581600Y511415D01*
G01X581600Y501984D01*
G01X586316Y493816D01*
G01X594484Y489100D01*
G01X603915Y489100D01*
G01X611900Y493709D01*
G01X619884Y489100D01*
G01X629315Y489100D01*
G01X637300Y493709D01*
G01X645284Y489100D01*
G01X654715Y489100D01*
G01X655390Y489489D01*
G01X658486Y487388D01*
G01X653812Y480500D01*
G01X648812Y480500D01*
G01X643812Y480500D01*
G01X638812Y480500D01*
G01X633812Y480500D01*
G01X628812Y480500D01*
G01X623812Y480500D01*
G01X618812Y480500D01*
G01X613812Y480500D01*
G01X608812Y480500D01*
G01X603812Y480500D01*
G01X598812Y480500D01*
G01X593812Y480500D01*
G01X588812Y480500D01*
G01X583812Y480500D01*
G01X578812Y480500D01*
G01X573812Y480500D01*
G01X568812Y480500D01*
G01X565000Y480500D01*
G01X565000Y483000D01*
G01X531000Y483000D01*
G01X527715Y489100D01*
G01X535883Y493816D01*
G01X540599Y501984D01*
G01X540599Y511415D01*
G01X535883Y519583D01*
G01X527715Y524299D01*
G01X527715Y524299D01*
G01X518284Y524299D01*
G01X510300Y519690D01*
G01X502315Y524299D01*
G01X492884Y524299D01*
G01X484900Y519690D01*
G01X476915Y524299D01*
G01X467484Y524299D01*
G01X459316Y519583D01*
G01X454600Y511415D01*
G01X454600Y501984D01*
G01X459316Y493816D01*
G01X467484Y489100D01*
G01X476915Y489100D01*
G01X484900Y493709D01*
G01X492884Y489100D01*
G01X502315Y489100D01*
G01X510300Y493709D01*
G01X518284Y489100D01*
G01X527715Y489100D01*
G01X531000Y483000D01*
G01X531000Y466000D01*
G01X531000Y449000D01*
G01X527715Y445599D01*
G01X518284Y445599D01*
G01X510300Y440990D01*
G01X502315Y445599D01*
G01X492884Y445599D01*
G01X484900Y440990D01*
G01X476915Y445599D01*
G01X467484Y445599D01*
G01X459316Y440883D01*
G01X454600Y432715D01*
G01X454600Y423284D01*
G01X459316Y415116D01*
G01X467484Y410400D01*
G01X476915Y410400D01*
G01X484900Y415009D01*
G01X492884Y410400D01*
G01X502315Y410400D01*
G01X510300Y415009D01*
G01X518284Y410400D01*
G01X527715Y410400D01*
G01X535883Y415116D01*
G01X540599Y423284D01*
G01X540599Y432715D01*
G01X535883Y440883D01*
G01X527715Y445599D01*
G01X527715Y445599D01*
G01X531000Y449000D01*
G01X565000Y449000D01*
G01X565000Y461500D01*
G01X596000Y461500D01*
G01X596000Y454545D01*
G01X596000Y449454D01*
G01X596000Y445599D01*
G01X594484Y445599D01*
G01X586316Y440883D01*
G01X581600Y432715D01*
G01X581600Y423284D01*
G01X586316Y415116D01*
G01X594484Y410400D01*
G01X603915Y410400D01*
G01X611900Y415009D01*
G01X619884Y410400D01*
G01X629315Y410400D01*
G01X637300Y415009D01*
G01X645284Y410400D01*
G01X654715Y410400D01*
G01X662883Y415116D01*
G01X666500Y421379D01*
G01X666500Y392545D01*
G01X666500Y390000D01*
G01X666500Y387454D01*
G01X669045Y383045D01*
G01X669741Y382643D01*
G01X678834Y373551D01*
G01X671616Y369383D01*
G01X666900Y361215D01*
G01X666900Y351784D01*
G01X651299Y351784D01*
G01X651299Y361215D01*
G01X646583Y369383D01*
G01X638415Y374099D01*
G01X638415Y374099D01*
G01X628984Y374099D01*
G01X621000Y369490D01*
G01X613015Y374099D01*
G01X603584Y374099D01*
G01X595600Y369490D01*
G01X587615Y374099D01*
G01X578184Y374099D01*
G01X570200Y369490D01*
G01X562215Y374099D01*
G01X552784Y374099D01*
G01X544616Y369383D01*
G01X539900Y361215D01*
G01X539900Y351784D01*
G01X544616Y343616D01*
G01X552784Y338900D01*
G01X562215Y338900D01*
G01X570200Y343509D01*
G01X578184Y338900D01*
G01X587615Y338900D01*
G01X595600Y343509D01*
G01X603584Y338900D01*
G01X613015Y338900D01*
G01X621000Y343509D01*
G01X628984Y338900D01*
G01X638415Y338900D01*
G01X646583Y343616D01*
G01X651299Y351784D01*
G01X666900Y351784D01*
G01X671616Y343616D01*
G01X679784Y338900D01*
G01X689215Y338900D01*
G01X697000Y343394D01*
G01X697000Y338394D01*
G01X697000Y333394D01*
G01X697000Y328394D01*
G01X697000Y323394D01*
G01X697000Y318394D01*
G01X697000Y313394D01*
G01X697000Y308394D01*
G01X697000Y303394D01*
G01X697000Y298394D01*
G01X697000Y293394D01*
G01X697000Y288394D01*
G01X697000Y283394D01*
G01X697000Y278394D01*
G01X697000Y273394D01*
G01X697000Y268394D01*
G01X697000Y263394D01*
G01X697000Y258394D01*
G01X697000Y253394D01*
G01X697000Y248394D01*
G01X697000Y243394D01*
G01X697000Y238394D01*
G01X697000Y236605D01*
G01X689215Y241099D01*
G01X679784Y241099D01*
G01X671616Y236383D01*
G01X666900Y228215D01*
G01X666900Y218784D01*
G01X671616Y210616D01*
G01X679784Y205900D01*
G01X689215Y205900D01*
G01X697000Y210394D01*
G01X697000Y186000D01*
G01X689500Y186000D01*
G01X689500Y169000D01*
G01X689500Y152000D01*
G01X714500Y152000D01*
G01X714500Y135500D01*
G01X712000Y135500D01*
G01X712000Y142500D01*
G01X696614Y142500D01*
G01X667735Y171379D01*
G01X638856Y200258D01*
G01X638454Y200954D01*
G01X635842Y202462D01*
G01X637607Y205900D01*
G01X638415Y205900D01*
G01X646583Y210616D01*
G01X651299Y218784D01*
G01X651299Y228215D01*
G01X646583Y236383D01*
G01X638415Y241099D01*
G01X628984Y241099D01*
G01X621000Y236490D01*
G01X613015Y241099D01*
G01X603584Y241099D01*
G01X595600Y236490D01*
G01X587615Y241099D01*
G01X578184Y241099D01*
G01X570200Y236490D01*
G01X562215Y241099D01*
G01X552784Y241099D01*
G01X544616Y236383D01*
G01X541491Y230972D01*
G01X536000Y230972D01*
G01X536000Y235972D01*
G01X536000Y240972D01*
G01X536000Y245972D01*
G01X536000Y250972D01*
G01X536000Y255972D01*
G01X536000Y260972D01*
G01X536000Y265972D01*
G01X536000Y270972D01*
G01X536000Y275972D01*
G01X536000Y280972D01*
G01X536000Y285972D01*
G01X536000Y290972D01*
G01X536000Y295972D01*
G01X536000Y300972D01*
G01X536000Y305972D01*
G01X536000Y307500D01*
G01X536000Y310045D01*
G01X533454Y314454D01*
G01X532758Y314856D01*
G01X513807Y333807D01*
G01X494856Y352758D01*
G01X494454Y353454D01*
G01X490045Y356000D01*
G01X483000Y356000D01*
G01X483000Y369000D01*
G01X483000Y386000D01*
G01X464114Y386000D01*
G01X440807Y409307D01*
G01X417500Y432614D01*
G01X417500Y437614D01*
G01X417500Y442614D01*
G01X417500Y447614D01*
G01X417500Y452614D01*
G01X417500Y457614D01*
G01X417500Y462614D01*
G01X417500Y467614D01*
G01X417500Y472614D01*
G01X417500Y477614D01*
G01X417500Y482614D01*
G01X417500Y487614D01*
G01X417500Y492614D01*
G01X417500Y497614D01*
G01X417500Y502614D01*
G01X417500Y507614D01*
G01X417500Y512614D01*
G01X417500Y517614D01*
G01X417500Y522000D01*
G01X425000Y522000D01*
G01X425000Y539000D01*
G01X425000Y556000D01*
G01X391000Y556000D01*
G01X391000Y543000D01*
G01X371500Y543000D01*
G01X371500Y573385D01*
G01X401114Y603000D01*
G01X406114Y603000D01*
G01X411114Y603000D01*
G01X416114Y603000D01*
G01X421114Y603000D01*
G01X426114Y603000D01*
G01X431114Y603000D01*
G01X436114Y603000D01*
G01X441114Y603000D01*
G01X446114Y603000D01*
G01X451114Y603000D01*
G01X456114Y603000D01*
G01X461114Y603000D01*
G01X466114Y603000D01*
G01X471114Y603000D01*
G01X476114Y603000D01*
G01X481114Y603000D01*
G01X486114Y603000D01*
G01X491114Y603000D01*
G01X496114Y603000D01*
G01X501114Y603000D01*
G01X506114Y603000D01*
G01X511114Y603000D01*
G01X516114Y603000D01*
G01X521114Y603000D01*
G01X526114Y603000D01*
G01X531114Y603000D01*
G01X536114Y603000D01*
G01X541114Y603000D01*
G01X546114Y603000D01*
G01X551114Y603000D01*
G01X556114Y603000D01*
G01X561114Y603000D01*
G01X566114Y603000D01*
G01X571114Y603000D01*
G01X576114Y603000D01*
G01X581114Y603000D01*
G01X586114Y603000D01*
G01X591114Y603000D01*
G01X596114Y603000D01*
G01X601114Y603000D01*
G01X606114Y603000D01*
G01X611114Y603000D01*
G01X614385Y603000D01*
G01X619187Y598197D01*
G01X619187Y598197D01*
G01X270374Y693521D02*
G01X269616Y693083D01*
G01X264900Y684915D01*
G01X264900Y675484D01*
G01X269509Y667500D01*
G01X264900Y659515D01*
G01X264900Y650084D01*
G01X269509Y642100D01*
G01X264900Y634115D01*
G01X264900Y624684D01*
G01X269509Y616700D01*
G01X264900Y608715D01*
G01X264900Y601014D01*
G01X223241Y559356D01*
G01X222886Y559151D01*
G01X218990Y565900D01*
G01X223599Y573884D01*
G01X223599Y583315D01*
G01X218990Y591300D01*
G01X223599Y599284D01*
G01X223599Y608715D01*
G01X218990Y616700D01*
G01X223599Y624684D01*
G01X223599Y634115D01*
G01X218990Y642100D01*
G01X223599Y650084D01*
G01X223599Y659515D01*
G01X218990Y667500D01*
G01X223599Y675484D01*
G01X223599Y684915D01*
G01X218883Y693083D01*
G01X218125Y693521D01*
G01X218125Y698000D01*
G01X223125Y698000D01*
G01X228125Y698000D01*
G01X233125Y698000D01*
G01X238125Y698000D01*
G01X243125Y698000D01*
G01X248125Y698000D01*
G01X253125Y698000D01*
G01X258125Y698000D01*
G01X263125Y698000D01*
G01X268125Y698000D01*
G01X270374Y698000D01*
G01X270374Y693521D01*
G01X270374Y693521D01*
G01X805143Y516641D02*
G01X805545Y515945D01*
G01X809954Y513400D01*
G01X842462Y513400D01*
G01X844309Y510200D01*
G01X839700Y502215D01*
G01X839700Y492784D01*
G01X844309Y484800D01*
G01X844160Y484541D01*
G01X800500Y484603D01*
G01X800500Y492000D01*
G01X782500Y492000D01*
G01X782500Y506000D01*
G01X782500Y523000D01*
G01X749500Y523000D01*
G01X749500Y538500D01*
G01X749500Y541045D01*
G01X746954Y545454D01*
G01X746258Y545856D01*
G01X738000Y554114D01*
G01X738000Y557500D01*
G01X738000Y574500D01*
G01X723414Y574500D01*
G01X689413Y608501D01*
G01X655412Y642502D01*
G01X662883Y646816D01*
G01X667307Y654477D01*
G01X736225Y585559D01*
G01X805143Y516641D01*
G01X805143Y516641D01*
G01X695500Y396545D02*
G01X695500Y394000D01*
G01X695500Y391454D01*
G01X698045Y387045D01*
G01X698741Y386643D01*
G01X701343Y384041D01*
G01X698458Y381156D01*
G01X685500Y394114D01*
G01X685500Y434500D01*
G01X685500Y437045D01*
G01X682954Y441454D01*
G01X682258Y441856D01*
G01X665856Y458258D01*
G01X665454Y458954D01*
G01X661045Y461500D01*
G01X661545Y461500D01*
G01X665954Y464045D01*
G01X666881Y465651D01*
G01X666966Y465594D01*
G01X687598Y496000D01*
G01X695500Y496000D01*
G01X695500Y491000D01*
G01X695500Y486000D01*
G01X695500Y481000D01*
G01X695500Y476000D01*
G01X695500Y471000D01*
G01X695500Y466000D01*
G01X695500Y461000D01*
G01X695500Y456000D01*
G01X695500Y451000D01*
G01X695500Y446000D01*
G01X695500Y441000D01*
G01X695500Y436000D01*
G01X695500Y431000D01*
G01X695500Y426000D01*
G01X695500Y421000D01*
G01X695500Y416000D01*
G01X695500Y411000D01*
G01X695500Y406000D01*
G01X695500Y401000D01*
G01X695500Y396545D01*
G01X695500Y396545D01*
G01X296500Y306737D02*
G01X296045Y307000D01*
G01X291045Y307000D01*
G01X286045Y307000D01*
G01X281045Y307000D01*
G01X276045Y307000D01*
G01X271045Y307000D01*
G01X266045Y307000D01*
G01X261045Y307000D01*
G01X256045Y307000D01*
G01X251045Y307000D01*
G01X246045Y307000D01*
G01X241643Y307000D01*
G01X243454Y308045D01*
G01X243856Y308741D01*
G01X267758Y332643D01*
G01X268454Y333045D01*
G01X271000Y337454D01*
G01X271000Y340000D01*
G01X271000Y345000D01*
G01X271000Y350000D01*
G01X271000Y355000D01*
G01X271000Y360000D01*
G01X271000Y365000D01*
G01X271000Y370000D01*
G01X271000Y375000D01*
G01X271000Y380000D01*
G01X271000Y385000D01*
G01X271000Y390000D01*
G01X271000Y395000D01*
G01X271000Y400000D01*
G01X271000Y405000D01*
G01X271000Y410000D01*
G01X271000Y415000D01*
G01X271000Y420000D01*
G01X271000Y425000D01*
G01X271000Y430000D01*
G01X271000Y435000D01*
G01X271000Y440000D01*
G01X271000Y445000D01*
G01X271000Y450000D01*
G01X271000Y455000D01*
G01X271000Y460000D01*
G01X271000Y463317D01*
G01X277784Y459400D01*
G01X287215Y459400D01*
G01X295383Y464116D01*
G01X296500Y466049D01*
G01X296500Y461049D01*
G01X296500Y456049D01*
G01X296500Y451049D01*
G01X296500Y446049D01*
G01X296500Y441049D01*
G01X296500Y436049D01*
G01X296500Y431049D01*
G01X296500Y426049D01*
G01X296500Y421049D01*
G01X296500Y416049D01*
G01X296500Y411049D01*
G01X296500Y406049D01*
G01X296500Y401049D01*
G01X296500Y396049D01*
G01X296500Y391049D01*
G01X296500Y386049D01*
G01X296500Y381049D01*
G01X296500Y376049D01*
G01X296500Y371049D01*
G01X296500Y366049D01*
G01X296500Y361049D01*
G01X296500Y356049D01*
G01X296500Y351049D01*
G01X296500Y346049D01*
G01X296500Y341049D01*
G01X296500Y336049D01*
G01X296500Y331049D01*
G01X296500Y326049D01*
G01X296500Y321049D01*
G01X296500Y316049D01*
G01X296500Y311049D01*
G01X296500Y306737D01*
G01X296500Y306737D01*
G01X840908Y465292D02*
G01X844309Y459400D01*
G01X839700Y451415D01*
G01X839700Y441984D01*
G01X844309Y434000D01*
G01X842562Y430972D01*
G01X810000Y431074D01*
G01X810000Y438500D01*
G01X776000Y438500D01*
G01X776000Y431500D01*
G01X775000Y431500D01*
G01X775000Y458000D01*
G01X800500Y458000D01*
G01X800500Y465349D01*
G01X840908Y465292D01*
G01X840908Y465292D01*
G01X968500Y469914D02*
G01X899897Y401312D01*
G01X895690Y408600D01*
G01X900299Y416584D01*
G01X900299Y425285D01*
G01X942758Y467743D01*
G01X943454Y468145D01*
G01X946000Y472554D01*
G01X946000Y475100D01*
G01X946000Y480100D01*
G01X946000Y485100D01*
G01X946000Y490100D01*
G01X946000Y495100D01*
G01X946000Y500100D01*
G01X946000Y505100D01*
G01X946000Y510100D01*
G01X946000Y515100D01*
G01X946000Y520100D01*
G01X946000Y525100D01*
G01X946000Y530100D01*
G01X946000Y535100D01*
G01X946000Y540100D01*
G01X946000Y545100D01*
G01X946000Y550100D01*
G01X946000Y555100D01*
G01X946000Y560100D01*
G01X946000Y565100D01*
G01X946000Y570100D01*
G01X946000Y575100D01*
G01X946000Y580100D01*
G01X946000Y585100D01*
G01X946000Y588000D01*
G01X968500Y588000D01*
G01X968500Y583000D01*
G01X968500Y578000D01*
G01X968500Y573000D01*
G01X968500Y568000D01*
G01X968500Y563000D01*
G01X968500Y558000D01*
G01X968500Y553000D01*
G01X968500Y548000D01*
G01X968500Y543000D01*
G01X968500Y538000D01*
G01X968500Y533000D01*
G01X968500Y528000D01*
G01X968500Y523000D01*
G01X968500Y518000D01*
G01X968500Y513000D01*
G01X968500Y508000D01*
G01X968500Y503000D01*
G01X968500Y498000D01*
G01X968500Y493000D01*
G01X968500Y488000D01*
G01X968500Y483000D01*
G01X968500Y478000D01*
G01X968500Y473000D01*
G01X968500Y469914D01*
G01X968500Y469914D01*
G01X842509Y411718D02*
G01X844309Y408600D01*
G01X839700Y400615D01*
G01X839700Y398514D01*
G01X823185Y382000D01*
G01X776000Y382000D01*
G01X776000Y385000D01*
G01X783000Y385000D01*
G01X783000Y402000D01*
G01X783000Y404500D01*
G01X810000Y404500D01*
G01X810000Y411820D01*
G01X842509Y411718D01*
G01X842509Y411718D01*
G01X730500Y391545D02*
G01X730500Y389000D01*
G01X730500Y386454D01*
G01X733045Y382045D01*
G01X731807Y380807D01*
G01X714500Y398114D01*
G01X714500Y431000D01*
G01X730500Y431000D01*
G01X730500Y391545D01*
G01X730500Y391545D01*
G01X252000Y559704D02*
G01X252000Y554704D01*
G01X252000Y549704D01*
G01X252000Y544704D01*
G01X252000Y539704D01*
G01X252000Y534704D01*
G01X252000Y529704D01*
G01X252000Y524704D01*
G01X252000Y519704D01*
G01X252000Y514704D01*
G01X252000Y509704D01*
G01X252000Y504704D01*
G01X252000Y499704D01*
G01X252000Y494704D01*
G01X252000Y489704D01*
G01X252000Y484704D01*
G01X252000Y479704D01*
G01X252000Y474704D01*
G01X252000Y469704D01*
G01X252000Y464704D01*
G01X252000Y459704D01*
G01X252000Y454704D01*
G01X252000Y449704D01*
G01X252000Y444704D01*
G01X252000Y439704D01*
G01X252000Y434704D01*
G01X252000Y429704D01*
G01X252000Y424704D01*
G01X252000Y419704D01*
G01X252000Y414704D01*
G01X252000Y409704D01*
G01X252000Y404704D01*
G01X252000Y399704D01*
G01X252000Y394704D01*
G01X252000Y389704D01*
G01X252000Y384704D01*
G01X252000Y379704D01*
G01X252000Y374704D01*
G01X252000Y369704D01*
G01X252000Y364704D01*
G01X252000Y359704D01*
G01X252000Y359000D01*
G01X246500Y359000D01*
G01X246500Y366000D01*
G01X239000Y366000D01*
G01X239000Y371000D01*
G01X239000Y376000D01*
G01X239000Y381000D01*
G01X239000Y386000D01*
G01X239000Y391000D01*
G01X239000Y396000D01*
G01X239000Y401000D01*
G01X239000Y406000D01*
G01X239000Y411000D01*
G01X239000Y416000D01*
G01X239000Y421000D01*
G01X239000Y426000D01*
G01X239000Y431000D01*
G01X239000Y436000D01*
G01X239000Y441000D01*
G01X239000Y446000D01*
G01X239000Y451000D01*
G01X239000Y456000D01*
G01X239000Y461000D01*
G01X239000Y466000D01*
G01X239000Y471000D01*
G01X239000Y476000D01*
G01X239000Y481000D01*
G01X239000Y486000D01*
G01X239000Y491000D01*
G01X239000Y496000D01*
G01X239000Y501000D01*
G01X239000Y506000D01*
G01X239000Y511000D01*
G01X239000Y516000D01*
G01X239000Y521000D01*
G01X239000Y526000D01*
G01X239000Y531000D01*
G01X239000Y536000D01*
G01X239000Y541000D01*
G01X239000Y546000D01*
G01X239000Y547885D01*
G01X252000Y560885D01*
G01X252000Y559704D01*
G01X252000Y559704D01*
G01X969500Y215285D02*
G01X969500Y204001D01*
G01X967213Y204001D01*
G01X946856Y224358D01*
G01X946454Y225054D01*
G01X942045Y227600D01*
G01X897537Y227600D01*
G01X895690Y230800D01*
G01X900299Y238784D01*
G01X900299Y248215D01*
G01X895690Y256200D01*
G01X897537Y259400D01*
G01X925385Y259400D01*
G01X947442Y237342D01*
G01X969500Y215285D01*
G01X969500Y215285D01*
G01X952300Y191684D02*
G01X950715Y192599D01*
G01X941284Y192599D01*
G01X933116Y187883D01*
G01X928400Y179715D01*
G01X928400Y170284D01*
G01X933009Y162300D01*
G01X928400Y154315D01*
G01X928400Y150414D01*
G01X899897Y121912D01*
G01X895690Y129200D01*
G01X900299Y137184D01*
G01X900299Y146615D01*
G01X895690Y154600D01*
G01X900299Y162584D01*
G01X900299Y172015D01*
G01X895690Y180000D01*
G01X900299Y187984D01*
G01X900299Y197415D01*
G01X895690Y205400D01*
G01X897537Y208600D01*
G01X935385Y208600D01*
G01X952300Y191684D01*
G01X952300Y191684D01*
G01X735643Y349741D02*
G01X736045Y349045D01*
G01X740454Y346500D01*
G01X745454Y346500D01*
G01X750454Y346500D01*
G01X755454Y346500D01*
G01X760454Y346500D01*
G01X765454Y346500D01*
G01X770454Y346500D01*
G01X775454Y346500D01*
G01X780454Y346500D01*
G01X785454Y346500D01*
G01X790454Y346500D01*
G01X791500Y346500D01*
G01X791500Y341500D01*
G01X784500Y341500D01*
G01X784500Y324500D01*
G01X784500Y314000D01*
G01X783500Y314000D01*
G01X783500Y297000D01*
G01X783500Y280000D01*
G01X783500Y269000D01*
G01X783500Y252000D01*
G01X817500Y252000D01*
G01X817500Y259343D01*
G01X842520Y259299D01*
G01X844309Y256200D01*
G01X839700Y248215D01*
G01X839700Y238784D01*
G01X844309Y230800D01*
G01X842462Y227600D01*
G01X837462Y227600D01*
G01X832462Y227600D01*
G01X827462Y227600D01*
G01X822462Y227600D01*
G01X817462Y227600D01*
G01X812462Y227600D01*
G01X807462Y227600D01*
G01X802462Y227600D01*
G01X797462Y227600D01*
G01X792462Y227600D01*
G01X787462Y227600D01*
G01X782462Y227600D01*
G01X777462Y227600D01*
G01X772462Y227600D01*
G01X768454Y227600D01*
G01X764045Y225054D01*
G01X763643Y224358D01*
G01X723500Y184214D01*
G01X723500Y186000D01*
G01X716000Y186000D01*
G01X716000Y191000D01*
G01X716000Y196000D01*
G01X716000Y201000D01*
G01X716000Y206000D01*
G01X716000Y211000D01*
G01X716000Y216000D01*
G01X716000Y221000D01*
G01X716000Y226000D01*
G01X716000Y231000D01*
G01X716000Y236000D01*
G01X716000Y241000D01*
G01X716000Y246000D01*
G01X716000Y251000D01*
G01X716000Y256000D01*
G01X716000Y261000D01*
G01X716000Y266000D01*
G01X716000Y271000D01*
G01X716000Y276000D01*
G01X716000Y281000D01*
G01X716000Y286000D01*
G01X716000Y291000D01*
G01X716000Y296000D01*
G01X716000Y301000D01*
G01X716000Y306000D01*
G01X716000Y311000D01*
G01X716000Y316000D01*
G01X716000Y321000D01*
G01X716000Y326000D01*
G01X716000Y331000D01*
G01X716000Y336000D01*
G01X716000Y341000D01*
G01X716000Y346000D01*
G01X716000Y351000D01*
G01X716000Y356000D01*
G01X716000Y359500D01*
G01X716000Y362045D01*
G01X713454Y366454D01*
G01X716192Y369192D01*
G01X735643Y349741D01*
G01X735643Y349741D01*
G01X517000Y303385D02*
G01X517000Y298385D01*
G01X517000Y293385D01*
G01X517000Y288385D01*
G01X517000Y283385D01*
G01X517000Y278385D01*
G01X517000Y273385D01*
G01X517000Y268385D01*
G01X517000Y263385D01*
G01X517000Y258385D01*
G01X517000Y253385D01*
G01X517000Y248385D01*
G01X517000Y243385D01*
G01X517000Y238385D01*
G01X517000Y233385D01*
G01X517000Y228385D01*
G01X517000Y225545D01*
G01X517000Y223000D01*
G01X517000Y220454D01*
G01X519545Y216045D01*
G01X520241Y215643D01*
G01X548143Y187741D01*
G01X548545Y187045D01*
G01X552954Y184500D01*
G01X555500Y184500D01*
G01X555500Y179900D01*
G01X550500Y179900D01*
G01X545500Y179900D01*
G01X540500Y179900D01*
G01X535500Y179900D01*
G01X530500Y179900D01*
G01X525500Y179900D01*
G01X520500Y179900D01*
G01X515500Y179900D01*
G01X510500Y179900D01*
G01X505500Y179900D01*
G01X500500Y179900D01*
G01X495500Y179900D01*
G01X491577Y179900D01*
G01X489730Y183100D01*
G01X494339Y191084D01*
G01X494339Y200515D01*
G01X489730Y208500D01*
G01X494339Y216484D01*
G01X494339Y225915D01*
G01X489730Y233900D01*
G01X494339Y241884D01*
G01X494339Y251315D01*
G01X489730Y259300D01*
G01X494339Y267284D01*
G01X494339Y276715D01*
G01X489710Y284734D01*
G01X494299Y292684D01*
G01X494299Y302115D01*
G01X489690Y310100D01*
G01X494299Y318084D01*
G01X494299Y326085D01*
G01X517000Y303385D01*
G01X517000Y303385D01*
G01X335000Y152500D02*
G01X327000Y152500D01*
G01X327000Y145500D01*
G01X320500Y145500D01*
G01X320500Y150500D01*
G01X320500Y155500D01*
G01X320500Y160500D01*
G01X320500Y165500D01*
G01X320500Y170500D01*
G01X320500Y175500D01*
G01X320500Y180500D01*
G01X320500Y185500D01*
G01X320500Y190500D01*
G01X320500Y195500D01*
G01X320500Y200500D01*
G01X320500Y205500D01*
G01X320500Y210500D01*
G01X320500Y215500D01*
G01X320500Y220500D01*
G01X320500Y225500D01*
G01X320500Y230500D01*
G01X320500Y235500D01*
G01X320500Y240500D01*
G01X320500Y245500D01*
G01X320500Y250500D01*
G01X320500Y255500D01*
G01X320500Y260500D01*
G01X320500Y265500D01*
G01X320500Y270500D01*
G01X320500Y275500D01*
G01X320500Y280000D01*
G01X320500Y282545D01*
G01X317954Y286954D01*
G01X317258Y287356D01*
G01X315500Y289114D01*
G01X315500Y328000D01*
G01X335000Y328000D01*
G01X335000Y323000D01*
G01X335000Y318000D01*
G01X335000Y313000D01*
G01X335000Y308000D01*
G01X335000Y303000D01*
G01X335000Y298000D01*
G01X335000Y293000D01*
G01X335000Y288000D01*
G01X335000Y283000D01*
G01X335000Y278000D01*
G01X335000Y273000D01*
G01X335000Y268000D01*
G01X335000Y263000D01*
G01X335000Y258000D01*
G01X335000Y253000D01*
G01X335000Y248000D01*
G01X335000Y243000D01*
G01X335000Y238000D01*
G01X335000Y233000D01*
G01X335000Y228000D01*
G01X335000Y223000D01*
G01X335000Y218000D01*
G01X335000Y213000D01*
G01X335000Y208000D01*
G01X335000Y203000D01*
G01X335000Y198000D01*
G01X335000Y193000D01*
G01X335000Y188000D01*
G01X335000Y183000D01*
G01X335000Y178000D01*
G01X335000Y173000D01*
G01X335000Y168000D01*
G01X335000Y163000D01*
G01X335000Y158000D01*
G01X335000Y153000D01*
G01X335000Y152500D01*
G01X335000Y152500D01*
G01X555500Y150500D02*
G01X555500Y147114D01*
G01X531385Y123000D01*
G01X526385Y123000D01*
G01X521385Y123000D01*
G01X516385Y123000D01*
G01X511385Y123000D01*
G01X506385Y123000D01*
G01X501385Y123000D01*
G01X496385Y123000D01*
G01X491385Y123000D01*
G01X486385Y123000D01*
G01X481385Y123000D01*
G01X481178Y123000D01*
G01X481178Y127400D01*
G01X481455Y127400D01*
G01X489623Y132116D01*
G01X494339Y140284D01*
G01X494339Y149715D01*
G01X489730Y157700D01*
G01X491577Y160900D01*
G01X496577Y160900D01*
G01X501577Y160900D01*
G01X506577Y160900D01*
G01X511577Y160900D01*
G01X516577Y160900D01*
G01X521577Y160900D01*
G01X526577Y160900D01*
G01X531577Y160900D01*
G01X536577Y160900D01*
G01X541577Y160900D01*
G01X546577Y160900D01*
G01X551577Y160900D01*
G01X555500Y160900D01*
G01X555500Y150500D01*
G01X555500Y150500D01*
G01X373000Y417000D02*
G01X373000Y414454D01*
G01X375545Y410045D01*
G01X376241Y409643D01*
G01X410942Y374942D01*
G01X445643Y340241D01*
G01X446045Y339545D01*
G01X450454Y337000D01*
G01X466095Y337000D01*
G01X463816Y335683D01*
G01X459100Y327515D01*
G01X459100Y318084D01*
G01X463709Y310100D01*
G01X459100Y302115D01*
G01X459100Y292684D01*
G01X463729Y284665D01*
G01X459140Y276715D01*
G01X459140Y267284D01*
G01X463749Y259300D01*
G01X459140Y251315D01*
G01X459140Y241884D01*
G01X463749Y233900D01*
G01X459140Y225915D01*
G01X459140Y216484D01*
G01X463749Y208500D01*
G01X459140Y200515D01*
G01X459140Y191084D01*
G01X463749Y183100D01*
G01X459140Y175115D01*
G01X459140Y165684D01*
G01X463749Y157700D01*
G01X459140Y149715D01*
G01X459140Y140284D01*
G01X463856Y132116D01*
G01X472024Y127400D01*
G01X472301Y127400D01*
G01X472301Y123000D01*
G01X467301Y123000D01*
G01X462301Y123000D01*
G01X457301Y123000D01*
G01X452301Y123000D01*
G01X447301Y123000D01*
G01X442301Y123000D01*
G01X437301Y123000D01*
G01X432301Y123000D01*
G01X427301Y123000D01*
G01X422301Y123000D01*
G01X417301Y123000D01*
G01X412301Y123000D01*
G01X407301Y123000D01*
G01X402438Y123000D01*
G01X402438Y127400D01*
G01X402715Y127400D01*
G01X410883Y132116D01*
G01X415599Y140284D01*
G01X415599Y149715D01*
G01X410990Y157700D01*
G01X415599Y165684D01*
G01X415599Y175115D01*
G01X410990Y183100D01*
G01X415599Y191084D01*
G01X415599Y200515D01*
G01X410990Y208500D01*
G01X415599Y216484D01*
G01X415599Y225915D01*
G01X410990Y233900D01*
G01X415599Y241884D01*
G01X415599Y251315D01*
G01X410990Y259300D01*
G01X415599Y267284D01*
G01X415599Y276715D01*
G01X410990Y284700D01*
G01X415599Y292684D01*
G01X415599Y302115D01*
G01X410990Y310100D01*
G01X415599Y318084D01*
G01X415599Y327515D01*
G01X410883Y335683D01*
G01X402715Y340399D01*
G01X393284Y340399D01*
G01X385116Y335683D01*
G01X380400Y327515D01*
G01X380400Y318084D01*
G01X385009Y310100D01*
G01X380400Y302115D01*
G01X380400Y292684D01*
G01X385009Y284700D01*
G01X380400Y276715D01*
G01X380400Y267284D01*
G01X385009Y259300D01*
G01X380400Y251315D01*
G01X380400Y241884D01*
G01X385009Y233900D01*
G01X380400Y225915D01*
G01X380400Y216484D01*
G01X385009Y208500D01*
G01X380400Y200515D01*
G01X380400Y191084D01*
G01X385009Y183100D01*
G01X380400Y175115D01*
G01X380400Y165684D01*
G01X385009Y157700D01*
G01X380400Y149715D01*
G01X380400Y140284D01*
G01X385116Y132116D01*
G01X393284Y127400D01*
G01X393561Y127400D01*
G01X393561Y123000D01*
G01X361000Y123000D01*
G01X361000Y135500D01*
G01X361000Y152500D01*
G01X354000Y152500D01*
G01X354000Y155296D01*
G01X357284Y153400D01*
G01X366715Y153400D01*
G01X374883Y158116D01*
G01X379599Y166284D01*
G01X379599Y175715D01*
G01X375105Y183500D01*
G01X379599Y191284D01*
G01X379599Y200715D01*
G01X375105Y208500D01*
G01X379599Y216284D01*
G01X379599Y225715D01*
G01X375105Y233500D01*
G01X379599Y241284D01*
G01X379599Y250715D01*
G01X374883Y258883D01*
G01X366715Y263599D01*
G01X357284Y263599D01*
G01X354000Y261703D01*
G01X354000Y281296D01*
G01X357284Y279400D01*
G01X366715Y279400D01*
G01X374883Y284116D01*
G01X379599Y292284D01*
G01X379599Y301715D01*
G01X374883Y309883D01*
G01X374682Y310000D01*
G01X374883Y310116D01*
G01X379599Y318284D01*
G01X379599Y327715D01*
G01X374883Y335883D01*
G01X366715Y340599D01*
G01X357284Y340599D01*
G01X354000Y338703D01*
G01X354000Y343703D01*
G01X354000Y348703D01*
G01X354000Y353703D01*
G01X354000Y358703D01*
G01X354000Y363703D01*
G01X354000Y368703D01*
G01X354000Y373703D01*
G01X354000Y378703D01*
G01X354000Y383703D01*
G01X354000Y388703D01*
G01X354000Y393703D01*
G01X354000Y398703D01*
G01X354000Y403703D01*
G01X354000Y408703D01*
G01X354000Y413703D01*
G01X354000Y418000D01*
G01X373000Y418000D01*
G01X373000Y417000D01*
G01X373000Y417000D01*
G01X678000Y133885D02*
G01X678000Y125500D01*
G01X678000Y115500D01*
G01X676057Y113557D01*
G01X644506Y145107D01*
G01X612956Y176658D01*
G01X612554Y177354D01*
G01X608145Y179900D01*
G01X607975Y179900D01*
G01X609125Y184500D01*
G01X627385Y184500D01*
G01X652692Y159192D01*
G01X678000Y133885D01*
G01X678000Y133885D01*
G01X789000Y143885D02*
G01X789000Y138885D01*
G01X789000Y133885D01*
G01X789000Y128885D01*
G01X789000Y123885D01*
G01X789000Y118885D01*
G01X789000Y113885D01*
G01X789000Y108885D01*
G01X789000Y103885D01*
G01X789000Y98885D01*
G01X789000Y93885D01*
G01X789000Y88885D01*
G01X789000Y85214D01*
G01X779599Y94614D01*
G01X779599Y103915D01*
G01X774990Y111899D01*
G01X779599Y119884D01*
G01X779599Y129315D01*
G01X774990Y137299D01*
G01X779599Y145284D01*
G01X779599Y153285D01*
G01X789000Y143885D01*
G01X789000Y143885D01*
G01X844309Y205400D02*
G01X839700Y197415D01*
G01X839700Y187984D01*
G01X844309Y180000D01*
G01X839700Y172015D01*
G01X839700Y162584D01*
G01X844309Y154600D01*
G01X839700Y146615D01*
G01X839700Y137184D01*
G01X844309Y129200D01*
G01X839700Y121215D01*
G01X839700Y111784D01*
G01X844309Y103800D01*
G01X839700Y95815D01*
G01X839700Y86384D01*
G01X844309Y78400D01*
G01X839700Y70415D01*
G01X839700Y60984D01*
G01X840915Y58879D01*
G01X837075Y55039D01*
G01X808000Y84114D01*
G01X808000Y89114D01*
G01X808000Y94114D01*
G01X808000Y99114D01*
G01X808000Y104114D01*
G01X808000Y109114D01*
G01X808000Y114114D01*
G01X808000Y119114D01*
G01X808000Y124114D01*
G01X808000Y129114D01*
G01X808000Y134114D01*
G01X808000Y139114D01*
G01X808000Y144114D01*
G01X808000Y148000D01*
G01X808000Y150545D01*
G01X805454Y154954D01*
G01X804758Y155356D01*
G01X781356Y178758D01*
G01X780954Y179454D01*
G01X776545Y182000D01*
G01X749999Y182000D01*
G01X749257Y182742D01*
G01X775114Y208600D01*
G01X780114Y208600D01*
G01X785114Y208600D01*
G01X790114Y208600D01*
G01X795114Y208600D01*
G01X800114Y208600D01*
G01X805114Y208600D01*
G01X810114Y208600D01*
G01X815114Y208600D01*
G01X820114Y208600D01*
G01X825114Y208600D01*
G01X830114Y208600D01*
G01X835114Y208600D01*
G01X840114Y208600D01*
G01X842462Y208600D01*
G01X844309Y205400D01*
G01X844309Y205400D01*
G01X928400Y94084D02*
G01X933009Y86100D01*
G01X928400Y78115D01*
G01X928400Y68684D01*
G01X930859Y64424D01*
G01X920435Y54000D01*
G01X896267Y54000D01*
G01X900299Y60984D01*
G01X900299Y69685D01*
G01X928400Y97785D01*
G01X928400Y94084D01*
G01X928400Y94084D01*
G01X818485Y28500D02*
G01X772497Y28500D01*
G01X772497Y34138D01*
G01X774883Y35516D01*
G01X779599Y43684D01*
G01X779599Y53115D01*
G01X774990Y61099D01*
G01X778977Y68007D01*
G01X798731Y48253D01*
G01X818485Y28500D01*
G01X818485Y28500D01*
G01X998000Y2000D02*
G01X993000Y2000D01*
G01X988000Y2000D01*
G01X983000Y2000D01*
G01X978000Y2000D01*
G01X973000Y2000D01*
G01X968000Y2000D01*
G01X963000Y2000D01*
G01X958000Y2000D01*
G01X953000Y2000D01*
G01X948000Y2000D01*
G01X943000Y2000D01*
G01X938000Y2000D01*
G01X933000Y2000D01*
G01X928000Y2000D01*
G01X923000Y2000D01*
G01X918000Y2000D01*
G01X913000Y2000D01*
G01X908000Y2000D01*
G01X903000Y2000D01*
G01X898000Y2000D01*
G01X893000Y2000D01*
G01X888000Y2000D01*
G01X883000Y2000D01*
G01X878000Y2000D01*
G01X873000Y2000D01*
G01X868000Y2000D01*
G01X863000Y2000D01*
G01X858000Y2000D01*
G01X853000Y2000D01*
G01X848000Y2000D01*
G01X843000Y2000D01*
G01X838000Y2000D01*
G01X833000Y2000D01*
G01X828000Y2000D01*
G01X823000Y2000D01*
G01X818000Y2000D01*
G01X813000Y2000D01*
G01X808000Y2000D01*
G01X803000Y2000D01*
G01X798000Y2000D01*
G01X793000Y2000D01*
G01X788000Y2000D01*
G01X783000Y2000D01*
G01X778000Y2000D01*
G01X773000Y2000D01*
G01X768000Y2000D01*
G01X763000Y2000D01*
G01X758000Y2000D01*
G01X753000Y2000D01*
G01X748000Y2000D01*
G01X743000Y2000D01*
G01X738000Y2000D01*
G01X733000Y2000D01*
G01X728000Y2000D01*
G01X723000Y2000D01*
G01X718000Y2000D01*
G01X716954Y9500D01*
G01X721954Y9500D01*
G01X726954Y9500D01*
G01X731954Y9500D01*
G01X736954Y9500D01*
G01X741954Y9500D01*
G01X746954Y9500D01*
G01X751954Y9500D01*
G01X756954Y9500D01*
G01X761954Y9500D01*
G01X766954Y9500D01*
G01X771954Y9500D01*
G01X776954Y9500D01*
G01X781954Y9500D01*
G01X786954Y9500D01*
G01X791954Y9500D01*
G01X796954Y9500D01*
G01X801954Y9500D01*
G01X806954Y9500D01*
G01X811954Y9500D01*
G01X816954Y9500D01*
G01X821954Y9500D01*
G01X826954Y9500D01*
G01X831954Y9500D01*
G01X836954Y9500D01*
G01X841954Y9500D01*
G01X846954Y9500D01*
G01X851954Y9500D01*
G01X856954Y9500D01*
G01X861954Y9500D01*
G01X866954Y9500D01*
G01X871954Y9500D01*
G01X876954Y9500D01*
G01X881954Y9500D01*
G01X886954Y9500D01*
G01X891954Y9500D01*
G01X896954Y9500D01*
G01X901954Y9500D01*
G01X906954Y9500D01*
G01X911954Y9500D01*
G01X916954Y9500D01*
G01X921954Y9500D01*
G01X926954Y9500D01*
G01X931954Y9500D01*
G01X936954Y9500D01*
G01X941954Y9500D01*
G01X946954Y9500D01*
G01X951954Y9500D01*
G01X956045Y9500D01*
G01X960454Y12045D01*
G01X960856Y12741D01*
G01X985258Y37143D01*
G01X985954Y37545D01*
G01X988500Y41954D01*
G01X988500Y44500D01*
G01X988500Y49500D01*
G01X988500Y54500D01*
G01X988500Y59500D01*
G01X988500Y64500D01*
G01X988500Y69500D01*
G01X988500Y74500D01*
G01X988500Y79500D01*
G01X988500Y84500D01*
G01X988500Y89500D01*
G01X988500Y94500D01*
G01X988500Y99500D01*
G01X988500Y104500D01*
G01X988500Y109500D01*
G01X988500Y114500D01*
G01X988500Y119500D01*
G01X988500Y124500D01*
G01X988500Y129500D01*
G01X988500Y134500D01*
G01X988500Y139500D01*
G01X988500Y144500D01*
G01X988500Y149500D01*
G01X988500Y154500D01*
G01X988500Y159500D01*
G01X988500Y164500D01*
G01X988500Y169500D01*
G01X988500Y174500D01*
G01X988500Y179500D01*
G01X988500Y184500D01*
G01X988500Y189500D01*
G01X988500Y194500D01*
G01X988500Y199500D01*
G01X988500Y204500D01*
G01X988500Y209500D01*
G01X988500Y214500D01*
G01X988500Y219400D01*
G01X988500Y221945D01*
G01X985954Y226354D01*
G01X985258Y226756D01*
G01X985258Y226756D01*
G01X981720Y230294D01*
G01X978185Y233828D01*
G01X974650Y237363D01*
G01X971115Y240899D01*
G01X967579Y244434D01*
G01X964044Y247970D01*
G01X960508Y251505D01*
G01X956973Y255041D01*
G01X953437Y258576D01*
G01X949902Y262112D01*
G01X946367Y265647D01*
G01X942831Y269183D01*
G01X936856Y275158D01*
G01X936454Y275854D01*
G01X932045Y278400D01*
G01X897537Y278400D01*
G01X895690Y281600D01*
G01X900299Y289584D01*
G01X900299Y299015D01*
G01X895690Y307000D01*
G01X900299Y314984D01*
G01X900299Y324415D01*
G01X895690Y332400D01*
G01X900299Y340384D01*
G01X900299Y349815D01*
G01X895690Y357800D01*
G01X900299Y365784D01*
G01X900299Y374485D01*
G01X900299Y374485D01*
G01X903834Y378019D01*
G01X907370Y381555D01*
G01X910905Y385091D01*
G01X914441Y388626D01*
G01X917977Y392162D01*
G01X921512Y395698D01*
G01X925048Y399233D01*
G01X928583Y402769D01*
G01X932119Y406304D01*
G01X935654Y409840D01*
G01X939190Y413375D01*
G01X942726Y416911D01*
G01X946261Y420446D01*
G01X949797Y423982D01*
G01X953332Y427518D01*
G01X956868Y431053D01*
G01X960403Y434589D01*
G01X963939Y438124D01*
G01X967474Y441660D01*
G01X971010Y445195D01*
G01X974545Y448731D01*
G01X978081Y452266D01*
G01X984258Y458443D01*
G01X984954Y458845D01*
G01X987500Y463254D01*
G01X987500Y465800D01*
G01X987500Y470800D01*
G01X987500Y475800D01*
G01X987500Y480800D01*
G01X987500Y485800D01*
G01X987500Y490800D01*
G01X987500Y495800D01*
G01X987500Y500800D01*
G01X987500Y505800D01*
G01X987500Y510800D01*
G01X987500Y515800D01*
G01X987500Y520800D01*
G01X987500Y525800D01*
G01X987500Y530800D01*
G01X987500Y535800D01*
G01X987500Y540800D01*
G01X987500Y545800D01*
G01X987500Y550800D01*
G01X987500Y555800D01*
G01X987500Y560800D01*
G01X987500Y565800D01*
G01X987500Y570800D01*
G01X987500Y575800D01*
G01X987500Y580800D01*
G01X987500Y585800D01*
G01X987500Y590800D01*
G01X987500Y595800D01*
G01X987500Y600800D01*
G01X987500Y605800D01*
G01X987500Y610800D01*
G01X987500Y615000D01*
G01X987500Y617545D01*
G01X984954Y621954D01*
G01X984258Y622356D01*
G01X984258Y622356D01*
G01X980719Y625895D01*
G01X977185Y629429D01*
G01X973650Y632964D01*
G01X970115Y636499D01*
G01X966579Y640034D01*
G01X963044Y643570D01*
G01X959508Y647105D01*
G01X955973Y650641D01*
G01X952437Y654176D01*
G01X948902Y657712D01*
G01X945366Y661247D01*
G01X939614Y667000D01*
G01X958500Y667000D01*
G01X958500Y684000D01*
G01X958500Y701000D01*
G01X934614Y701000D01*
G01X927856Y707758D01*
G01X927454Y708454D01*
G01X923045Y711000D01*
G01X918045Y711000D01*
G01X913045Y711000D01*
G01X908045Y711000D01*
G01X903045Y711000D01*
G01X898045Y711000D01*
G01X893045Y711000D01*
G01X888045Y711000D01*
G01X883045Y711000D01*
G01X878045Y711000D01*
G01X873045Y711000D01*
G01X868045Y711000D01*
G01X863045Y711000D01*
G01X858045Y711000D01*
G01X853045Y711000D01*
G01X848045Y711000D01*
G01X843045Y711000D01*
G01X838045Y711000D01*
G01X833045Y711000D01*
G01X828045Y711000D01*
G01X823045Y711000D01*
G01X818045Y711000D01*
G01X813045Y711000D01*
G01X808045Y711000D01*
G01X803045Y711000D01*
G01X798045Y711000D01*
G01X793045Y711000D01*
G01X788045Y711000D01*
G01X783045Y711000D01*
G01X778045Y711000D01*
G01X773045Y711000D01*
G01X768045Y711000D01*
G01X763045Y711000D01*
G01X758045Y711000D01*
G01X753045Y711000D01*
G01X748045Y711000D01*
G01X743045Y711000D01*
G01X738045Y711000D01*
G01X734454Y711000D01*
G01X730045Y708454D01*
G01X729643Y707758D01*
G01X716385Y694500D01*
G01X696000Y694500D01*
G01X696000Y677500D01*
G01X696000Y660500D01*
G01X730000Y660500D01*
G01X730000Y677500D01*
G01X730000Y680885D01*
G01X741114Y692000D01*
G01X756317Y692000D01*
G01X756116Y691883D01*
G01X751400Y683715D01*
G01X751400Y674284D01*
G01X756116Y666116D01*
G01X764284Y661400D01*
G01X773715Y661400D01*
G01X781700Y666009D01*
G01X789684Y661400D01*
G01X799115Y661400D01*
G01X807100Y666009D01*
G01X815084Y661400D01*
G01X819485Y661400D01*
G01X834643Y646241D01*
G01X835045Y645545D01*
G01X839454Y643000D01*
G01X873500Y643000D01*
G01X873500Y631000D01*
G01X873500Y618599D01*
G01X870884Y618599D01*
G01X862716Y613883D01*
G01X858000Y605715D01*
G01X858000Y596284D01*
G01X862716Y588116D01*
G01X870884Y583400D01*
G01X880315Y583400D01*
G01X888300Y588009D01*
G01X896284Y583400D01*
G01X905715Y583400D01*
G01X913883Y588116D01*
G01X918599Y596284D01*
G01X918599Y600785D01*
G01X927000Y592385D01*
G01X927000Y587385D01*
G01X927000Y582385D01*
G01X927000Y577385D01*
G01X927000Y572385D01*
G01X927000Y567385D01*
G01X927000Y562385D01*
G01X927000Y557385D01*
G01X927000Y552385D01*
G01X927000Y547385D01*
G01X927000Y542385D01*
G01X927000Y537385D01*
G01X927000Y532385D01*
G01X927000Y527385D01*
G01X927000Y522385D01*
G01X927000Y517385D01*
G01X927000Y512385D01*
G01X927000Y507385D01*
G01X927000Y502385D01*
G01X927000Y497385D01*
G01X927000Y492385D01*
G01X927000Y487385D01*
G01X927000Y482385D01*
G01X927000Y479214D01*
G01X899897Y452112D01*
G01X895690Y459400D01*
G01X900299Y467384D01*
G01X900299Y476815D01*
G01X895583Y484983D01*
G01X887415Y489699D01*
G01X879615Y497499D01*
G01X887415Y505300D01*
G01X895583Y510016D01*
G01X900299Y518184D01*
G01X900299Y527615D01*
G01X895690Y535600D01*
G01X900299Y543584D01*
G01X900299Y553015D01*
G01X895583Y561183D01*
G01X887415Y565899D01*
G01X877984Y565899D01*
G01X870000Y561290D01*
G01X862015Y565899D01*
G01X852584Y565899D01*
G01X844416Y561183D01*
G01X839700Y553015D01*
G01X839700Y543584D01*
G01X844309Y535600D01*
G01X842462Y532400D01*
G01X816614Y532400D01*
G01X816614Y532400D01*
G01X813084Y535930D01*
G01X809546Y539468D01*
G01X806009Y543004D01*
G01X802473Y546540D01*
G01X798937Y550076D01*
G01X795402Y553612D01*
G01X791866Y557148D01*
G01X788330Y560683D01*
G01X784795Y564219D01*
G01X781259Y567754D01*
G01X777724Y571290D01*
G01X774188Y574825D01*
G01X768814Y580200D01*
G01X772014Y583400D01*
G01X778715Y583400D01*
G01X786700Y588009D01*
G01X794684Y583400D01*
G01X804115Y583400D01*
G01X812100Y588009D01*
G01X820084Y583400D01*
G01X829515Y583400D01*
G01X837683Y588116D01*
G01X842399Y596284D01*
G01X842399Y605715D01*
G01X837683Y613883D01*
G01X829515Y618599D01*
G01X820084Y618599D01*
G01X812100Y613990D01*
G01X804115Y618599D01*
G01X794684Y618599D01*
G01X786700Y613990D01*
G01X778715Y618599D01*
G01X769284Y618599D01*
G01X761116Y613883D01*
G01X756400Y605715D01*
G01X756400Y599026D01*
G01X753194Y595820D01*
G01X753194Y595820D01*
G01X749659Y599355D01*
G01X746123Y602891D01*
G01X742587Y606426D01*
G01X739052Y609962D01*
G01X735516Y613497D01*
G01X731981Y617033D01*
G01X728445Y620568D01*
G01X724910Y624104D01*
G01X721374Y627640D01*
G01X717839Y631175D01*
G01X714303Y634711D01*
G01X710768Y638246D01*
G01X707232Y641782D01*
G01X703696Y645317D01*
G01X700161Y648853D01*
G01X696625Y652388D01*
G01X693090Y655924D01*
G01X689554Y659459D01*
G01X686019Y662995D01*
G01X682483Y666530D01*
G01X678948Y670066D01*
G01X675412Y673601D01*
G01X671877Y677137D01*
G01X668341Y680673D01*
G01X664806Y684208D01*
G01X661270Y687744D01*
G01X657734Y691279D01*
G01X654199Y694815D01*
G01X650663Y698350D01*
G01X647128Y701886D01*
G01X643592Y705421D01*
G01X640057Y708957D01*
G01X635256Y713758D01*
G01X634854Y714454D01*
G01X630445Y717000D01*
G01X630445Y717000D01*
G01X625445Y717000D01*
G01X620445Y717000D01*
G01X615445Y717000D01*
G01X610445Y717000D01*
G01X605445Y717000D01*
G01X600445Y717000D01*
G01X595445Y717000D01*
G01X590445Y717000D01*
G01X585445Y717000D01*
G01X580445Y717000D01*
G01X575445Y717000D01*
G01X570445Y717000D01*
G01X565445Y717000D01*
G01X560445Y717000D01*
G01X555445Y717000D01*
G01X550445Y717000D01*
G01X545445Y717000D01*
G01X540445Y717000D01*
G01X535445Y717000D01*
G01X530445Y717000D01*
G01X525445Y717000D01*
G01X520445Y717000D01*
G01X515445Y717000D01*
G01X510445Y717000D01*
G01X505445Y717000D01*
G01X500445Y717000D01*
G01X495445Y717000D01*
G01X490445Y717000D01*
G01X485445Y717000D01*
G01X480445Y717000D01*
G01X475445Y717000D01*
G01X470445Y717000D01*
G01X465445Y717000D01*
G01X460445Y717000D01*
G01X455445Y717000D01*
G01X450445Y717000D01*
G01X445445Y717000D01*
G01X440445Y717000D01*
G01X435445Y717000D01*
G01X430445Y717000D01*
G01X425445Y717000D01*
G01X420445Y717000D01*
G01X415445Y717000D01*
G01X410445Y717000D01*
G01X405445Y717000D01*
G01X400445Y717000D01*
G01X395445Y717000D01*
G01X390445Y717000D01*
G01X385445Y717000D01*
G01X380445Y717000D01*
G01X375445Y717000D01*
G01X370445Y717000D01*
G01X368954Y717000D01*
G01X364545Y714454D01*
G01X364143Y713758D01*
G01X358249Y707864D01*
G01X352356Y713758D01*
G01X351954Y714454D01*
G01X347545Y717000D01*
G01X342545Y717000D01*
G01X337545Y717000D01*
G01X332545Y717000D01*
G01X327545Y717000D01*
G01X322545Y717000D01*
G01X317545Y717000D01*
G01X312545Y717000D01*
G01X307545Y717000D01*
G01X302545Y717000D01*
G01X297545Y717000D01*
G01X292545Y717000D01*
G01X287545Y717000D01*
G01X282545Y717000D01*
G01X277545Y717000D01*
G01X272545Y717000D01*
G01X267545Y717000D01*
G01X262545Y717000D01*
G01X257545Y717000D01*
G01X252545Y717000D01*
G01X247545Y717000D01*
G01X242545Y717000D01*
G01X237545Y717000D01*
G01X232545Y717000D01*
G01X227545Y717000D01*
G01X222545Y717000D01*
G01X217545Y717000D01*
G01X212545Y717000D01*
G01X207545Y717000D01*
G01X202545Y717000D01*
G01X197545Y717000D01*
G01X192545Y717000D01*
G01X187545Y717000D01*
G01X182545Y717000D01*
G01X177545Y717000D01*
G01X172545Y717000D01*
G01X167545Y717000D01*
G01X162545Y717000D01*
G01X157545Y717000D01*
G01X152545Y717000D01*
G01X147545Y717000D01*
G01X142545Y717000D01*
G01X137545Y717000D01*
G01X133454Y717000D01*
G01X129045Y714454D01*
G01X128643Y713758D01*
G01X128643Y713758D01*
G01X125106Y710221D01*
G01X121571Y706686D01*
G01X118036Y703151D01*
G01X114501Y699615D01*
G01X110965Y696080D01*
G01X107430Y692544D01*
G01X103894Y689009D01*
G01X100359Y685473D01*
G01X96823Y681938D01*
G01X90741Y675856D01*
G01X90045Y675454D01*
G01X87500Y671045D01*
G01X87500Y665954D01*
G01X87500Y660954D01*
G01X87500Y655954D01*
G01X87500Y650954D01*
G01X87500Y645954D01*
G01X87500Y640954D01*
G01X87500Y635954D01*
G01X87500Y630954D01*
G01X87500Y625954D01*
G01X87500Y620954D01*
G01X87500Y615954D01*
G01X87500Y610954D01*
G01X87500Y605954D01*
G01X87500Y600954D01*
G01X87500Y595954D01*
G01X87500Y590954D01*
G01X87500Y585954D01*
G01X87500Y580954D01*
G01X87500Y575954D01*
G01X87500Y570954D01*
G01X87500Y565954D01*
G01X87500Y560954D01*
G01X87500Y555954D01*
G01X87500Y550954D01*
G01X87500Y545954D01*
G01X87500Y540954D01*
G01X87500Y535954D01*
G01X87500Y530954D01*
G01X87500Y525954D01*
G01X87500Y520954D01*
G01X87500Y515954D01*
G01X87500Y510954D01*
G01X87500Y505954D01*
G01X87500Y500954D01*
G01X87500Y495954D01*
G01X87500Y490954D01*
G01X87500Y485954D01*
G01X87500Y480954D01*
G01X87500Y475954D01*
G01X87500Y470954D01*
G01X87500Y465954D01*
G01X87500Y460954D01*
G01X87500Y455954D01*
G01X87500Y450954D01*
G01X87500Y445954D01*
G01X87500Y440954D01*
G01X87500Y435954D01*
G01X87500Y430954D01*
G01X87500Y425954D01*
G01X87500Y420954D01*
G01X87500Y415954D01*
G01X87500Y412314D01*
G01X79599Y404414D01*
G01X79599Y406315D01*
G01X74990Y414300D01*
G01X79599Y422284D01*
G01X79599Y431715D01*
G01X74883Y439883D01*
G01X66715Y444599D01*
G01X57284Y444599D01*
G01X49116Y439883D01*
G01X44400Y431715D01*
G01X44400Y422284D01*
G01X49009Y414300D01*
G01X44400Y406315D01*
G01X44400Y396884D01*
G01X49009Y388900D01*
G01X44400Y380915D01*
G01X44400Y371484D01*
G01X49009Y363500D01*
G01X44400Y355515D01*
G01X44400Y346084D01*
G01X49116Y337916D01*
G01X57284Y333200D01*
G01X66715Y333200D01*
G01X74883Y337916D01*
G01X79599Y346084D01*
G01X79599Y355515D01*
G01X74990Y363500D01*
G01X79599Y371484D01*
G01X79599Y377185D01*
G01X103258Y400843D01*
G01X103954Y401245D01*
G01X106500Y405654D01*
G01X106500Y408200D01*
G01X106500Y413200D01*
G01X106500Y418200D01*
G01X106500Y423200D01*
G01X106500Y428200D01*
G01X106500Y433200D01*
G01X106500Y438200D01*
G01X106500Y443200D01*
G01X106500Y448200D01*
G01X106500Y453200D01*
G01X106500Y458200D01*
G01X106500Y463200D01*
G01X106500Y468200D01*
G01X106500Y473200D01*
G01X106500Y478200D01*
G01X106500Y483200D01*
G01X106500Y488200D01*
G01X106500Y493200D01*
G01X106500Y498200D01*
G01X106500Y503200D01*
G01X106500Y508200D01*
G01X106500Y513200D01*
G01X106500Y518200D01*
G01X106500Y523200D01*
G01X106500Y528200D01*
G01X106500Y533200D01*
G01X106500Y538200D01*
G01X106500Y543200D01*
G01X106500Y548200D01*
G01X106500Y553200D01*
G01X106500Y558200D01*
G01X106500Y563200D01*
G01X106500Y568200D01*
G01X106500Y573200D01*
G01X106500Y578200D01*
G01X106500Y583200D01*
G01X106500Y588200D01*
G01X106500Y593200D01*
G01X106500Y598200D01*
G01X106500Y603200D01*
G01X106500Y608200D01*
G01X106500Y613200D01*
G01X106500Y618200D01*
G01X106500Y623200D01*
G01X106500Y628200D01*
G01X106500Y633200D01*
G01X106500Y638200D01*
G01X106500Y643200D01*
G01X106500Y648200D01*
G01X106500Y653200D01*
G01X106500Y658200D01*
G01X106500Y663200D01*
G01X106500Y664385D01*
G01X123100Y680985D01*
G01X123100Y676284D01*
G01X127709Y668300D01*
G01X123100Y660315D01*
G01X123100Y650884D01*
G01X127709Y642900D01*
G01X123100Y634915D01*
G01X123100Y625484D01*
G01X127709Y617500D01*
G01X123100Y609515D01*
G01X123100Y600084D01*
G01X127709Y592100D01*
G01X123100Y584115D01*
G01X123100Y574684D01*
G01X127709Y566700D01*
G01X123100Y558715D01*
G01X123100Y549284D01*
G01X127709Y541300D01*
G01X123100Y533315D01*
G01X123100Y523884D01*
G01X127709Y515900D01*
G01X123100Y507915D01*
G01X123100Y498484D01*
G01X127709Y490500D01*
G01X123100Y482515D01*
G01X123100Y473084D01*
G01X127709Y465100D01*
G01X123100Y457115D01*
G01X123100Y447684D01*
G01X127709Y439700D01*
G01X123100Y431715D01*
G01X123100Y422284D01*
G01X127816Y414116D01*
G01X135984Y409400D01*
G01X145415Y409400D01*
G01X153583Y414116D01*
G01X158299Y422284D01*
G01X158299Y431715D01*
G01X153690Y439700D01*
G01X158299Y447684D01*
G01X158299Y457115D01*
G01X153690Y465100D01*
G01X158299Y473084D01*
G01X158299Y482515D01*
G01X153690Y490500D01*
G01X158299Y498484D01*
G01X158299Y507915D01*
G01X153690Y515900D01*
G01X158299Y523884D01*
G01X158299Y533315D01*
G01X153690Y541300D01*
G01X158299Y549284D01*
G01X158299Y558715D01*
G01X153690Y566700D01*
G01X158299Y574684D01*
G01X158299Y584115D01*
G01X153690Y592100D01*
G01X158299Y600084D01*
G01X158299Y609515D01*
G01X153690Y617500D01*
G01X158299Y625484D01*
G01X158299Y634915D01*
G01X153690Y642900D01*
G01X158299Y650884D01*
G01X158299Y660315D01*
G01X153690Y668300D01*
G01X158299Y676284D01*
G01X158299Y685715D01*
G01X153583Y693883D01*
G01X152825Y694321D01*
G01X152825Y698000D01*
G01X193874Y698000D01*
G01X193874Y693521D01*
G01X193116Y693083D01*
G01X188400Y684915D01*
G01X188400Y675484D01*
G01X193009Y667500D01*
G01X188400Y659515D01*
G01X188400Y650084D01*
G01X193009Y642100D01*
G01X188400Y634115D01*
G01X188400Y624684D01*
G01X193009Y616700D01*
G01X188400Y608715D01*
G01X188400Y599284D01*
G01X193009Y591300D01*
G01X188400Y583315D01*
G01X188400Y573884D01*
G01X193009Y565900D01*
G01X188400Y557915D01*
G01X188400Y548484D01*
G01X193009Y540500D01*
G01X188400Y532515D01*
G01X188400Y523084D01*
G01X193009Y515100D01*
G01X188400Y507115D01*
G01X188400Y497684D01*
G01X193116Y489516D01*
G01X201284Y484800D01*
G01X210715Y484800D01*
G01X218883Y489516D01*
G01X220000Y491449D01*
G01X220000Y486449D01*
G01X220000Y481449D01*
G01X220000Y476449D01*
G01X220000Y471449D01*
G01X220000Y466449D01*
G01X220000Y461449D01*
G01X220000Y456449D01*
G01X220000Y451449D01*
G01X220000Y446449D01*
G01X220000Y441449D01*
G01X220000Y436449D01*
G01X220000Y431449D01*
G01X220000Y426449D01*
G01X220000Y421449D01*
G01X220000Y416449D01*
G01X220000Y411449D01*
G01X220000Y406449D01*
G01X220000Y401449D01*
G01X220000Y396449D01*
G01X220000Y391449D01*
G01X220000Y386449D01*
G01X220000Y381449D01*
G01X220000Y376449D01*
G01X220000Y371449D01*
G01X220000Y366449D01*
G01X220000Y366000D01*
G01X212500Y366000D01*
G01X212500Y349000D01*
G01X212500Y332000D01*
G01X236500Y332000D01*
G01X238192Y330307D01*
G01X232385Y324500D01*
G01X227385Y324500D01*
G01X222385Y324500D01*
G01X217385Y324500D01*
G01X212385Y324500D01*
G01X207385Y324500D01*
G01X202385Y324500D01*
G01X197385Y324500D01*
G01X192385Y324500D01*
G01X187385Y324500D01*
G01X182385Y324500D01*
G01X177385Y324500D01*
G01X172385Y324500D01*
G01X167385Y324500D01*
G01X162385Y324500D01*
G01X157385Y324500D01*
G01X152385Y324500D01*
G01X147385Y324500D01*
G01X142385Y324500D01*
G01X137385Y324500D01*
G01X132385Y324500D01*
G01X127385Y324500D01*
G01X122385Y324500D01*
G01X117385Y324500D01*
G01X112385Y324500D01*
G01X107385Y324500D01*
G01X102385Y324500D01*
G01X97385Y324500D01*
G01X92385Y324500D01*
G01X87385Y324500D01*
G01X82385Y324500D01*
G01X77385Y324500D01*
G01X72385Y324500D01*
G01X67385Y324500D01*
G01X62385Y324500D01*
G01X57385Y324500D01*
G01X52385Y324500D01*
G01X47385Y324500D01*
G01X42385Y324500D01*
G01X37385Y324500D01*
G01X32385Y324500D01*
G01X31954Y324500D01*
G01X27545Y321954D01*
G01X27143Y321258D01*
G01X16241Y310356D01*
G01X15545Y309954D01*
G01X13000Y305545D01*
G01X13000Y300454D01*
G01X13000Y295454D01*
G01X13000Y290454D01*
G01X13000Y285454D01*
G01X13000Y280454D01*
G01X13000Y275454D01*
G01X13000Y270454D01*
G01X13000Y265454D01*
G01X13000Y260454D01*
G01X13000Y255454D01*
G01X13000Y250454D01*
G01X13000Y245454D01*
G01X13000Y240454D01*
G01X13000Y235454D01*
G01X13000Y230454D01*
G01X13000Y225454D01*
G01X13000Y222445D01*
G01X13000Y219900D01*
G01X13000Y217354D01*
G01X15545Y212945D01*
G01X16241Y212543D01*
G01X43485Y185299D01*
G01X36284Y185299D01*
G01X28116Y180583D01*
G01X23400Y172415D01*
G01X23400Y162984D01*
G01X28009Y155000D01*
G01X23400Y147015D01*
G01X23400Y137584D01*
G01X28116Y129416D01*
G01X36284Y124700D01*
G01X45715Y124700D01*
G01X53883Y129416D01*
G01X58599Y137584D01*
G01X58599Y147015D01*
G01X53990Y155000D01*
G01X58599Y162984D01*
G01X58599Y170185D01*
G01X84394Y144390D01*
G01X83516Y143883D01*
G01X78800Y135715D01*
G01X78800Y126284D01*
G01X83516Y118116D01*
G01X91684Y113400D01*
G01X101115Y113400D01*
G01X109100Y118009D01*
G01X117084Y113400D01*
G01X126515Y113400D01*
G01X134500Y118009D01*
G01X142484Y113400D01*
G01X151915Y113400D01*
G01X159900Y118009D01*
G01X167884Y113400D01*
G01X177315Y113400D01*
G01X185300Y118009D01*
G01X193284Y113400D01*
G01X202715Y113400D01*
G01X210700Y118009D01*
G01X218684Y113400D01*
G01X228115Y113400D01*
G01X236100Y118009D01*
G01X244084Y113400D01*
G01X253515Y113400D01*
G01X261500Y118009D01*
G01X269484Y113400D01*
G01X278915Y113400D01*
G01X287083Y118116D01*
G01X291799Y126284D01*
G01X291799Y135715D01*
G01X287083Y143883D01*
G01X278915Y148599D01*
G01X269484Y148599D01*
G01X261500Y143990D01*
G01X253515Y148599D01*
G01X244084Y148599D01*
G01X236100Y143990D01*
G01X228115Y148599D01*
G01X218684Y148599D01*
G01X210700Y143990D01*
G01X202715Y148599D01*
G01X193284Y148599D01*
G01X185300Y143990D01*
G01X177315Y148599D01*
G01X167884Y148599D01*
G01X159900Y143990D01*
G01X151915Y148599D01*
G01X142484Y148599D01*
G01X134500Y143990D01*
G01X126515Y148599D01*
G01X117084Y148599D01*
G01X109100Y143990D01*
G01X105900Y145837D01*
G01X105900Y146000D01*
G01X105900Y148545D01*
G01X103354Y152954D01*
G01X102658Y153356D01*
G01X75114Y180900D01*
G01X75715Y180900D01*
G01X83700Y185509D01*
G01X91684Y180900D01*
G01X101115Y180900D01*
G01X109100Y185509D01*
G01X117084Y180900D01*
G01X126515Y180900D01*
G01X134500Y185509D01*
G01X142484Y180900D01*
G01X151915Y180900D01*
G01X159900Y185509D01*
G01X167884Y180900D01*
G01X177315Y180900D01*
G01X185300Y185509D01*
G01X193284Y180900D01*
G01X202715Y180900D01*
G01X210700Y185509D01*
G01X218684Y180900D01*
G01X228115Y180900D01*
G01X236100Y185509D01*
G01X244084Y180900D01*
G01X253515Y180900D01*
G01X261500Y185509D01*
G01X269484Y180900D01*
G01X278915Y180900D01*
G01X287083Y185616D01*
G01X291799Y193784D01*
G01X291799Y203215D01*
G01X287083Y211383D01*
G01X278915Y216099D01*
G01X269484Y216099D01*
G01X261500Y211490D01*
G01X253515Y216099D01*
G01X244084Y216099D01*
G01X236100Y211490D01*
G01X228115Y216099D01*
G01X218684Y216099D01*
G01X210700Y211490D01*
G01X202715Y216099D01*
G01X193284Y216099D01*
G01X185300Y211490D01*
G01X177315Y216099D01*
G01X167884Y216099D01*
G01X159900Y211490D01*
G01X151915Y216099D01*
G01X142484Y216099D01*
G01X134500Y211490D01*
G01X126515Y216099D01*
G01X117084Y216099D01*
G01X109100Y211490D01*
G01X101115Y216099D01*
G01X91684Y216099D01*
G01X83700Y211490D01*
G01X75715Y216099D01*
G01X71514Y216099D01*
G01X57599Y230014D01*
G01X57599Y239015D01*
G01X52990Y247000D01*
G01X57599Y254984D01*
G01X57599Y264415D01*
G01X52883Y272583D01*
G01X44715Y277299D01*
G01X35284Y277299D01*
G01X32000Y275403D01*
G01X32000Y280500D01*
G01X65500Y280500D01*
G01X65500Y288000D01*
G01X83717Y288000D01*
G01X83516Y287883D01*
G01X78800Y279715D01*
G01X78800Y270284D01*
G01X83516Y262116D01*
G01X91684Y257400D01*
G01X101115Y257400D01*
G01X109100Y262009D01*
G01X117084Y257400D01*
G01X126515Y257400D01*
G01X134500Y262009D01*
G01X142484Y257400D01*
G01X151915Y257400D01*
G01X159900Y262009D01*
G01X167884Y257400D01*
G01X177315Y257400D01*
G01X185300Y262009D01*
G01X193284Y257400D01*
G01X202715Y257400D01*
G01X210700Y262009D01*
G01X218684Y257400D01*
G01X228115Y257400D01*
G01X236100Y262009D01*
G01X244084Y257400D01*
G01X253515Y257400D01*
G01X261500Y262009D01*
G01X269484Y257400D01*
G01X278915Y257400D01*
G01X287083Y262116D01*
G01X291799Y270284D01*
G01X291799Y279715D01*
G01X291522Y280196D01*
G01X294355Y283029D01*
G01X298643Y278741D01*
G01X299045Y278045D01*
G01X299741Y277643D01*
G01X301500Y275885D01*
G01X301500Y270885D01*
G01X301500Y265885D01*
G01X301500Y260885D01*
G01X301500Y255885D01*
G01X301500Y250885D01*
G01X301500Y245885D01*
G01X301500Y240885D01*
G01X301500Y235885D01*
G01X301500Y230885D01*
G01X301500Y225885D01*
G01X301500Y220885D01*
G01X301500Y215885D01*
G01X301500Y210885D01*
G01X301500Y205885D01*
G01X301500Y200885D01*
G01X301500Y195885D01*
G01X301500Y190885D01*
G01X301500Y185885D01*
G01X301500Y180885D01*
G01X301500Y175885D01*
G01X301500Y170885D01*
G01X301500Y165885D01*
G01X301500Y160885D01*
G01X301500Y155885D01*
G01X301500Y150885D01*
G01X301500Y145885D01*
G01X301500Y140885D01*
G01X301500Y140045D01*
G01X301500Y137500D01*
G01X301500Y134954D01*
G01X304045Y130545D01*
G01X304741Y130143D01*
G01X327643Y107241D01*
G01X328045Y106545D01*
G01X332454Y104000D01*
G01X337454Y104000D01*
G01X342454Y104000D01*
G01X347454Y104000D01*
G01X352454Y104000D01*
G01X357454Y104000D01*
G01X362454Y104000D01*
G01X367454Y104000D01*
G01X372454Y104000D01*
G01X377454Y104000D01*
G01X382454Y104000D01*
G01X387454Y104000D01*
G01X392454Y104000D01*
G01X396317Y104000D01*
G01X396116Y103883D01*
G01X391400Y95715D01*
G01X391400Y86284D01*
G01X396009Y78300D01*
G01X391400Y70315D01*
G01X391400Y60884D01*
G01X387099Y60784D01*
G01X387099Y70215D01*
G01X382383Y78383D01*
G01X374215Y83099D01*
G01X374215Y83099D01*
G01X364784Y83099D01*
G01X356616Y78383D01*
G01X351900Y70215D01*
G01X351900Y60784D01*
G01X356616Y52616D01*
G01X364784Y47900D01*
G01X374215Y47900D01*
G01X382383Y52616D01*
G01X387099Y60784D01*
G01X391400Y60884D01*
G01X396009Y52900D01*
G01X391400Y44915D01*
G01X391400Y35484D01*
G01X396116Y27316D01*
G01X404284Y22600D01*
G01X413715Y22600D01*
G01X421883Y27316D01*
G01X426599Y35484D01*
G01X426599Y44915D01*
G01X421990Y52900D01*
G01X426599Y60884D01*
G01X426599Y70315D01*
G01X421990Y78300D01*
G01X426599Y86284D01*
G01X426599Y95715D01*
G01X421883Y103883D01*
G01X421682Y104000D01*
G01X426682Y104000D01*
G01X431682Y104000D01*
G01X436682Y104000D01*
G01X441682Y104000D01*
G01X446682Y104000D01*
G01X451682Y104000D01*
G01X456682Y104000D01*
G01X461682Y104000D01*
G01X466682Y104000D01*
G01X471682Y104000D01*
G01X476682Y104000D01*
G01X477317Y104000D01*
G01X477116Y103883D01*
G01X472400Y95715D01*
G01X472400Y86284D01*
G01X477009Y78300D01*
G01X472400Y70315D01*
G01X472400Y60884D01*
G01X468099Y60784D01*
G01X468099Y70215D01*
G01X463383Y78383D01*
G01X455215Y83099D01*
G01X455215Y83099D01*
G01X445784Y83099D01*
G01X437616Y78383D01*
G01X432900Y70215D01*
G01X432900Y60784D01*
G01X437616Y52616D01*
G01X445784Y47900D01*
G01X455215Y47900D01*
G01X463383Y52616D01*
G01X468099Y60784D01*
G01X472400Y60884D01*
G01X477009Y52900D01*
G01X472400Y44915D01*
G01X472400Y35484D01*
G01X477116Y27316D01*
G01X485284Y22600D01*
G01X494715Y22600D01*
G01X502883Y27316D01*
G01X507599Y35484D01*
G01X507599Y44915D01*
G01X502990Y52900D01*
G01X507599Y60884D01*
G01X507599Y70315D01*
G01X502990Y78300D01*
G01X507599Y86284D01*
G01X507599Y95715D01*
G01X502883Y103883D01*
G01X502682Y104000D01*
G01X538045Y104000D01*
G01X542454Y106545D01*
G01X542856Y107241D01*
G01X569114Y133500D01*
G01X589500Y133500D01*
G01X589500Y150500D01*
G01X589500Y160900D01*
G01X601485Y160900D01*
G01X601485Y160900D01*
G01X605020Y157364D01*
G01X608556Y153828D01*
G01X612091Y150293D01*
G01X615627Y146757D01*
G01X619163Y143222D01*
G01X622698Y139686D01*
G01X626234Y136151D01*
G01X629769Y132615D01*
G01X633305Y129080D01*
G01X636840Y125544D01*
G01X640376Y122009D01*
G01X643911Y118473D01*
G01X647447Y114938D01*
G01X650982Y111402D01*
G01X655247Y107138D01*
G01X652715Y108599D01*
G01X643284Y108599D01*
G01X635116Y103883D01*
G01X630400Y95715D01*
G01X630400Y86284D01*
G01X635009Y78300D01*
G01X630400Y70315D01*
G01X630400Y60884D01*
G01X626099Y60784D01*
G01X626099Y70215D01*
G01X621383Y78383D01*
G01X613215Y83099D01*
G01X613215Y83099D01*
G01X603784Y83099D01*
G01X595616Y78383D01*
G01X590900Y70215D01*
G01X590900Y60784D01*
G01X586599Y60884D01*
G01X586599Y70315D01*
G01X581990Y78300D01*
G01X586599Y86284D01*
G01X586599Y95715D01*
G01X581883Y103883D01*
G01X573715Y108599D01*
G01X573715Y108599D01*
G01X564284Y108599D01*
G01X556116Y103883D01*
G01X551400Y95715D01*
G01X551400Y86284D01*
G01X556009Y78300D01*
G01X551400Y70315D01*
G01X551400Y60884D01*
G01X549099Y60784D01*
G01X549099Y70215D01*
G01X544383Y78383D01*
G01X536215Y83099D01*
G01X536215Y83099D01*
G01X526784Y83099D01*
G01X518616Y78383D01*
G01X513900Y70215D01*
G01X513900Y60784D01*
G01X518616Y52616D01*
G01X526784Y47900D01*
G01X536215Y47900D01*
G01X544383Y52616D01*
G01X549099Y60784D01*
G01X551400Y60884D01*
G01X556009Y52900D01*
G01X551400Y44915D01*
G01X551400Y35484D01*
G01X556116Y27316D01*
G01X564284Y22600D01*
G01X573715Y22600D01*
G01X581883Y27316D01*
G01X586599Y35484D01*
G01X586599Y44915D01*
G01X581990Y52900D01*
G01X586599Y60884D01*
G01X590900Y60784D01*
G01X595616Y52616D01*
G01X603784Y47900D01*
G01X613215Y47900D01*
G01X621383Y52616D01*
G01X626099Y60784D01*
G01X630400Y60884D01*
G01X635009Y52900D01*
G01X630400Y44915D01*
G01X630400Y35484D01*
G01X635116Y27316D01*
G01X643284Y22600D01*
G01X652715Y22600D01*
G01X660883Y27316D01*
G01X665599Y35484D01*
G01X665599Y44915D01*
G01X660990Y52900D01*
G01X665599Y60884D01*
G01X665599Y61161D01*
G01X670500Y61161D01*
G01X670500Y61045D01*
G01X670500Y58500D01*
G01X670500Y55954D01*
G01X673045Y51545D01*
G01X673741Y51143D01*
G01X673741Y51143D01*
G01X677277Y47607D01*
G01X680813Y44072D01*
G01X684348Y40536D01*
G01X687884Y37001D01*
G01X691419Y33465D01*
G01X694955Y29930D01*
G01X698490Y26394D01*
G01X702026Y22859D01*
G01X705561Y19323D01*
G01X712143Y12741D01*
G01X712545Y12045D01*
G01X716954Y9500D01*
G01X718000Y2000D01*
G01X713000Y2000D01*
G01X708000Y2000D01*
G01X703000Y2000D01*
G01X698000Y2000D01*
G01X693000Y2000D01*
G01X688000Y2000D01*
G01X683000Y2000D01*
G01X678000Y2000D01*
G01X673000Y2000D01*
G01X668000Y2000D01*
G01X663000Y2000D01*
G01X658000Y2000D01*
G01X653000Y2000D01*
G01X648000Y2000D01*
G01X643000Y2000D01*
G01X638000Y2000D01*
G01X633000Y2000D01*
G01X628000Y2000D01*
G01X623000Y2000D01*
G01X618000Y2000D01*
G01X613000Y2000D01*
G01X608000Y2000D01*
G01X603000Y2000D01*
G01X598000Y2000D01*
G01X593000Y2000D01*
G01X588000Y2000D01*
G01X583000Y2000D01*
G01X578000Y2000D01*
G01X573000Y2000D01*
G01X568000Y2000D01*
G01X563000Y2000D01*
G01X558000Y2000D01*
G01X553000Y2000D01*
G01X548000Y2000D01*
G01X543000Y2000D01*
G01X538000Y2000D01*
G01X533000Y2000D01*
G01X528000Y2000D01*
G01X523000Y2000D01*
G01X518000Y2000D01*
G01X513000Y2000D01*
G01X508000Y2000D01*
G01X503000Y2000D01*
G01X498000Y2000D01*
G01X493000Y2000D01*
G01X488000Y2000D01*
G01X483000Y2000D01*
G01X478000Y2000D01*
G01X473000Y2000D01*
G01X468000Y2000D01*
G01X463000Y2000D01*
G01X458000Y2000D01*
G01X453000Y2000D01*
G01X448000Y2000D01*
G01X443000Y2000D01*
G01X438000Y2000D01*
G01X433000Y2000D01*
G01X428000Y2000D01*
G01X423000Y2000D01*
G01X418000Y2000D01*
G01X413000Y2000D01*
G01X408000Y2000D01*
G01X403000Y2000D01*
G01X398000Y2000D01*
G01X393000Y2000D01*
G01X388000Y2000D01*
G01X383000Y2000D01*
G01X378000Y2000D01*
G01X373000Y2000D01*
G01X368000Y2000D01*
G01X363000Y2000D01*
G01X358000Y2000D01*
G01X353000Y2000D01*
G01X348000Y2000D01*
G01X343000Y2000D01*
G01X338000Y2000D01*
G01X333000Y2000D01*
G01X328000Y2000D01*
G01X323000Y2000D01*
G01X318000Y2000D01*
G01X313000Y2000D01*
G01X308000Y2000D01*
G01X303000Y2000D01*
G01X298000Y2000D01*
G01X293000Y2000D01*
G01X288000Y2000D01*
G01X283000Y2000D01*
G01X278000Y2000D01*
G01X273000Y2000D01*
G01X268000Y2000D01*
G01X263000Y2000D01*
G01X258000Y2000D01*
G01X253000Y2000D01*
G01X248000Y2000D01*
G01X243000Y2000D01*
G01X238000Y2000D01*
G01X233000Y2000D01*
G01X228000Y2000D01*
G01X223000Y2000D01*
G01X218000Y2000D01*
G01X213000Y2000D01*
G01X208000Y2000D01*
G01X203000Y2000D01*
G01X198000Y2000D01*
G01X193000Y2000D01*
G01X188000Y2000D01*
G01X183000Y2000D01*
G01X178000Y2000D01*
G01X173000Y2000D01*
G01X168000Y2000D01*
G01X163000Y2000D01*
G01X158000Y2000D01*
G01X153000Y2000D01*
G01X148000Y2000D01*
G01X143000Y2000D01*
G01X138000Y2000D01*
G01X133000Y2000D01*
G01X128000Y2000D01*
G01X123000Y2000D01*
G01X118000Y2000D01*
G01X113000Y2000D01*
G01X108000Y2000D01*
G01X103000Y2000D01*
G01X98000Y2000D01*
G01X93000Y2000D01*
G01X88000Y2000D01*
G01X83000Y2000D01*
G01X78000Y2000D01*
G01X73000Y2000D01*
G01X68000Y2000D01*
G01X63000Y2000D01*
G01X58000Y2000D01*
G01X53000Y2000D01*
G01X48000Y2000D01*
G01X43000Y2000D01*
G01X38000Y2000D01*
G01X33000Y2000D01*
G01X28000Y2000D01*
G01X23000Y2000D01*
G01X18000Y2000D01*
G01X13000Y2000D01*
G01X8000Y2000D01*
G01X3000Y2000D01*
G01X2000Y2000D01*
G01X2000Y7000D01*
G01X2000Y12000D01*
G01X2000Y17000D01*
G01X2000Y22000D01*
G01X2000Y27000D01*
G01X2000Y32000D01*
G01X2000Y37000D01*
G01X2000Y42000D01*
G01X2000Y47000D01*
G01X2000Y52000D01*
G01X2000Y57000D01*
G01X2000Y62000D01*
G01X22400Y62015D01*
G01X22400Y52584D01*
G01X27116Y44416D01*
G01X35284Y39700D01*
G01X44715Y39700D01*
G01X52883Y44416D01*
G01X54691Y47547D01*
G01X58116Y41616D01*
G01X66284Y36900D01*
G01X75715Y36900D01*
G01X83700Y41509D01*
G01X91684Y36900D01*
G01X101115Y36900D01*
G01X109100Y41509D01*
G01X117084Y36900D01*
G01X126515Y36900D01*
G01X134500Y41509D01*
G01X142484Y36900D01*
G01X151915Y36900D01*
G01X159900Y41509D01*
G01X167884Y36900D01*
G01X177315Y36900D01*
G01X185300Y41509D01*
G01X193284Y36900D01*
G01X202715Y36900D01*
G01X210700Y41509D01*
G01X218684Y36900D01*
G01X228115Y36900D01*
G01X236100Y41509D01*
G01X244084Y36900D01*
G01X253515Y36900D01*
G01X261500Y41509D01*
G01X269484Y36900D01*
G01X278915Y36900D01*
G01X287083Y41616D01*
G01X291799Y49784D01*
G01X291799Y59215D01*
G01X287083Y67383D01*
G01X278915Y72099D01*
G01X269484Y72099D01*
G01X261500Y67490D01*
G01X253515Y72099D01*
G01X244084Y72099D01*
G01X236100Y67490D01*
G01X228115Y72099D01*
G01X218684Y72099D01*
G01X210700Y67490D01*
G01X202715Y72099D01*
G01X193284Y72099D01*
G01X185300Y67490D01*
G01X177315Y72099D01*
G01X167884Y72099D01*
G01X159900Y67490D01*
G01X151915Y72099D01*
G01X142484Y72099D01*
G01X134500Y67490D01*
G01X126515Y72099D01*
G01X117084Y72099D01*
G01X109100Y67490D01*
G01X101115Y72099D01*
G01X91684Y72099D01*
G01X83700Y67490D01*
G01X75715Y72099D01*
G01X66284Y72099D01*
G01X58116Y67383D01*
G01X56308Y64252D01*
G01X52990Y70000D01*
G01X57599Y77984D01*
G01X57599Y87415D01*
G01X52883Y95583D01*
G01X44715Y100299D01*
G01X44715Y100299D01*
G01X35284Y100299D01*
G01X27116Y95583D01*
G01X22400Y87415D01*
G01X22400Y77984D01*
G01X27009Y70000D01*
G01X22400Y62015D01*
G01X2000Y62000D01*
G01X2000Y67000D01*
G01X2000Y72000D01*
G01X2000Y77000D01*
G01X2000Y82000D01*
G01X2000Y87000D01*
G01X2000Y92000D01*
G01X2000Y97000D01*
G01X2000Y102000D01*
G01X2000Y107000D01*
G01X2000Y112000D01*
G01X2000Y117000D01*
G01X2000Y122000D01*
G01X2000Y127000D01*
G01X2000Y132000D01*
G01X2000Y137000D01*
G01X2000Y142000D01*
G01X2000Y147000D01*
G01X2000Y152000D01*
G01X2000Y157000D01*
G01X2000Y162000D01*
G01X2000Y167000D01*
G01X2000Y172000D01*
G01X2000Y177000D01*
G01X2000Y182000D01*
G01X2000Y187000D01*
G01X2000Y192000D01*
G01X2000Y197000D01*
G01X2000Y202000D01*
G01X2000Y207000D01*
G01X2000Y212000D01*
G01X2000Y217000D01*
G01X2000Y222000D01*
G01X2000Y227000D01*
G01X2000Y232000D01*
G01X2000Y237000D01*
G01X2000Y242000D01*
G01X2000Y247000D01*
G01X2000Y252000D01*
G01X2000Y257000D01*
G01X2000Y262000D01*
G01X2000Y267000D01*
G01X2000Y272000D01*
G01X2000Y277000D01*
G01X2000Y282000D01*
G01X2000Y287000D01*
G01X2000Y292000D01*
G01X2000Y297000D01*
G01X2000Y302000D01*
G01X2000Y307000D01*
G01X2000Y312000D01*
G01X2000Y317000D01*
G01X2000Y322000D01*
G01X2000Y327000D01*
G01X2000Y332000D01*
G01X2000Y337000D01*
G01X2000Y342000D01*
G01X2000Y347000D01*
G01X2000Y352000D01*
G01X2000Y357000D01*
G01X2000Y362000D01*
G01X2000Y367000D01*
G01X2000Y372000D01*
G01X2000Y377000D01*
G01X2000Y382000D01*
G01X2000Y387000D01*
G01X2000Y392000D01*
G01X2000Y397000D01*
G01X2000Y402000D01*
G01X2000Y407000D01*
G01X2000Y412000D01*
G01X2000Y417000D01*
G01X2000Y422000D01*
G01X2000Y427000D01*
G01X2000Y432000D01*
G01X2000Y437000D01*
G01X2000Y442000D01*
G01X2000Y447000D01*
G01X2000Y452000D01*
G01X2000Y457000D01*
G01X2000Y462000D01*
G01X2000Y467000D01*
G01X2000Y472000D01*
G01X2000Y477000D01*
G01X2000Y482000D01*
G01X2000Y487000D01*
G01X2000Y492000D01*
G01X2000Y497000D01*
G01X2000Y502000D01*
G01X2000Y507000D01*
G01X2000Y512000D01*
G01X2000Y517000D01*
G01X2000Y522000D01*
G01X2000Y527000D01*
G01X2000Y532000D01*
G01X6900Y533215D01*
G01X6900Y523784D01*
G01X11394Y516000D01*
G01X6900Y508215D01*
G01X6900Y498784D01*
G01X11616Y490616D01*
G01X19784Y485900D01*
G01X29215Y485900D01*
G01X37383Y490616D01*
G01X42099Y498784D01*
G01X42099Y508215D01*
G01X37605Y516000D01*
G01X42099Y523784D01*
G01X42099Y533215D01*
G01X37461Y541250D01*
G01X42099Y549284D01*
G01X42099Y558715D01*
G01X37461Y566750D01*
G01X42099Y574784D01*
G01X42099Y584215D01*
G01X37461Y592250D01*
G01X42099Y600284D01*
G01X42099Y609715D01*
G01X37605Y617500D01*
G01X42099Y625284D01*
G01X42099Y634715D01*
G01X37624Y642466D01*
G01X37883Y642616D01*
G01X42599Y650784D01*
G01X42599Y660215D01*
G01X37961Y668250D01*
G01X42599Y676284D01*
G01X42599Y685715D01*
G01X44400Y685715D01*
G01X44400Y676284D01*
G01X49009Y668300D01*
G01X44400Y660315D01*
G01X44400Y650884D01*
G01X49009Y642900D01*
G01X44400Y634915D01*
G01X44400Y625484D01*
G01X49009Y617500D01*
G01X44400Y609515D01*
G01X44400Y600084D01*
G01X49009Y592100D01*
G01X44400Y584115D01*
G01X44400Y574684D01*
G01X49009Y566700D01*
G01X44400Y558715D01*
G01X44400Y549284D01*
G01X49009Y541300D01*
G01X44400Y533315D01*
G01X44400Y523884D01*
G01X49009Y515900D01*
G01X44400Y507915D01*
G01X44400Y498484D01*
G01X49009Y490500D01*
G01X44400Y482515D01*
G01X44400Y473084D01*
G01X49116Y464916D01*
G01X57284Y460200D01*
G01X66715Y460200D01*
G01X74883Y464916D01*
G01X79599Y473084D01*
G01X79599Y482515D01*
G01X74990Y490500D01*
G01X79599Y498484D01*
G01X79599Y507915D01*
G01X74990Y515900D01*
G01X79599Y523884D01*
G01X79599Y533315D01*
G01X74990Y541300D01*
G01X79599Y549284D01*
G01X79599Y558715D01*
G01X74990Y566700D01*
G01X79599Y574684D01*
G01X79599Y584115D01*
G01X74990Y592100D01*
G01X79599Y600084D01*
G01X79599Y609515D01*
G01X74990Y617500D01*
G01X79599Y625484D01*
G01X79599Y634915D01*
G01X74990Y642900D01*
G01X79599Y650884D01*
G01X79599Y660315D01*
G01X74990Y668300D01*
G01X79599Y676284D01*
G01X79599Y685715D01*
G01X74883Y693883D01*
G01X66715Y698599D01*
G01X66715Y698599D01*
G01X57284Y698599D01*
G01X49116Y693883D01*
G01X44400Y685715D01*
G01X42599Y685715D01*
G01X37883Y693883D01*
G01X29715Y698599D01*
G01X29715Y698599D01*
G01X20284Y698599D01*
G01X12116Y693883D01*
G01X7400Y685715D01*
G01X7400Y676284D01*
G01X12038Y668250D01*
G01X7400Y660215D01*
G01X7400Y650784D01*
G01X11875Y643033D01*
G01X11616Y642883D01*
G01X6900Y634715D01*
G01X6900Y625284D01*
G01X11394Y617500D01*
G01X6900Y609715D01*
G01X6900Y600284D01*
G01X11538Y592250D01*
G01X6900Y584215D01*
G01X6900Y574784D01*
G01X11538Y566750D01*
G01X6900Y558715D01*
G01X6900Y549284D01*
G01X11538Y541250D01*
G01X6900Y533215D01*
G01X2000Y532000D01*
G01X2000Y537000D01*
G01X2000Y542000D01*
G01X2000Y547000D01*
G01X2000Y552000D01*
G01X2000Y557000D01*
G01X2000Y562000D01*
G01X2000Y567000D01*
G01X2000Y572000D01*
G01X2000Y577000D01*
G01X2000Y582000D01*
G01X2000Y587000D01*
G01X2000Y592000D01*
G01X2000Y597000D01*
G01X2000Y602000D01*
G01X2000Y607000D01*
G01X2000Y612000D01*
G01X2000Y617000D01*
G01X2000Y622000D01*
G01X2000Y627000D01*
G01X2000Y632000D01*
G01X2000Y637000D01*
G01X2000Y642000D01*
G01X2000Y647000D01*
G01X2000Y652000D01*
G01X2000Y657000D01*
G01X2000Y662000D01*
G01X2000Y667000D01*
G01X2000Y672000D01*
G01X2000Y677000D01*
G01X2000Y682000D01*
G01X2000Y687000D01*
G01X2000Y692000D01*
G01X2000Y697000D01*
G01X2000Y702000D01*
G01X2000Y707000D01*
G01X2000Y712000D01*
G01X2000Y717000D01*
G01X2000Y722000D01*
G01X2000Y727000D01*
G01X2000Y732000D01*
G01X2000Y737000D01*
G01X2000Y742000D01*
G01X2000Y747000D01*
G01X2000Y748000D01*
G01X7000Y748000D01*
G01X12000Y748000D01*
G01X17000Y748000D01*
G01X22000Y748000D01*
G01X27000Y748000D01*
G01X32000Y748000D01*
G01X37000Y748000D01*
G01X42000Y748000D01*
G01X47000Y748000D01*
G01X52000Y748000D01*
G01X57000Y748000D01*
G01X62000Y748000D01*
G01X67000Y748000D01*
G01X72000Y748000D01*
G01X77000Y748000D01*
G01X82000Y748000D01*
G01X87000Y748000D01*
G01X92000Y748000D01*
G01X97000Y748000D01*
G01X102000Y748000D01*
G01X107000Y748000D01*
G01X112000Y748000D01*
G01X117000Y748000D01*
G01X122000Y748000D01*
G01X127000Y748000D01*
G01X132000Y748000D01*
G01X137000Y748000D01*
G01X142000Y748000D01*
G01X147000Y748000D01*
G01X152000Y748000D01*
G01X157000Y748000D01*
G01X162000Y748000D01*
G01X167000Y748000D01*
G01X172000Y748000D01*
G01X177000Y748000D01*
G01X182000Y748000D01*
G01X187000Y748000D01*
G01X192000Y748000D01*
G01X197000Y748000D01*
G01X202000Y748000D01*
G01X207000Y748000D01*
G01X212000Y748000D01*
G01X217000Y748000D01*
G01X222000Y748000D01*
G01X227000Y748000D01*
G01X232000Y748000D01*
G01X237000Y748000D01*
G01X242000Y748000D01*
G01X247000Y748000D01*
G01X252000Y748000D01*
G01X257000Y748000D01*
G01X262000Y748000D01*
G01X267000Y748000D01*
G01X272000Y748000D01*
G01X277000Y748000D01*
G01X282000Y748000D01*
G01X287000Y748000D01*
G01X292000Y748000D01*
G01X297000Y748000D01*
G01X302000Y748000D01*
G01X307000Y748000D01*
G01X312000Y748000D01*
G01X317000Y748000D01*
G01X322000Y748000D01*
G01X327000Y748000D01*
G01X332000Y748000D01*
G01X337000Y748000D01*
G01X342000Y748000D01*
G01X347000Y748000D01*
G01X352000Y748000D01*
G01X357000Y748000D01*
G01X362000Y748000D01*
G01X367000Y748000D01*
G01X372000Y748000D01*
G01X377000Y748000D01*
G01X382000Y748000D01*
G01X387000Y748000D01*
G01X392000Y748000D01*
G01X397000Y748000D01*
G01X402000Y748000D01*
G01X407000Y748000D01*
G01X412000Y748000D01*
G01X417000Y748000D01*
G01X422000Y748000D01*
G01X427000Y748000D01*
G01X432000Y748000D01*
G01X437000Y748000D01*
G01X442000Y748000D01*
G01X447000Y748000D01*
G01X452000Y748000D01*
G01X457000Y748000D01*
G01X462000Y748000D01*
G01X467000Y748000D01*
G01X472000Y748000D01*
G01X477000Y748000D01*
G01X482000Y748000D01*
G01X487000Y748000D01*
G01X492000Y748000D01*
G01X497000Y748000D01*
G01X502000Y748000D01*
G01X507000Y748000D01*
G01X512000Y748000D01*
G01X517000Y748000D01*
G01X522000Y748000D01*
G01X527000Y748000D01*
G01X532000Y748000D01*
G01X537000Y748000D01*
G01X542000Y748000D01*
G01X547000Y748000D01*
G01X552000Y748000D01*
G01X557000Y748000D01*
G01X562000Y748000D01*
G01X567000Y748000D01*
G01X572000Y748000D01*
G01X577000Y748000D01*
G01X582000Y748000D01*
G01X587000Y748000D01*
G01X592000Y748000D01*
G01X597000Y748000D01*
G01X602000Y748000D01*
G01X607000Y748000D01*
G01X612000Y748000D01*
G01X617000Y748000D01*
G01X622000Y748000D01*
G01X627000Y748000D01*
G01X632000Y748000D01*
G01X637000Y748000D01*
G01X642000Y748000D01*
G01X647000Y748000D01*
G01X652000Y748000D01*
G01X657000Y748000D01*
G01X662000Y748000D01*
G01X667000Y748000D01*
G01X672000Y748000D01*
G01X677000Y748000D01*
G01X682000Y748000D01*
G01X687000Y748000D01*
G01X692000Y748000D01*
G01X697000Y748000D01*
G01X702000Y748000D01*
G01X707000Y748000D01*
G01X712000Y748000D01*
G01X717000Y748000D01*
G01X722000Y748000D01*
G01X727000Y748000D01*
G01X732000Y748000D01*
G01X737000Y748000D01*
G01X742000Y748000D01*
G01X747000Y748000D01*
G01X752000Y748000D01*
G01X757000Y748000D01*
G01X762000Y748000D01*
G01X767000Y748000D01*
G01X772000Y748000D01*
G01X777000Y748000D01*
G01X782000Y748000D01*
G01X787000Y748000D01*
G01X792000Y748000D01*
G01X797000Y748000D01*
G01X802000Y748000D01*
G01X807000Y748000D01*
G01X812000Y748000D01*
G01X817000Y748000D01*
G01X822000Y748000D01*
G01X827000Y748000D01*
G01X832000Y748000D01*
G01X837000Y748000D01*
G01X842000Y748000D01*
G01X847000Y748000D01*
G01X852000Y748000D01*
G01X857000Y748000D01*
G01X862000Y748000D01*
G01X867000Y748000D01*
G01X872000Y748000D01*
G01X877000Y748000D01*
G01X882000Y748000D01*
G01X887000Y748000D01*
G01X892000Y748000D01*
G01X897000Y748000D01*
G01X902000Y748000D01*
G01X907000Y748000D01*
G01X912000Y748000D01*
G01X917000Y748000D01*
G01X922000Y748000D01*
G01X927000Y748000D01*
G01X932000Y748000D01*
G01X937000Y748000D01*
G01X942000Y748000D01*
G01X947000Y748000D01*
G01X952000Y748000D01*
G01X957000Y748000D01*
G01X962000Y748000D01*
G01X967000Y748000D01*
G01X972000Y748000D01*
G01X977000Y748000D01*
G01X982000Y748000D01*
G01X987000Y748000D01*
G01X992000Y748000D01*
G01X997000Y748000D01*
G01X998000Y748000D01*
G01X998000Y743000D01*
G01X998000Y738000D01*
G01X998000Y733000D01*
G01X998000Y728000D01*
G01X998000Y723000D01*
G01X998000Y718000D01*
G01X998000Y713000D01*
G01X998000Y708000D01*
G01X998000Y703000D01*
G01X998000Y698000D01*
G01X998000Y693000D01*
G01X998000Y688000D01*
G01X998000Y683000D01*
G01X998000Y678000D01*
G01X998000Y673000D01*
G01X998000Y668000D01*
G01X998000Y663000D01*
G01X998000Y658000D01*
G01X998000Y653000D01*
G01X998000Y648000D01*
G01X998000Y643000D01*
G01X998000Y638000D01*
G01X998000Y633000D01*
G01X998000Y628000D01*
G01X998000Y623000D01*
G01X998000Y618000D01*
G01X998000Y613000D01*
G01X998000Y608000D01*
G01X998000Y603000D01*
G01X998000Y598000D01*
G01X998000Y593000D01*
G01X998000Y588000D01*
G01X998000Y583000D01*
G01X998000Y578000D01*
G01X998000Y573000D01*
G01X998000Y568000D01*
G01X998000Y563000D01*
G01X998000Y558000D01*
G01X998000Y553000D01*
G01X998000Y548000D01*
G01X998000Y543000D01*
G01X998000Y538000D01*
G01X998000Y533000D01*
G01X998000Y528000D01*
G01X998000Y523000D01*
G01X998000Y518000D01*
G01X998000Y513000D01*
G01X998000Y508000D01*
G01X998000Y503000D01*
G01X998000Y498000D01*
G01X998000Y493000D01*
G01X998000Y488000D01*
G01X998000Y483000D01*
G01X998000Y478000D01*
G01X998000Y473000D01*
G01X998000Y468000D01*
G01X998000Y463000D01*
G01X998000Y458000D01*
G01X998000Y453000D01*
G01X998000Y448000D01*
G01X998000Y443000D01*
G01X998000Y438000D01*
G01X998000Y433000D01*
G01X998000Y428000D01*
G01X998000Y423000D01*
G01X998000Y418000D01*
G01X998000Y413000D01*
G01X998000Y408000D01*
G01X998000Y403000D01*
G01X998000Y398000D01*
G01X998000Y393000D01*
G01X998000Y388000D01*
G01X998000Y383000D01*
G01X998000Y378000D01*
G01X998000Y373000D01*
G01X998000Y368000D01*
G01X998000Y363000D01*
G01X998000Y358000D01*
G01X998000Y353000D01*
G01X998000Y348000D01*
G01X998000Y343000D01*
G01X998000Y338000D01*
G01X998000Y333000D01*
G01X998000Y328000D01*
G01X998000Y323000D01*
G01X998000Y318000D01*
G01X998000Y313000D01*
G01X998000Y308000D01*
G01X998000Y303000D01*
G01X998000Y298000D01*
G01X998000Y293000D01*
G01X998000Y288000D01*
G01X998000Y283000D01*
G01X998000Y278000D01*
G01X998000Y273000D01*
G01X998000Y268000D01*
G01X998000Y263000D01*
G01X998000Y258000D01*
G01X998000Y253000D01*
G01X998000Y248000D01*
G01X998000Y243000D01*
G01X998000Y238000D01*
G01X998000Y233000D01*
G01X998000Y228000D01*
G01X998000Y223000D01*
G01X998000Y218000D01*
G01X998000Y213000D01*
G01X998000Y208000D01*
G01X998000Y203000D01*
G01X998000Y198000D01*
G01X998000Y193000D01*
G01X998000Y188000D01*
G01X998000Y183000D01*
G01X998000Y178000D01*
G01X998000Y173000D01*
G01X998000Y168000D01*
G01X998000Y163000D01*
G01X998000Y158000D01*
G01X998000Y153000D01*
G01X998000Y148000D01*
G01X998000Y143000D01*
G01X998000Y138000D01*
G01X998000Y133000D01*
G01X998000Y128000D01*
G01X998000Y123000D01*
G01X998000Y118000D01*
G01X998000Y113000D01*
G01X998000Y108000D01*
G01X998000Y103000D01*
G01X998000Y98000D01*
G01X998000Y93000D01*
G01X998000Y88000D01*
G01X998000Y83000D01*
G01X998000Y78000D01*
G01X998000Y73000D01*
G01X998000Y68000D01*
G01X998000Y63000D01*
G01X998000Y58000D01*
G01X998000Y53000D01*
G01X998000Y48000D01*
G01X998000Y43000D01*
G01X998000Y38000D01*
G01X998000Y33000D01*
G01X998000Y28000D01*
G01X998000Y23000D01*
G01X998000Y18000D01*
G01X998000Y13000D01*
G01X998000Y8000D01*
G01X998000Y3000D01*
G01X998000Y2000D01*
G01X998000Y2000D01*
G37*
M2*
