*
%LPD*%
%LN_top_silkscreen*%
%FSLAX34Y34*%
%MOMM*%
%OFA0B0*%
%AD*%
%ADD011C,0.1000*%
%ADD013C,0.4000*%
%ADD012C,0.2000*%
%ADD014C,0.3000*%
G54D11*
G01X10000Y694000D02*
G01X39000Y694000D01*
G01X39000Y465000D01*
G01X10000Y465000D01*
G01X10000Y694000D01*
G01X47000Y697000D02*
G01X155000Y697000D01*
G01X155000Y335000D01*
G01X47000Y335000D01*
G01X47000Y697000D01*
G01X298000Y694000D02*
G01X298000Y462000D01*
G01X188000Y462000D01*
G01X188000Y694000D01*
G01X298000Y694000D01*
G01X318000Y706000D02*
G01X449000Y706000D01*
G01X449000Y674000D01*
G01X318000Y674000D01*
G01X318000Y706000D01*
G01X451000Y672000D02*
G01X664000Y672000D01*
G01X664000Y568000D01*
G01X451000Y568000D01*
G01X451000Y672000D01*
G01X451000Y519000D02*
G01X664000Y519000D01*
G01X664000Y415000D01*
G01X451000Y415000D01*
G01X451000Y519000D01*
G01X542000Y369000D02*
G01X700000Y369000D01*
G01X700000Y211000D01*
G01X542000Y211000D01*
G01X542000Y369000D01*
G01X384000Y336000D02*
G01X491000Y336000D01*
G01X491000Y132000D01*
G01X384000Y132000D01*
G01X384000Y336000D01*
G01X346000Y338000D02*
G01X377000Y338000D01*
G01X377000Y153000D01*
G01X346000Y153000D01*
G01X346000Y338000D01*
G01X288000Y291000D02*
G01X288000Y185000D01*
G01X58000Y185000D01*
G01X58000Y291000D01*
G01X288000Y291000D01*
G01X288000Y147000D02*
G01X288000Y41000D01*
G01X58000Y41000D01*
G01X58000Y147000D01*
G01X288000Y147000D01*
G01X54000Y97000D02*
G01X54000Y43000D01*
G01X26000Y43000D01*
G01X26000Y97000D01*
G01X54000Y97000D01*
G01X27000Y182000D02*
G01X55000Y182000D01*
G01X55000Y128000D01*
G01X27000Y128000D01*
G01X27000Y182000D01*
G01X26000Y274000D02*
G01X54000Y274000D01*
G01X54000Y220000D01*
G01X26000Y220000D01*
G01X26000Y274000D01*
G01X909000Y693000D02*
G01X909000Y665000D01*
G01X756000Y665000D01*
G01X756000Y693000D01*
G01X909000Y693000D01*
G01X761000Y615000D02*
G01X914000Y615000D01*
G01X914000Y587000D01*
G01X761000Y587000D01*
G01X761000Y615000D01*
G01X898000Y563000D02*
G01X898000Y51000D01*
G01X841000Y51000D01*
G01X841000Y563000D01*
G01X898000Y563000D01*
G01X930000Y190000D02*
G01X962000Y190000D01*
G01X962000Y58000D01*
G01X930000Y58000D01*
G01X930000Y190000D01*
G01X778000Y166000D02*
G01X778000Y33000D01*
G01X745000Y33000D01*
G01X745000Y166000D01*
G01X778000Y166000D01*
G01X665000Y109000D02*
G01X665000Y22000D01*
G01X631000Y22000D01*
G01X631000Y109000D01*
G01X665000Y109000D01*
G01X585000Y109000D02*
G01X585000Y22000D01*
G01X552000Y22000D01*
G01X552000Y109000D01*
G01X585000Y109000D01*
G01X473000Y109000D02*
G01X506000Y109000D01*
G01X506000Y22000D01*
G01X473000Y22000D01*
G01X473000Y109000D01*
G01X392000Y109000D02*
G01X425000Y109000D01*
G01X425000Y22000D01*
G01X392000Y22000D01*
G01X392000Y109000D01*
G54D13*
G01X509778Y735584D02*
G01X498856Y706882D01*
G01X509778Y735584D02*
G01X520700Y706882D01*
G01X502920Y716534D02*
G01X516636Y716534D01*
G01X531622Y735584D02*
G01X531622Y706882D01*
G01X545338Y725932D02*
G01X531622Y712216D01*
G01X536956Y717804D02*
G01X546608Y706882D01*
G01X557530Y735584D02*
G01X558800Y734060D01*
G01X558800Y734060D02*
G01X560324Y735584D01*
G01X560324Y735584D02*
G01X558800Y736854D01*
G01X558800Y736854D02*
G01X557530Y735584D01*
G01X558800Y725932D02*
G01X558800Y706882D01*
G01X571246Y735584D02*
G01X571246Y706882D01*
G01X571246Y735584D02*
G01X587502Y735584D01*
G01X587502Y735584D02*
G01X587502Y735584D01*
G01X587502Y735584D02*
G01X590296Y732790D01*
G01X590296Y732790D02*
G01X590296Y725932D01*
G01X590296Y725932D02*
G01X587502Y723138D01*
G01X587502Y723138D02*
G01X583438Y721868D01*
G01X571246Y721868D02*
G01X583438Y721868D01*
G01X583438Y721868D02*
G01X583438Y721868D01*
G01X583438Y721868D02*
G01X587502Y720598D01*
G01X587502Y720598D02*
G01X590296Y716534D01*
G01X590296Y716534D02*
G01X590296Y709676D01*
G01X590296Y709676D02*
G01X587502Y706882D01*
G01X587502Y706882D02*
G01X583438Y706882D01*
G01X583438Y706882D02*
G01X571246Y706882D01*
G01X608076Y725932D02*
G01X605282Y724662D01*
G01X605282Y724662D02*
G01X602488Y721868D01*
G01X602488Y721868D02*
G01X601218Y717804D01*
G01X601218Y717804D02*
G01X601218Y715010D01*
G01X601218Y715010D02*
G01X602488Y710946D01*
G01X602488Y710946D02*
G01X605282Y708152D01*
G01X605282Y708152D02*
G01X608076Y706882D01*
G01X608076Y706882D02*
G01X612140Y706882D01*
G01X612140Y706882D02*
G01X614680Y708152D01*
G01X614680Y708152D02*
G01X617474Y710946D01*
G01X617474Y710946D02*
G01X618998Y715010D01*
G01X618998Y715010D02*
G01X618998Y717804D01*
G01X618998Y717804D02*
G01X617474Y721868D01*
G01X617474Y721868D02*
G01X614680Y724662D01*
G01X614680Y724662D02*
G01X612140Y725932D01*
G01X612140Y725932D02*
G01X608076Y725932D01*
G01X633984Y735584D02*
G01X633984Y712216D01*
G01X633984Y712216D02*
G01X635254Y708152D01*
G01X635254Y708152D02*
G01X638048Y706882D01*
G01X638048Y706882D02*
G01X640588Y706882D01*
G01X629666Y725932D02*
G01X639318Y725932D01*
G01X677418Y735584D02*
G01X673354Y731520D01*
G01X673354Y731520D02*
G01X673354Y710946D01*
G01X673354Y710946D02*
G01X677418Y706882D01*
G01X677418Y706882D02*
G01X688340Y706882D01*
G01X688340Y706882D02*
G01X692404Y710946D01*
G01X692404Y710946D02*
G01X692404Y731520D01*
G01X692404Y731520D02*
G01X688340Y735584D01*
G01X688340Y735584D02*
G01X677418Y735584D01*
G01X704850Y709676D02*
G01X703326Y708152D01*
G01X703326Y708152D02*
G01X704850Y706882D01*
G01X704850Y706882D02*
G01X706120Y708152D01*
G01X706120Y708152D02*
G01X704850Y709676D01*
G01X718312Y728726D02*
G01X718312Y731520D01*
G01X718312Y731520D02*
G01X722630Y735584D01*
G01X722630Y735584D02*
G01X730758Y735584D01*
G01X730758Y735584D02*
G01X734822Y731520D01*
G01X734822Y731520D02*
G01X734822Y724662D01*
G01X734822Y724662D02*
G01X717042Y706882D01*
G01X717042Y706882D02*
G01X736092Y706882D01*
G54D12*
G01X112280Y687000D02*
G75*
G03X112280Y687000I-7280J0D01*
G74*
G01X242000Y665000D02*
G75*
G03X242000Y665000I-7000J0D01*
G74*
G01X475055Y607000D02*
G75*
G03X475055Y607000I-9055J0D01*
G74*
G01X476000Y452000D02*
G75*
G03X476000Y452000I-9000J0D01*
G74*
G01X434000Y321000D02*
G75*
G03X434000Y321000I-9000J0D01*
G74*
G01X266055Y245000D02*
G75*
G03X266055Y245000I-9055J0D01*
G74*
G01X267246Y102000D02*
G75*
G03X267246Y102000I-8246J0D01*
G74*
G01X573278Y488950D02*
G01X573278Y478282D01*
G01X573278Y607822D02*
G01X573278Y597154D01*
G01X906780Y497078D02*
G01X917448Y497078D01*
G01X441198Y106934D02*
G01X430530Y106934D01*
G01X430530Y106934D02*
G01X428752Y105156D01*
G01X428752Y105156D02*
G01X428752Y100330D01*
G01X428752Y100330D02*
G01X430530Y98552D01*
G01X430530Y98552D02*
G01X441198Y98552D01*
G01X441198Y89662D02*
G01X428752Y89662D01*
G01X441198Y93980D02*
G01X441198Y85598D01*
G01X438404Y80772D02*
G01X441198Y77978D01*
G01X441198Y77978D02*
G01X428752Y77978D01*
G01X522224Y107950D02*
G01X511556Y107950D01*
G01X511556Y107950D02*
G01X509778Y106172D01*
G01X509778Y106172D02*
G01X509778Y101346D01*
G01X509778Y101346D02*
G01X511556Y99568D01*
G01X511556Y99568D02*
G01X522224Y99568D01*
G01X522224Y90678D02*
G01X509778Y90678D01*
G01X522224Y94996D02*
G01X522224Y86614D01*
G01X519430Y81280D02*
G01X520446Y81280D01*
G01X520446Y81280D02*
G01X522224Y79502D01*
G01X522224Y79502D02*
G01X522224Y75946D01*
G01X522224Y75946D02*
G01X520446Y74168D01*
G01X520446Y74168D02*
G01X517652Y74168D01*
G01X517652Y74168D02*
G01X509778Y81788D01*
G01X509778Y81788D02*
G01X509778Y73660D01*
G01X600202Y108966D02*
G01X589534Y108966D01*
G01X589534Y108966D02*
G01X587756Y107188D01*
G01X587756Y107188D02*
G01X587756Y102362D01*
G01X587756Y102362D02*
G01X589534Y100584D01*
G01X589534Y100584D02*
G01X600202Y100584D01*
G01X600202Y91694D02*
G01X587756Y91694D01*
G01X600202Y95758D02*
G01X600202Y87630D01*
G01X589534Y82804D02*
G01X587756Y81026D01*
G01X587756Y81026D02*
G01X587756Y76962D01*
G01X587756Y76962D02*
G01X587756Y76962D01*
G01X587756Y76962D02*
G01X589534Y75184D01*
G01X589534Y75184D02*
G01X592074Y75184D01*
G01X592074Y75184D02*
G01X594360Y77470D01*
G01X594360Y77470D02*
G01X596646Y75184D01*
G01X596646Y75184D02*
G01X598424Y75184D01*
G01X598424Y75184D02*
G01X600202Y76962D01*
G01X600202Y76962D02*
G01X600202Y81026D01*
G01X600202Y81026D02*
G01X598424Y82804D01*
G01X680212Y107950D02*
G01X669544Y107950D01*
G01X669544Y107950D02*
G01X667766Y106172D01*
G01X667766Y106172D02*
G01X667766Y101346D01*
G01X667766Y101346D02*
G01X669544Y99568D01*
G01X669544Y99568D02*
G01X680212Y99568D01*
G01X680212Y90678D02*
G01X667766Y90678D01*
G01X680212Y94996D02*
G01X680212Y86614D01*
G01X680212Y75946D02*
G01X672084Y81788D01*
G01X672084Y81788D02*
G01X672084Y72898D01*
G01X680212Y75946D02*
G01X667766Y75946D01*
G01X873760Y663194D02*
G01X876808Y650748D01*
G01X879856Y663194D02*
G01X876808Y650748D01*
G01X879856Y663194D02*
G01X882650Y650748D01*
G01X885698Y663194D02*
G01X882650Y650748D01*
G01X890524Y663194D02*
G01X890524Y650748D01*
G01X890524Y663194D02*
G01X895096Y650748D01*
G01X899922Y663194D02*
G01X895096Y650748D01*
G01X899922Y663194D02*
G01X899922Y650748D01*
G01X904494Y660400D02*
G01X907542Y663194D01*
G01X907542Y663194D02*
G01X907542Y650748D01*
G01X874776Y584200D02*
G01X877824Y571754D01*
G01X880872Y584200D02*
G01X877824Y571754D01*
G01X880872Y584200D02*
G01X883666Y571754D01*
G01X886714Y584200D02*
G01X883666Y571754D01*
G01X891540Y584200D02*
G01X891540Y571754D01*
G01X891540Y584200D02*
G01X896112Y571754D01*
G01X900938Y584200D02*
G01X896112Y571754D01*
G01X900938Y584200D02*
G01X900938Y571754D01*
G01X906272Y581406D02*
G01X906272Y582422D01*
G01X906272Y582422D02*
G01X908050Y584200D01*
G01X908050Y584200D02*
G01X911606Y584200D01*
G01X911606Y584200D02*
G01X913384Y582422D01*
G01X913384Y582422D02*
G01X913384Y579628D01*
G01X913384Y579628D02*
G01X905510Y571754D01*
G01X905510Y571754D02*
G01X913892Y571754D01*
G01X795020Y109982D02*
G01X797306Y112268D01*
G01X797306Y112268D02*
G01X797306Y116586D01*
G01X797306Y116586D02*
G01X794258Y118872D01*
G01X794258Y118872D02*
G01X787146Y118872D01*
G01X787146Y118872D02*
G01X784860Y116586D01*
G01X784860Y116586D02*
G01X784860Y112268D01*
G01X784860Y112268D02*
G01X787146Y109982D01*
G01X787146Y109982D02*
G01X789686Y109982D01*
G01X789686Y113030D02*
G01X789686Y109982D01*
G01X797306Y105156D02*
G01X791464Y100584D01*
G01X791464Y100584D02*
G01X784860Y100584D01*
G01X797306Y95758D02*
G01X791464Y100584D01*
G01X794258Y91186D02*
G01X797306Y88138D01*
G01X797306Y88138D02*
G01X784860Y88138D01*
G01X324866Y720344D02*
G01X324866Y708914D01*
G01X324866Y720344D02*
G01X330962Y720344D01*
G01X330962Y720344D02*
G01X332486Y718566D01*
G01X332486Y718566D02*
G01X332486Y716026D01*
G01X332486Y716026D02*
G01X330962Y714248D01*
G01X330962Y714248D02*
G01X324866Y714248D01*
G01X336804Y720344D02*
G01X339598Y708914D01*
G01X342392Y720344D02*
G01X339598Y708914D01*
G01X342392Y720344D02*
G01X344932Y708914D01*
G01X347726Y720344D02*
G01X344932Y708914D01*
G01X352044Y720344D02*
G01X352044Y708914D01*
G01X352044Y720344D02*
G01X358140Y720344D01*
G01X358140Y720344D02*
G01X359664Y718566D01*
G01X359664Y718566D02*
G01X359664Y716534D01*
G01X359664Y716534D02*
G01X358140Y714756D01*
G01X358140Y714756D02*
G01X352044Y714756D01*
G01X355854Y714756D02*
G01X359664Y708914D01*
G01X364236Y710438D02*
G01X365760Y708914D01*
G01X365760Y708914D02*
G01X369570Y708914D01*
G01X369570Y708914D02*
G01X369570Y708914D01*
G01X369570Y708914D02*
G01X371348Y710438D01*
G01X371348Y710438D02*
G01X371348Y712724D01*
G01X371348Y712724D02*
G01X369062Y714756D01*
G01X369062Y714756D02*
G01X371348Y717042D01*
G01X371348Y717042D02*
G01X371348Y718566D01*
G01X371348Y718566D02*
G01X369570Y720344D01*
G01X369570Y720344D02*
G01X365760Y720344D01*
G01X365760Y720344D02*
G01X364236Y718566D01*
G01X13970Y708406D02*
G01X13970Y698754D01*
G01X13970Y708406D02*
G01X19304Y708406D01*
G01X19304Y708406D02*
G01X19304Y708406D01*
G01X19304Y708406D02*
G01X20320Y707390D01*
G01X20320Y707390D02*
G01X20320Y705358D01*
G01X20320Y705358D02*
G01X19304Y704342D01*
G01X19304Y704342D02*
G01X18034Y703834D01*
G01X13970Y703834D02*
G01X18034Y703834D01*
G01X18034Y703834D02*
G01X18034Y703834D01*
G01X18034Y703834D02*
G01X19304Y703326D01*
G01X19304Y703326D02*
G01X20320Y702056D01*
G01X20320Y702056D02*
G01X20320Y699770D01*
G01X20320Y699770D02*
G01X19304Y698754D01*
G01X19304Y698754D02*
G01X18034Y698754D01*
G01X18034Y698754D02*
G01X13970Y698754D01*
G01X27178Y708406D02*
G01X27178Y698754D01*
G01X23876Y708406D02*
G01X30226Y708406D01*
G01X33782Y706120D02*
G01X36068Y708406D01*
G01X36068Y708406D02*
G01X36068Y698754D01*
G01X433070Y669798D02*
G01X433070Y661670D01*
G01X411480Y664972D02*
G01X411480Y670306D01*
G01X411480Y670306D02*
G01X406908Y670306D01*
G01X406908Y670306D02*
G01X407670Y669544D01*
G01X407670Y669544D02*
G01X407670Y665988D01*
G01X407670Y665988D02*
G01X406400Y664464D01*
G01X406400Y664464D02*
G01X403606Y664464D01*
G01X403606Y664464D02*
G01X401828Y666242D01*
G01X401828Y666242D02*
G01X401828Y669544D01*
G01X401828Y669544D02*
G01X403606Y670814D01*
G01X411480Y660908D02*
G01X401828Y657352D01*
G01X411480Y653542D02*
G01X401828Y657352D01*
G01X385064Y664464D02*
G01X386334Y665988D01*
G01X386334Y665988D02*
G01X386334Y669544D01*
G01X386334Y669544D02*
G01X385064Y670814D01*
G01X385064Y670814D02*
G01X383286Y670814D01*
G01X383286Y670814D02*
G01X381762Y669544D01*
G01X381762Y669544D02*
G01X381762Y666242D01*
G01X381762Y666242D02*
G01X379984Y664464D01*
G01X379984Y664464D02*
G01X378206Y664464D01*
G01X378206Y664464D02*
G01X376936Y665988D01*
G01X376936Y665988D02*
G01X376936Y669544D01*
G01X376936Y669544D02*
G01X378206Y670814D01*
G01X384048Y654050D02*
G01X385064Y654050D01*
G01X385064Y654050D02*
G01X386334Y655320D01*
G01X386334Y655320D02*
G01X386334Y659384D01*
G01X386334Y659384D02*
G01X385064Y660908D01*
G01X385064Y660908D02*
G01X378206Y660908D01*
G01X378206Y660908D02*
G01X376936Y659384D01*
G01X376936Y659384D02*
G01X376936Y655320D01*
G01X376936Y655320D02*
G01X378206Y654050D01*
G01X378206Y654050D02*
G01X379222Y654050D01*
G01X386334Y650494D02*
G01X376936Y650494D01*
G01X376936Y650494D02*
G01X376936Y644906D01*
G01X384048Y641350D02*
G01X386334Y639064D01*
G01X386334Y639064D02*
G01X376936Y639064D01*
G01X360172Y664464D02*
G01X361442Y665988D01*
G01X361442Y665988D02*
G01X361442Y669544D01*
G01X361442Y669544D02*
G01X360172Y670814D01*
G01X360172Y670814D02*
G01X358140Y670814D01*
G01X358140Y670814D02*
G01X356870Y669544D01*
G01X356870Y669544D02*
G01X356870Y666242D01*
G01X356870Y666242D02*
G01X355092Y664464D01*
G01X355092Y664464D02*
G01X353314Y664464D01*
G01X353314Y664464D02*
G01X351790Y665988D01*
G01X351790Y665988D02*
G01X351790Y669544D01*
G01X351790Y669544D02*
G01X353314Y670814D01*
G01X361442Y660908D02*
G01X351790Y660908D01*
G01X361442Y660908D02*
G01X361442Y656336D01*
G01X361442Y656336D02*
G01X359664Y654558D01*
G01X359664Y654558D02*
G01X353568Y654558D01*
G01X353568Y654558D02*
G01X351790Y656336D01*
G01X351790Y656336D02*
G01X351790Y660908D01*
G01X361442Y647192D02*
G01X351790Y650748D01*
G01X361442Y647192D02*
G01X351790Y643636D01*
G01X355092Y649478D02*
G01X355092Y644906D01*
G01X359156Y640080D02*
G01X361442Y637794D01*
G01X361442Y637794D02*
G01X351790Y637794D01*
G01X468376Y479806D02*
G01X468376Y474218D01*
G01X468376Y474218D02*
G01X472948Y474218D01*
G01X472948Y474218D02*
G01X471932Y475234D01*
G01X471932Y475234D02*
G01X471932Y478790D01*
G01X471932Y478790D02*
G01X473202Y480314D01*
G01X473202Y480314D02*
G01X475996Y480314D01*
G01X475996Y480314D02*
G01X477774Y478536D01*
G01X477774Y478536D02*
G01X477774Y475234D01*
G01X477774Y475234D02*
G01X475996Y473964D01*
G01X468376Y483870D02*
G01X477774Y487426D01*
G01X468376Y491236D02*
G01X477774Y487426D01*
G01X328930Y270002D02*
G01X337058Y270002D01*
G01X318770Y322326D02*
G01X317500Y321056D01*
G01X317500Y321056D02*
G01X314198Y321056D01*
G01X314198Y321056D02*
G01X312928Y322326D01*
G01X312928Y322326D02*
G01X312928Y325120D01*
G01X312928Y325120D02*
G01X314198Y326390D01*
G01X314198Y326390D02*
G01X317500Y326390D01*
G01X317500Y326390D02*
G01X318770Y325120D01*
G01X318770Y325120D02*
G01X318770Y321056D01*
G01X318770Y321056D02*
G01X318770Y318262D01*
G01X318770Y318262D02*
G01X317500Y316992D01*
G01X317500Y316992D02*
G01X314198Y316992D01*
G01X314198Y316992D02*
G01X312928Y318262D01*
G01X322326Y326390D02*
G01X326136Y316992D01*
G01X329692Y326390D02*
G01X326136Y316992D01*
G01X333248Y323342D02*
G01X335026Y316992D01*
G01X337058Y323342D02*
G01X335026Y316992D01*
G01X337058Y323342D02*
G01X338836Y316992D01*
G01X340614Y323342D02*
G01X338836Y316992D01*
G01X314706Y296418D02*
G01X313436Y294894D01*
G01X313436Y294894D02*
G01X310134Y294894D01*
G01X310134Y294894D02*
G01X308864Y296418D01*
G01X308864Y296418D02*
G01X308864Y298958D01*
G01X308864Y298958D02*
G01X310134Y300482D01*
G01X310134Y300482D02*
G01X313436Y300482D01*
G01X313436Y300482D02*
G01X314706Y298958D01*
G01X314706Y298958D02*
G01X314706Y294894D01*
G01X314706Y294894D02*
G01X314706Y292354D01*
G01X314706Y292354D02*
G01X313436Y290830D01*
G01X313436Y290830D02*
G01X310134Y290830D01*
G01X310134Y290830D02*
G01X308864Y292354D01*
G01X318516Y300482D02*
G01X322072Y290830D01*
G01X325628Y300482D02*
G01X322072Y290830D01*
G01X329438Y297180D02*
G01X329438Y290830D01*
G01X329438Y295402D02*
G01X330708Y296672D01*
G01X330708Y296672D02*
G01X331724Y297180D01*
G01X331724Y297180D02*
G01X332994Y297180D01*
G01X332994Y297180D02*
G01X333756Y296672D01*
G01X333756Y296672D02*
G01X334264Y295402D01*
G01X334264Y295402D02*
G01X334264Y290830D01*
G01X334264Y295402D02*
G01X335788Y296672D01*
G01X335788Y296672D02*
G01X336550Y297180D01*
G01X336550Y297180D02*
G01X338074Y297180D01*
G01X338074Y297180D02*
G01X338836Y296672D01*
G01X338836Y296672D02*
G01X339344Y295402D01*
G01X339344Y295402D02*
G01X339344Y290830D01*
G01X320802Y249428D02*
G01X320802Y239776D01*
G01X320802Y249428D02*
G01X326390Y249428D01*
G01X326390Y249428D02*
G01X326390Y249428D01*
G01X326390Y249428D02*
G01X327152Y248412D01*
G01X327152Y248412D02*
G01X327152Y246126D01*
G01X327152Y246126D02*
G01X326390Y245364D01*
G01X326390Y245364D02*
G01X324866Y244856D01*
G01X320802Y244856D02*
G01X324866Y244856D01*
G01X324866Y244856D02*
G01X324866Y244856D01*
G01X324866Y244856D02*
G01X326390Y244348D01*
G01X326390Y244348D02*
G01X327152Y243078D01*
G01X327152Y243078D02*
G01X327152Y240792D01*
G01X327152Y240792D02*
G01X326390Y239776D01*
G01X326390Y239776D02*
G01X324866Y239776D01*
G01X324866Y239776D02*
G01X320802Y239776D01*
G01X335026Y248158D02*
G01X335026Y239776D01*
G01X330962Y243840D02*
G01X339090Y243840D01*
G01X324612Y223520D02*
G01X320802Y213868D01*
G01X324612Y223520D02*
G01X328168Y213868D01*
G01X322326Y217170D02*
G01X326898Y217170D01*
G01X335788Y221996D02*
G01X335788Y213868D01*
G01X331724Y217932D02*
G01X339852Y217932D01*
G01X327660Y173482D02*
G01X322326Y173482D01*
G01X322326Y173482D02*
G01X322326Y168910D01*
G01X322326Y168910D02*
G01X323342Y169672D01*
G01X323342Y169672D02*
G01X326898Y169672D01*
G01X326898Y169672D02*
G01X328168Y168402D01*
G01X328168Y168402D02*
G01X328168Y165608D01*
G01X328168Y165608D02*
G01X326390Y163830D01*
G01X326390Y163830D02*
G01X323342Y163830D01*
G01X323342Y163830D02*
G01X321818Y165608D01*
G01X331978Y173482D02*
G01X335534Y163830D01*
G01X339090Y173482D02*
G01X335534Y163830D01*
G01X674878Y41402D02*
G01X669290Y41402D01*
G01X669290Y41402D02*
G01X669290Y36830D01*
G01X669290Y36830D02*
G01X670306Y37846D01*
G01X670306Y37846D02*
G01X673862Y37846D01*
G01X673862Y37846D02*
G01X675132Y36322D01*
G01X675132Y36322D02*
G01X675132Y33782D01*
G01X675132Y33782D02*
G01X673354Y31750D01*
G01X673354Y31750D02*
G01X670306Y31750D01*
G01X670306Y31750D02*
G01X668782Y33782D01*
G01X678942Y41402D02*
G01X682498Y31750D01*
G01X686054Y41402D02*
G01X682498Y31750D01*
G01X595884Y41402D02*
G01X590296Y41402D01*
G01X590296Y41402D02*
G01X590296Y36830D01*
G01X590296Y36830D02*
G01X591312Y37846D01*
G01X591312Y37846D02*
G01X594868Y37846D01*
G01X594868Y37846D02*
G01X596138Y36322D01*
G01X596138Y36322D02*
G01X596138Y33782D01*
G01X596138Y33782D02*
G01X594360Y31750D01*
G01X594360Y31750D02*
G01X591312Y31750D01*
G01X591312Y31750D02*
G01X589788Y33782D01*
G01X599948Y41402D02*
G01X603504Y31750D01*
G01X607060Y41402D02*
G01X603504Y31750D01*
G01X516890Y41402D02*
G01X511302Y41402D01*
G01X511302Y41402D02*
G01X511302Y36830D01*
G01X511302Y36830D02*
G01X512318Y37846D01*
G01X512318Y37846D02*
G01X515874Y37846D01*
G01X515874Y37846D02*
G01X517144Y36322D01*
G01X517144Y36322D02*
G01X517144Y33782D01*
G01X517144Y33782D02*
G01X515366Y31750D01*
G01X515366Y31750D02*
G01X512318Y31750D01*
G01X512318Y31750D02*
G01X510794Y33782D01*
G01X520954Y41402D02*
G01X524510Y31750D01*
G01X528066Y41402D02*
G01X524510Y31750D01*
G01X434848Y40386D02*
G01X429260Y40386D01*
G01X429260Y40386D02*
G01X429260Y35814D01*
G01X429260Y35814D02*
G01X430276Y36830D01*
G01X430276Y36830D02*
G01X433832Y36830D01*
G01X433832Y36830D02*
G01X435356Y35306D01*
G01X435356Y35306D02*
G01X435356Y32766D01*
G01X435356Y32766D02*
G01X433324Y30988D01*
G01X433324Y30988D02*
G01X430276Y30988D01*
G01X430276Y30988D02*
G01X428752Y32766D01*
G01X438912Y40386D02*
G01X442468Y30988D01*
G01X446024Y40386D02*
G01X442468Y30988D01*
G01X757682Y178308D02*
G01X752348Y178308D01*
G01X752348Y178308D02*
G01X752348Y173990D01*
G01X752348Y173990D02*
G01X753110Y174752D01*
G01X753110Y174752D02*
G01X756920Y174752D01*
G01X756920Y174752D02*
G01X758190Y173482D01*
G01X758190Y173482D02*
G01X758190Y170688D01*
G01X758190Y170688D02*
G01X756412Y168910D01*
G01X756412Y168910D02*
G01X753110Y168910D01*
G01X753110Y168910D02*
G01X751840Y170688D01*
G01X762000Y178308D02*
G01X765556Y168910D01*
G01X769112Y178308D02*
G01X765556Y168910D01*
G01X942848Y202438D02*
G01X937260Y202438D01*
G01X937260Y202438D02*
G01X937260Y197866D01*
G01X937260Y197866D02*
G01X938276Y198882D01*
G01X938276Y198882D02*
G01X941832Y198882D01*
G01X941832Y198882D02*
G01X943356Y197358D01*
G01X943356Y197358D02*
G01X943356Y194818D01*
G01X943356Y194818D02*
G01X941324Y192786D01*
G01X941324Y192786D02*
G01X938276Y192786D01*
G01X938276Y192786D02*
G01X936752Y194818D01*
G01X946912Y202438D02*
G01X950468Y192786D01*
G01X954024Y202438D02*
G01X950468Y192786D01*
G01X419608Y253238D02*
G01X414782Y240792D01*
G01X419608Y253238D02*
G01X424434Y240792D01*
G01X416560Y245110D02*
G01X422656Y245110D01*
G01X429006Y253238D02*
G01X429006Y240792D01*
G01X429006Y253238D02*
G01X434848Y253238D01*
G01X434848Y253238D02*
G01X437388Y250952D01*
G01X437388Y250952D02*
G01X437388Y243332D01*
G01X437388Y243332D02*
G01X434848Y240792D01*
G01X434848Y240792D02*
G01X429006Y240792D01*
G01X450850Y250444D02*
G01X450850Y251460D01*
G01X450850Y251460D02*
G01X449072Y253238D01*
G01X449072Y253238D02*
G01X443738Y253238D01*
G01X443738Y253238D02*
G01X441960Y251460D01*
G01X441960Y251460D02*
G01X441960Y242570D01*
G01X441960Y242570D02*
G01X443738Y240792D01*
G01X443738Y240792D02*
G01X449072Y240792D01*
G01X449072Y240792D02*
G01X450850Y242570D01*
G01X450850Y242570D02*
G01X450850Y243840D01*
G01X455676Y250444D02*
G01X458724Y253238D01*
G01X458724Y253238D02*
G01X458724Y240792D01*
G01X917194Y360934D02*
G01X904748Y360934D01*
G01X917194Y360934D02*
G01X917194Y354330D01*
G01X917194Y354330D02*
G01X915416Y352552D01*
G01X915416Y352552D02*
G01X913130Y352552D01*
G01X913130Y352552D02*
G01X911352Y354330D01*
G01X911352Y354330D02*
G01X911352Y360934D01*
G01X911352Y356616D02*
G01X904748Y352552D01*
G01X917194Y347980D02*
G01X904748Y347980D01*
G01X917194Y347980D02*
G01X917194Y341376D01*
G01X917194Y341376D02*
G01X915416Y339598D01*
G01X915416Y339598D02*
G01X912622Y339598D01*
G01X912622Y339598D02*
G01X910844Y341376D01*
G01X910844Y341376D02*
G01X910844Y347980D01*
G01X917194Y334772D02*
G01X904748Y334772D01*
G01X917194Y328422D02*
G01X915416Y330200D01*
G01X915416Y330200D02*
G01X906526Y330200D01*
G01X906526Y330200D02*
G01X904748Y328422D01*
G01X904748Y328422D02*
G01X904748Y323596D01*
G01X904748Y323596D02*
G01X906526Y321818D01*
G01X906526Y321818D02*
G01X915416Y321818D01*
G01X915416Y321818D02*
G01X917194Y323596D01*
G01X917194Y323596D02*
G01X917194Y328422D01*
G01X585470Y272796D02*
G01X597916Y272796D01*
G01X597916Y272796D02*
G01X597916Y279908D01*
G01X585470Y284734D02*
G01X597916Y289306D01*
G01X585470Y294132D02*
G01X597916Y289306D01*
G01X588518Y298958D02*
G01X585470Y301752D01*
G01X585470Y301752D02*
G01X597916Y301752D01*
G01X681228Y327660D02*
G01X681228Y322326D01*
G01X681228Y322326D02*
G01X685800Y322326D01*
G01X685800Y322326D02*
G01X685038Y323342D01*
G01X685038Y323342D02*
G01X685038Y326898D01*
G01X685038Y326898D02*
G01X686308Y328168D01*
G01X686308Y328168D02*
G01X689102Y328168D01*
G01X689102Y328168D02*
G01X690880Y326390D01*
G01X690880Y326390D02*
G01X690880Y323342D01*
G01X690880Y323342D02*
G01X689102Y321818D01*
G01X681228Y331978D02*
G01X690880Y335534D01*
G01X681228Y339090D02*
G01X690880Y335534D01*
G01X688594Y239776D02*
G01X689864Y241300D01*
G01X689864Y241300D02*
G01X689864Y244348D01*
G01X689864Y244348D02*
G01X689864Y244348D01*
G01X689864Y244348D02*
G01X688594Y245872D01*
G01X688594Y245872D02*
G01X686816Y245872D01*
G01X686816Y245872D02*
G01X684784Y243840D01*
G01X684784Y243840D02*
G01X683006Y245872D01*
G01X683006Y245872D02*
G01X681736Y245872D01*
G01X681736Y245872D02*
G01X680212Y244348D01*
G01X680212Y244348D02*
G01X680212Y241300D01*
G01X680212Y241300D02*
G01X681736Y239776D01*
G01X680212Y249428D02*
G01X689864Y252984D01*
G01X680212Y256794D02*
G01X689864Y252984D01*
G01X230378Y108966D02*
G01X219710Y108966D01*
G01X219710Y108966D02*
G01X217932Y107188D01*
G01X217932Y107188D02*
G01X217932Y102362D01*
G01X217932Y102362D02*
G01X219710Y100584D01*
G01X219710Y100584D02*
G01X230378Y100584D01*
G01X230378Y95758D02*
G01X217932Y95758D01*
G01X230378Y95758D02*
G01X217932Y87630D01*
G01X230378Y87630D02*
G01X217932Y87630D01*
G01X219710Y82804D02*
G01X217932Y81026D01*
G01X217932Y81026D02*
G01X217932Y76962D01*
G01X217932Y76962D02*
G01X217932Y76962D01*
G01X217932Y76962D02*
G01X219710Y75184D01*
G01X219710Y75184D02*
G01X221996Y75184D01*
G01X221996Y75184D02*
G01X224282Y77470D01*
G01X224282Y77470D02*
G01X226822Y75184D01*
G01X226822Y75184D02*
G01X228600Y75184D01*
G01X228600Y75184D02*
G01X230378Y76962D01*
G01X230378Y76962D02*
G01X230378Y81026D01*
G01X230378Y81026D02*
G01X228600Y82804D01*
G01X228346Y254000D02*
G01X217678Y254000D01*
G01X217678Y254000D02*
G01X215900Y252222D01*
G01X215900Y252222D02*
G01X215900Y247396D01*
G01X215900Y247396D02*
G01X217678Y245618D01*
G01X217678Y245618D02*
G01X228346Y245618D01*
G01X228346Y240792D02*
G01X215900Y240792D01*
G01X228346Y240792D02*
G01X215900Y232664D01*
G01X228346Y232664D02*
G01X215900Y232664D01*
G01X225298Y227330D02*
G01X226568Y227330D01*
G01X226568Y227330D02*
G01X228346Y225552D01*
G01X228346Y225552D02*
G01X228346Y221996D01*
G01X228346Y221996D02*
G01X226568Y220218D01*
G01X226568Y220218D02*
G01X223520Y220218D01*
G01X223520Y220218D02*
G01X215900Y227838D01*
G01X215900Y227838D02*
G01X215900Y219710D01*
G01X513334Y456184D02*
G01X511556Y454406D01*
G01X511556Y454406D02*
G01X511556Y449580D01*
G01X511556Y449580D02*
G01X513334Y447802D01*
G01X513334Y447802D02*
G01X515620Y447802D01*
G01X515620Y447802D02*
G01X517398Y449580D01*
G01X517398Y449580D02*
G01X517398Y453898D01*
G01X517398Y453898D02*
G01X519684Y456184D01*
G01X519684Y456184D02*
G01X522224Y456184D01*
G01X522224Y456184D02*
G01X523748Y454406D01*
G01X523748Y454406D02*
G01X523748Y449580D01*
G01X523748Y449580D02*
G01X522224Y447802D01*
G01X514350Y469646D02*
G01X513334Y469646D01*
G01X513334Y469646D02*
G01X511556Y467868D01*
G01X511556Y467868D02*
G01X511556Y462534D01*
G01X511556Y462534D02*
G01X513334Y460756D01*
G01X513334Y460756D02*
G01X522224Y460756D01*
G01X522224Y460756D02*
G01X523748Y462534D01*
G01X523748Y462534D02*
G01X523748Y467868D01*
G01X523748Y467868D02*
G01X522224Y469646D01*
G01X522224Y469646D02*
G01X520954Y469646D01*
G01X514350Y474980D02*
G01X513334Y474980D01*
G01X513334Y474980D02*
G01X511556Y476758D01*
G01X511556Y476758D02*
G01X511556Y480314D01*
G01X511556Y480314D02*
G01X513334Y482092D01*
G01X513334Y482092D02*
G01X516128Y482092D01*
G01X516128Y482092D02*
G01X523748Y474472D01*
G01X523748Y474472D02*
G01X523748Y482854D01*
G01X514350Y615188D02*
G01X512572Y613410D01*
G01X512572Y613410D02*
G01X512572Y608584D01*
G01X512572Y608584D02*
G01X514350Y606806D01*
G01X514350Y606806D02*
G01X516636Y606806D01*
G01X516636Y606806D02*
G01X518414Y608584D01*
G01X518414Y608584D02*
G01X518414Y612902D01*
G01X518414Y612902D02*
G01X520700Y615188D01*
G01X520700Y615188D02*
G01X522986Y615188D01*
G01X522986Y615188D02*
G01X524764Y613410D01*
G01X524764Y613410D02*
G01X524764Y608584D01*
G01X524764Y608584D02*
G01X522986Y606806D01*
G01X515366Y628650D02*
G01X514350Y628650D01*
G01X514350Y628650D02*
G01X512572Y626872D01*
G01X512572Y626872D02*
G01X512572Y621538D01*
G01X512572Y621538D02*
G01X514350Y619760D01*
G01X514350Y619760D02*
G01X522986Y619760D01*
G01X522986Y619760D02*
G01X524764Y621538D01*
G01X524764Y621538D02*
G01X524764Y626872D01*
G01X524764Y626872D02*
G01X522986Y628650D01*
G01X522986Y628650D02*
G01X521970Y628650D01*
G01X515366Y633476D02*
G01X512572Y636524D01*
G01X512572Y636524D02*
G01X524764Y636524D01*
G01X225806Y592328D02*
G01X225806Y581660D01*
G01X225806Y581660D02*
G01X227584Y579882D01*
G01X227584Y579882D02*
G01X232410Y579882D01*
G01X232410Y579882D02*
G01X234188Y581660D01*
G01X234188Y581660D02*
G01X234188Y592328D01*
G01X238760Y592328D02*
G01X238760Y579882D01*
G01X238760Y592328D02*
G01X247142Y579882D01*
G01X247142Y592328D02*
G01X247142Y579882D01*
G01X252476Y589280D02*
G01X252476Y590550D01*
G01X252476Y590550D02*
G01X254254Y592328D01*
G01X254254Y592328D02*
G01X257810Y592328D01*
G01X257810Y592328D02*
G01X259588Y590550D01*
G01X259588Y590550D02*
G01X259588Y587502D01*
G01X259588Y587502D02*
G01X251968Y579882D01*
G01X251968Y579882D02*
G01X260096Y579882D01*
G01X83820Y541274D02*
G01X92202Y528828D01*
G01X92202Y541274D02*
G01X83820Y528828D01*
G01X96774Y541274D02*
G01X96774Y528828D01*
G01X96774Y541274D02*
G01X103378Y541274D01*
G01X103378Y541274D02*
G01X105156Y539496D01*
G01X105156Y539496D02*
G01X105156Y536448D01*
G01X105156Y536448D02*
G01X103378Y534670D01*
G01X103378Y534670D02*
G01X96774Y534670D01*
G01X110490Y538226D02*
G01X110490Y539496D01*
G01X110490Y539496D02*
G01X112268Y541274D01*
G01X112268Y541274D02*
G01X115824Y541274D01*
G01X115824Y541274D02*
G01X117602Y539496D01*
G01X117602Y539496D02*
G01X117602Y536448D01*
G01X117602Y536448D02*
G01X109982Y528828D01*
G01X109982Y528828D02*
G01X118110Y528828D01*
G01X978408Y136906D02*
G01X967740Y136906D01*
G01X967740Y136906D02*
G01X965962Y135128D01*
G01X965962Y135128D02*
G01X965962Y130302D01*
G01X965962Y130302D02*
G01X967740Y128524D01*
G01X967740Y128524D02*
G01X978408Y128524D01*
G01X978408Y119634D02*
G01X965962Y119634D01*
G01X978408Y123952D02*
G01X978408Y115570D01*
G01X978408Y103124D02*
G01X978408Y110236D01*
G01X978408Y110236D02*
G01X972312Y110236D01*
G01X972312Y110236D02*
G01X973582Y109220D01*
G01X973582Y109220D02*
G01X973582Y104394D01*
G01X973582Y104394D02*
G01X971804Y102616D01*
G01X971804Y102616D02*
G01X968248Y102616D01*
G01X968248Y102616D02*
G01X965962Y104902D01*
G01X965962Y104902D02*
G01X965962Y109220D01*
G01X965962Y109220D02*
G01X968248Y110998D01*
G01X771906Y579374D02*
G01X770382Y577850D01*
G01X770382Y577850D02*
G01X767334Y577850D01*
G01X767334Y577850D02*
G01X765810Y579374D01*
G01X765810Y579374D02*
G01X765810Y582168D01*
G01X765810Y582168D02*
G01X767334Y583438D01*
G01X767334Y583438D02*
G01X770382Y583438D01*
G01X770382Y583438D02*
G01X771906Y582168D01*
G01X771906Y582168D02*
G01X771906Y577850D01*
G01X771906Y577850D02*
G01X771906Y575310D01*
G01X771906Y575310D02*
G01X770382Y573786D01*
G01X770382Y573786D02*
G01X767334Y573786D01*
G01X767334Y573786D02*
G01X765810Y575310D01*
G01X775462Y583438D02*
G01X779018Y573786D01*
G01X782574Y583438D02*
G01X779018Y573786D01*
G01X767842Y657352D02*
G01X766318Y656082D01*
G01X766318Y656082D02*
G01X763270Y656082D01*
G01X763270Y656082D02*
G01X762000Y657352D01*
G01X762000Y657352D02*
G01X762000Y660146D01*
G01X762000Y660146D02*
G01X763270Y661416D01*
G01X763270Y661416D02*
G01X766318Y661416D01*
G01X766318Y661416D02*
G01X767842Y660146D01*
G01X767842Y660146D02*
G01X767842Y656082D01*
G01X767842Y656082D02*
G01X767842Y653288D01*
G01X767842Y653288D02*
G01X766318Y651764D01*
G01X766318Y651764D02*
G01X763270Y651764D01*
G01X763270Y651764D02*
G01X762000Y653288D01*
G01X771398Y661416D02*
G01X774954Y651764D01*
G01X778764Y661416D02*
G01X774954Y651764D01*
G01X820928Y545338D02*
G01X822198Y543814D01*
G01X822198Y543814D02*
G01X825500Y543814D01*
G01X825500Y543814D02*
G01X825500Y543814D01*
G01X825500Y543814D02*
G01X826770Y545338D01*
G01X826770Y545338D02*
G01X826770Y547116D01*
G01X826770Y547116D02*
G01X824992Y548894D01*
G01X824992Y548894D02*
G01X826770Y550672D01*
G01X826770Y550672D02*
G01X826770Y551942D01*
G01X826770Y551942D02*
G01X825500Y553466D01*
G01X825500Y553466D02*
G01X822198Y553466D01*
G01X822198Y553466D02*
G01X820928Y551942D01*
G01X830326Y553466D02*
G01X834136Y543814D01*
G01X837692Y553466D02*
G01X834136Y543814D01*
G01X907796Y553466D02*
G01X902208Y553466D01*
G01X902208Y553466D02*
G01X902208Y548894D01*
G01X902208Y548894D02*
G01X903224Y549656D01*
G01X903224Y549656D02*
G01X906780Y549656D01*
G01X906780Y549656D02*
G01X908304Y548386D01*
G01X908304Y548386D02*
G01X908304Y545592D01*
G01X908304Y545592D02*
G01X906526Y543814D01*
G01X906526Y543814D02*
G01X903224Y543814D01*
G01X903224Y543814D02*
G01X901954Y545592D01*
G01X911860Y553466D02*
G01X915416Y543814D01*
G01X919226Y553466D02*
G01X915416Y543814D01*
G01X10414Y231902D02*
G01X22860Y231902D01*
G01X10414Y231902D02*
G01X10414Y239014D01*
G01X10414Y239014D02*
G01X10414Y239014D01*
G01X10414Y239014D02*
G01X11684Y240030D01*
G01X11684Y240030D02*
G01X14478Y240030D01*
G01X14478Y240030D02*
G01X15748Y239014D01*
G01X15748Y239014D02*
G01X16256Y237236D01*
G01X16256Y231902D02*
G01X16256Y237236D01*
G01X16256Y237236D02*
G01X16256Y237236D01*
G01X16256Y237236D02*
G01X17018Y239014D01*
G01X17018Y239014D02*
G01X18796Y240030D01*
G01X18796Y240030D02*
G01X21590Y240030D01*
G01X21590Y240030D02*
G01X22860Y239014D01*
G01X22860Y239014D02*
G01X22860Y237236D01*
G01X22860Y237236D02*
G01X22860Y231902D01*
G01X10414Y244856D02*
G01X22860Y244856D01*
G01X10414Y244856D02*
G01X22860Y249682D01*
G01X10414Y254254D02*
G01X22860Y249682D01*
G01X10414Y254254D02*
G01X22860Y254254D01*
G01X13462Y259080D02*
G01X10414Y262128D01*
G01X10414Y262128D02*
G01X22860Y262128D01*
G01X11430Y137922D02*
G01X23876Y137922D01*
G01X11430Y137922D02*
G01X11430Y145034D01*
G01X11430Y145034D02*
G01X11430Y145034D01*
G01X11430Y145034D02*
G01X12700Y146050D01*
G01X12700Y146050D02*
G01X15494Y146050D01*
G01X15494Y146050D02*
G01X16764Y145034D01*
G01X16764Y145034D02*
G01X17272Y143256D01*
G01X17272Y137922D02*
G01X17272Y143256D01*
G01X17272Y143256D02*
G01X17272Y143256D01*
G01X17272Y143256D02*
G01X18034Y145034D01*
G01X18034Y145034D02*
G01X19812Y146050D01*
G01X19812Y146050D02*
G01X22606Y146050D01*
G01X22606Y146050D02*
G01X23876Y145034D01*
G01X23876Y145034D02*
G01X23876Y143256D01*
G01X23876Y143256D02*
G01X23876Y137922D01*
G01X11430Y150876D02*
G01X23876Y150876D01*
G01X11430Y150876D02*
G01X23876Y155702D01*
G01X11430Y160274D02*
G01X23876Y155702D01*
G01X11430Y160274D02*
G01X23876Y160274D01*
G01X14478Y165608D02*
G01X13208Y165608D01*
G01X13208Y165608D02*
G01X11430Y167386D01*
G01X11430Y167386D02*
G01X11430Y170942D01*
G01X11430Y170942D02*
G01X13208Y172720D01*
G01X13208Y172720D02*
G01X16256Y172720D01*
G01X16256Y172720D02*
G01X23876Y165100D01*
G01X23876Y165100D02*
G01X23876Y173228D01*
G01X9398Y53848D02*
G01X21844Y53848D01*
G01X9398Y53848D02*
G01X9398Y61468D01*
G01X15494Y53848D02*
G01X15494Y58674D01*
G01X12446Y66294D02*
G01X9398Y69342D01*
G01X9398Y69342D02*
G01X21844Y69342D01*
G01X844804Y582168D02*
G01X855472Y582168D01*
G01X839978Y660146D02*
G01X850392Y660146D01*
G01X468376Y633730D02*
G01X468376Y628396D01*
G01X468376Y628396D02*
G01X472948Y628396D01*
G01X472948Y628396D02*
G01X471932Y629158D01*
G01X471932Y629158D02*
G01X471932Y632968D01*
G01X471932Y632968D02*
G01X473202Y634238D01*
G01X473202Y634238D02*
G01X475996Y634238D01*
G01X475996Y634238D02*
G01X477774Y632460D01*
G01X477774Y632460D02*
G01X477774Y629158D01*
G01X477774Y629158D02*
G01X475996Y627888D01*
G01X468376Y637794D02*
G01X477774Y641604D01*
G01X468376Y645160D02*
G01X477774Y641604D01*
G01X451866Y327406D02*
G01X446278Y327406D01*
G01X446278Y327406D02*
G01X446278Y322834D01*
G01X446278Y322834D02*
G01X447294Y323850D01*
G01X447294Y323850D02*
G01X450850Y323850D01*
G01X450850Y323850D02*
G01X452120Y322326D01*
G01X452120Y322326D02*
G01X452120Y319786D01*
G01X452120Y319786D02*
G01X450342Y317754D01*
G01X450342Y317754D02*
G01X447294Y317754D01*
G01X447294Y317754D02*
G01X445770Y319786D01*
G01X455930Y327406D02*
G01X459486Y317754D01*
G01X463042Y327406D02*
G01X459486Y317754D01*
G01X39624Y28956D02*
G01X37338Y31242D01*
G01X37338Y31242D02*
G01X46990Y31242D01*
G01X39624Y35306D02*
G01X38608Y35306D01*
G01X38608Y35306D02*
G01X37338Y36576D01*
G01X37338Y36576D02*
G01X37338Y39370D01*
G01X37338Y39370D02*
G01X38608Y40640D01*
G01X38608Y40640D02*
G01X40894Y40640D01*
G01X40894Y40640D02*
G01X46990Y34798D01*
G01X46990Y34798D02*
G01X46990Y41148D01*
G01X41402Y124714D02*
G01X42672Y123444D01*
G01X42672Y123444D02*
G01X42672Y120142D01*
G01X42672Y120142D02*
G01X41402Y118872D01*
G01X41402Y118872D02*
G01X38608Y118872D01*
G01X38608Y118872D02*
G01X37338Y120142D01*
G01X37338Y120142D02*
G01X37338Y123444D01*
G01X37338Y123444D02*
G01X38608Y124714D01*
G01X38608Y124714D02*
G01X42672Y124714D01*
G01X42672Y124714D02*
G01X45466Y124714D01*
G01X45466Y124714D02*
G01X46990Y123444D01*
G01X46990Y123444D02*
G01X46990Y120142D01*
G01X46990Y120142D02*
G01X45466Y118872D01*
G01X40386Y216662D02*
G01X41656Y215392D01*
G01X41656Y215392D02*
G01X41656Y212344D01*
G01X41656Y212344D02*
G01X40386Y210820D01*
G01X40386Y210820D02*
G01X37592Y210820D01*
G01X37592Y210820D02*
G01X36322Y212344D01*
G01X36322Y212344D02*
G01X36322Y215392D01*
G01X36322Y215392D02*
G01X37592Y216662D01*
G01X37592Y216662D02*
G01X41656Y216662D01*
G01X41656Y216662D02*
G01X44450Y216662D01*
G01X44450Y216662D02*
G01X45974Y215392D01*
G01X45974Y215392D02*
G01X45974Y212344D01*
G01X45974Y212344D02*
G01X44450Y210820D01*
G01X20828Y457962D02*
G01X28956Y457962D01*
G01X311912Y197104D02*
G01X314198Y199390D01*
G01X314198Y199390D02*
G01X314198Y189992D01*
G01X318262Y197104D02*
G01X318262Y198120D01*
G01X318262Y198120D02*
G01X319532Y199390D01*
G01X319532Y199390D02*
G01X322326Y199390D01*
G01X322326Y199390D02*
G01X323596Y198120D01*
G01X323596Y198120D02*
G01X323596Y195834D01*
G01X323596Y195834D02*
G01X317754Y189992D01*
G01X317754Y189992D02*
G01X324104Y189992D01*
G01X327660Y199390D02*
G01X331470Y189992D01*
G01X335026Y199390D02*
G01X331470Y189992D01*
G01X342392Y199390D02*
G01X341376Y199390D01*
G01X341376Y199390D02*
G01X340614Y198882D01*
G01X340614Y198882D02*
G01X340106Y197612D01*
G01X340106Y197612D02*
G01X340106Y189992D01*
G01X338582Y196342D02*
G01X341884Y196342D01*
G54D14*
G01X71120Y115824D02*
G01X71120Y105156D01*
G01X606552Y327914D02*
G01X606552Y338582D01*
M2*
